<svg width="20" height="20" xmlns="http://www.w3.org/2000/svg"><path d="M12.159 1.75c1.806 0 2.668.166 3.563.645a4.536 4.536 0 011.883 1.883c.479.895.645 1.757.645 3.563v4.318c0 1.806-.166 2.668-.645 3.563a4.536 4.536 0 01-1.883 1.883c-.895.479-1.757.645-3.563.645H7.84c-1.806 0-2.668-.166-3.563-.645a4.536 4.536 0 01-1.883-1.883c-.479-.895-.645-1.757-.645-3.563V7.84c0-1.806.166-2.668.645-3.563a4.536 4.536 0 011.883-1.883c.895-.479 1.757-.645 3.563-.645h4.318zm0 1.5H7.84c-1.58 0-2.208.121-2.856.468a3.035 3.035 0 00-1.267 1.267c-.347.648-.468 1.276-.468 2.856v4.318c0 1.58.121 2.208.468 2.856.293.548.719.974 1.267 1.267.648.347 1.276.468 2.856.468h4.318c1.58 0 2.208-.121 2.856-.468a3.035 3.035 0 001.267-1.267c.347-.648.468-1.276.468-2.856V7.84c0-1.58-.121-2.208-.468-2.856a3.036 3.036 0 00-1.267-1.267c-.648-.347-1.276-.468-2.856-.468zm-1.902 3.601a.75.75 0 011.059.073l2.25 2.583a.75.75 0 010 .986l-2.25 2.583a.75.75 0 01-1.132-.985l1.168-1.341H7a.75.75 0 01-.744-.656L6.25 10A.75.75 0 017 9.25h4.352l-1.168-1.34a.75.75 0 01.001-.987l.072-.072z"/></svg>