<svg width="32" height="32" xmlns="http://www.w3.org/2000/svg"><path fill-rule="evenodd" clip-rule="evenodd" d="M10.493 13.185a6 6 0 10-1.492 11.813h3a1 1 0 010 2h-3a8.004 8.004 0 01-7.64-5.649 8 8 0 019.627-10.102 1 1 0 01-.495 1.938z"/><path fill-rule="evenodd" clip-rule="evenodd" d="M22.846 7.46A9 9 0 0011 15.999a1 1 0 11-2 0 11 11 0 1119.8 6.6 1 1 0 01-1.6-1.2 9.002 9.002 0 00-4.354-13.937z"/><path fill-rule="evenodd" clip-rule="evenodd" d="M19 14.998a1 1 0 01.708.293l4.242 4.243a1 1 0 01-1.414 1.414L19 17.412l-3.535 3.536a1 1 0 01-1.414-1.414l4.242-4.243a1 1 0 01.707-.293z"/><path fill-rule="evenodd" clip-rule="evenodd" d="M19 14.998a1 1 0 011 1v10a1 1 0 11-2 0v-10a1 1 0 011-1z"/></svg>