<svg width="16" height="16" viewBox="0 0 16 16" xmlns="http://www.w3.org/2000/svg"><path fill-rule="evenodd" clip-rule="evenodd" d="M4.99998 1.59961C5.33135 1.59961 5.59998 1.86824 5.59998 2.19961C5.59998 2.53098 5.33135 2.79961 4.99998 2.79961H3.59998C3.15815 2.79961 2.79998 3.15778 2.79998 3.59961V11.1996C2.79998 12.3042 3.69541 13.1996 4.79998 13.1996H12.4C12.8418 13.1996 13.2 12.8414 13.2 12.3996V10.9996C13.2 10.6682 13.4686 10.3996 13.8 10.3996C14.1313 10.3996 14.4 10.6682 14.4 10.9996V12.3996C14.4 13.5042 13.5045 14.3996 12.4 14.3996H4.79998C3.03266 14.3996 1.59998 12.9669 1.59998 11.1996V3.59961C1.59998 2.49504 2.49541 1.59961 3.59998 1.59961H4.99998ZM9.19998 2.19961C9.19998 1.86824 9.4686 1.59961 9.79998 1.59961H13C13.7732 1.59961 14.4 2.22641 14.4 2.99961V6.19961C14.4 6.53098 14.1313 6.79961 13.8 6.79961C13.4686 6.79961 13.2 6.53098 13.2 6.19961V3.64814L8.62424 8.22387C8.38993 8.45819 8.01003 8.45819 7.77571 8.22387C7.5414 7.98956 7.5414 7.60966 7.77571 7.37535L12.3514 2.79961H9.79998C9.4686 2.79961 9.19998 2.53098 9.19998 2.19961Z"/></svg>