<svg width="20" height="20" xmlns="http://www.w3.org/2000/svg"><path d="M10.001 1.667c1.828 0 3.007.913 3.321 2.613.004.018.01.036.012.054h4.25a.75.75 0 01.095 1.493l-.094.006h-.918l-1.15 10.352a2.417 2.417 0 01-2.255 2.144l-.146.004H6.887a2.417 2.417 0 01-2.402-2.148L3.33 5.832h-.912a.75.75 0 01-.094-1.494l.094-.006 4.26.001h-.006l.008-.054c.314-1.7 1.494-2.614 3.321-2.614zm5.161 4.166H4.838l1.138 10.185a.917.917 0 00.716.794l.096.016.1.005h6.228c.466 0 .859-.35.91-.815l1.136-10.185zm-5.16 1.25a.75.75 0 01.743.656l.006.094v6.833a.75.75 0 01-1.494.095l-.006-.095V7.833a.75.75 0 01.75-.75zm2.878.002a.75.75 0 01.703.7v.094l-.416 6.833a.75.75 0 01-1.498.003v-.094l.417-6.833a.75.75 0 01.794-.703zm-4.975.609l.012.094.416 6.833a.75.75 0 01-1.485.185l-.012-.094-.417-6.833a.75.75 0 011.486-.185zm2.096-4.527c-1.035 0-1.577.355-1.796 1.164l-.009.002h3.602c-.22-.81-.761-1.167-1.797-1.167z"/></svg>