<svg width="20" height="20" xmlns="http://www.w3.org/2000/svg"><path fill-rule="evenodd" clip-rule="evenodd" d="M16.323 4.073c-.452-.242-.896-.36-2.028-.36h-8.59c-1.132 0-1.576.118-2.027.36a2.487 2.487 0 00-1.034 1.033c-.24.451-.359.895-.359 2.027v5.733c0 1.132.118 1.576.36 2.028a2.48 2.48 0 001.033 1.033c.451.241.895.36 2.027.36h8.59c1.132 0 1.576-.119 2.028-.36a2.486 2.486 0 001.033-1.033c.241-.452.36-.896.36-2.028V7.133c0-1.132-.119-1.576-.36-2.027a2.486 2.486 0 00-1.033-1.033zM5.705 5.215h8.693c.767.004.991.061 1.216.182.184.098.32.234.418.417.099.185.155.37.174.851l-6.072 2.803a.32.32 0 01-.268 0L3.794 6.666c.02-.483.076-.667.174-.852a.986.986 0 01.418-.417c.235-.126.468-.182 1.319-.182zm3.532 5.616a1.822 1.822 0 001.527 0l5.45-2.515v4.55c0 .852-.056 1.084-.182 1.32a.986.986 0 01-.417.417c-.236.126-.468.182-1.32.182h-8.59c-.851 0-1.083-.056-1.32-.182a.986.986 0 01-.416-.417c-.126-.236-.182-.468-.182-1.32v-4.55l5.45 2.515z"/></svg>