<svg width="20" height="20" viewBox="0 0 20 20" xmlns="http://www.w3.org/2000/svg"><path fill-rule="evenodd" clip-rule="evenodd" d="M10.9238 4.86172L12.8918 2.89374C13.7423 2.04323 15.1212 2.04323 15.9717 2.89374L17.1044 4.02644C17.955 4.87695 17.955 6.25589 17.1044 7.1064L7.41822 16.7927C6.80887 17.402 5.98243 17.7443 5.1207 17.7443H3.75319C2.92516 17.7443 2.25391 17.073 2.25391 16.245V14.8775C2.25391 14.0158 2.59627 13.1893 3.20567 12.5799L10.9238 4.86172ZM11.9318 5.97353L4.26529 13.6396C3.93694 13.9679 3.75248 14.4132 3.75248 14.8775V16.245L3.75319 16.2457H5.1207C5.585 16.2457 6.03028 16.0613 6.3586 15.733L14.0251 8.06689L11.9318 5.97353ZM13.0527 4.85214L15.146 6.9455L16.0448 6.04675C16.3101 5.78147 16.3101 5.35137 16.0448 5.08609L14.9121 3.95339C14.6468 3.68811 14.2167 3.68811 13.9514 3.95339L13.0527 4.85214Z"/></svg>