<svg width="20" height="20" xmlns="http://www.w3.org/2000/svg"><path d="M10.604 2.008c1.007.031 1.661.585 2.006 1.63l.055.178.042.16c.016.061.035.127.057.195l.048.132.028.015.058-.02.111-.042.13-.057c1.178-.548 2.085-.446 2.823.365l.104.12.684.848c.608.802.59 1.659-.004 2.584l-.104.155-.098.133c-.039.052-.079.11-.118.171l-.06.096-.027.047.003.017.076.05.106.064.128.07c1.157.59 1.635 1.367 1.45 2.447l-.03.156-.203.882c-.132.57-.236.84-.643 1.211-.395.36-.847.509-1.443.558l-.183.012-.165.005a2.803 2.803 0 00-.206.012l-.15.018.01.119.012.08.027.149c.27 1.271-.034 2.131-.99 2.668l-.141.074-.98.476c-.918.413-1.749.202-2.517-.585l-.127-.137-.108-.125a2.815 2.815 0 00-.142-.155l-.08-.08-.042-.038-.076.073-.088.09-.098.11c-.793.945-1.631 1.284-2.647.89l-.146-.062-.876-.426-.26-.133c-.397-.217-.62-.424-.837-.884-.23-.483-.245-.958-.134-1.569l.037-.187c.014-.063.025-.13.035-.202l.015-.143-.003-.004-.087-.011-.122-.011-.145-.007c-1.299-.023-2.069-.512-2.377-1.564l-.04-.155-.244-1.06c-.195-.988.197-1.75 1.137-2.322l.161-.093.146-.077c.058-.03.118-.064.18-.101l.13-.085.003-.015-.053-.09-.067-.105-.085-.119c-.781-1.038-.87-1.946-.23-2.836l.096-.128.686-.844c.658-.763 1.5-.923 2.529-.534l.173.07.151.067c.057.027.119.053.185.078l.113.04.03-.014.028-.074.037-.115.039-.139c.3-1.197.903-1.869 1.991-1.959l.159-.009 1.157.001zm-.046 1.5H9.446l-.117.008c-.238.03-.394.16-.543.693l-.035.13-.047.172a5.27 5.27 0 01-.39.945c-.337.12-.657.277-.956.465a5.375 5.375 0 01-.966-.291L6.1 5.5a1.67 1.67 0 00-.486-.144l-.07-.003a.459.459 0 00-.34.16l-.057.063-.657.81-.08.104c-.152.22-.175.417.163.896l.19.264c.177.258.354.576.498.917-.107.32-.184.655-.225 1.002-.278.24-.574.447-.844.6l-.285.153c-.515.283-.58.47-.54.734l.012.063.233 1.017.034.126c.08.256.22.395.806.424l.323.012c.31.02.665.075 1.02.17.187.29.403.56.646.806.014.439-.027.867-.098 1.205-.168.79-.012.918.32 1.082l.938.457c.1.044.188.075.28.073l.056-.004c.151-.023.318-.135.559-.404l.215-.246c.214-.232.487-.479.79-.697l.249.018.251.006.252-.006.248-.02c.303.22.576.467.79.7l.215.245c.27.303.448.406.615.409l.055-.004a.627.627 0 00.148-.038l.077-.032.939-.457.115-.061c.25-.145.35-.33.204-1.021a5.157 5.157 0 01-.097-1.205c.242-.245.458-.515.646-.807a5.38 5.38 0 011.02-.169l.322-.012c.676-.033.76-.213.84-.55l.22-.951c.075-.339.079-.537-.514-.863l-.286-.153a5.357 5.357 0 01-.844-.601 4.954 4.954 0 00-.226-1.001c.145-.341.322-.66.499-.917l.19-.264c.338-.48.315-.676.162-.896l-.037-.051-.656-.812c-.117-.143-.216-.245-.376-.269l-.064-.005c-.133-.003-.307.041-.556.148l-.292.129c-.279.115-.614.22-.965.29-.3-.187-.62-.344-.959-.463a5.408 5.408 0 01-.377-.91l-.095-.346c-.16-.565-.327-.67-.594-.69l-.064-.004zm-.556 3.49a3.167 3.167 0 110 6.333 3.167 3.167 0 010-6.333zm0 1.5a1.667 1.667 0 100 3.333 1.667 1.667 0 000-3.333z"/></svg>