<svg width="20" height="20" xmlns="http://www.w3.org/2000/svg"><path d="M9 5c0 .85-.65 1.5-1.5 1.5S6 5.85 6 5s.65-1.5 1.5-1.5S9 4.15 9 5zm3.5 1.5c.85 0 1.5-.65 1.5-1.5s-.65-1.5-1.5-1.5S11 4.15 11 5s.65 1.5 1.5 1.5zm-5 2C6.65 8.5 6 9.15 6 10s.65 1.5 1.5 1.5S9 10.85 9 10s-.65-1.5-1.5-1.5zm5 0c-.85 0-1.5.65-1.5 1.5s.65 1.5 1.5 1.5S14 10.85 14 10s-.65-1.5-1.5-1.5zm-5 5c-.85 0-1.5.65-1.5 1.5s.65 1.5 1.5 1.5S9 15.85 9 15s-.65-1.5-1.5-1.5zm5 0c-.85 0-1.5.65-1.5 1.5s.65 1.5 1.5 1.5S14 15.85 14 15s-.65-1.5-1.5-1.5z"/></svg>