<svg width="21" height="21" viewBox="0 0 21 21" fill="none" xmlns="http://www.w3.org/2000/svg">
<path fill-rule="evenodd" clip-rule="evenodd" d="M19.2254 9.9717C19.4478 9.96059 19.6273 9.86387 19.7641 9.68155C20.0067 9.34177 19.9097 8.90492 19.6184 8.66222L11.9978 3.22582C11.3668 2.74043 10.493 2.74043 9.86204 3.17728L2.28991 8.37098C2.28068 8.37758 2.27162 8.38432 2.26274 8.3912C1.94511 8.63736 1.85965 9.05977 2.09575 9.39031C2.23153 9.5804 2.42808 9.69453 2.6344 9.71569C2.79687 9.73236 2.96539 9.69138 3.11508 9.58447L4.1344 8.85638V14.8267C4.1344 17.0595 5.93036 18.8555 8.16316 18.8555H13.6966C15.9295 18.8555 17.7254 17.0595 17.7254 14.8267V9.09907L18.7447 9.82716C18.7545 9.83366 18.7642 9.83994 18.774 9.846C18.9098 9.93052 19.0457 9.97278 19.1816 9.97278C19.1964 9.97278 19.211 9.97242 19.2254 9.9717ZM16.2254 8.08427L11.1046 4.43124L11.0832 4.41476C11.0363 4.37871 10.9762 4.35665 10.9057 4.35551C10.8327 4.35434 10.7655 4.3762 10.7159 4.41057L10.7105 4.41428L5.6344 7.89594V14.8267C5.6344 16.2311 6.75878 17.3555 8.16316 17.3555H13.6966C15.101 17.3555 16.2254 16.2311 16.2254 14.8267V8.08427Z" fill="#6F7883"/>
</svg>
