<svg width="72" height="73" viewBox="0 0 72 73" fill="none" xmlns="http://www.w3.org/2000/svg">
<rect width="31.68" height="31.68" rx="2.88" transform="matrix(0.866025 0.5 -0.866025 0.5 36 38.2954)" fill="black" fill-opacity="0.05"/>
<path d="M64.8007 37.785V45.4645C64.7744 45.7538 64.5903 45.9905 64.3273 46.122C64.038 46.2798 37.4226 61.56 37.1333 61.7178C36.4232 62.086 35.5816 62.086 34.8715 61.7178C34.5822 61.56 7.9668 46.2798 7.6775 46.122C7.4145 46.0168 7.2304 45.7538 7.2041 45.4645V37.8113V37.6798H7.2304C7.3093 37.4431 7.4671 37.259 7.6775 37.1538C7.9668 36.996 34.5822 21.4791 34.8715 21.3213C35.5816 20.9531 36.4232 20.9531 37.1333 21.3213C37.4226 21.4791 64.038 36.996 64.3273 37.1538C64.5377 37.259 64.6955 37.4431 64.7744 37.6798H64.8007V37.785Z" fill="#D1D9EB"/>
<path d="M64.3264 38.334C64.0371 38.4918 37.4217 53.8772 37.1324 54.0613C36.4223 54.4295 35.5807 54.4295 34.8706 54.0613C34.5813 53.9035 7.96595 38.5181 7.67665 38.334C7.30845 38.2025 7.12435 37.8343 7.22955 37.4661C7.30845 37.2557 7.46625 37.0979 7.67665 37.019C7.96595 36.8612 34.5813 21.4759 34.8706 21.2918C35.5807 20.9236 36.4223 20.9236 37.1324 21.2918C37.4217 21.4496 64.0371 36.8349 64.3264 37.019C64.6683 37.1242 64.8787 37.5187 64.7472 37.8606C64.7472 37.8606 64.7472 37.8606 64.7472 37.8869C64.6946 38.0973 64.5368 38.2551 64.3264 38.334ZM62.4328 36.9927C62.1698 36.8349 37.185 22.2912 36.8957 22.1334C36.2382 21.7915 35.4229 21.7915 34.7654 22.1334C34.5024 22.2912 9.51763 36.8349 9.22834 36.9927C8.88644 37.1242 8.70234 37.4924 8.83384 37.8343C8.91274 38.0184 9.04424 38.1499 9.22834 38.2288C9.49133 38.3866 34.5024 52.9304 34.7654 53.0882C35.4229 53.4301 36.2382 53.4301 36.8957 53.0882C37.1587 52.9304 62.1698 38.3866 62.4328 38.2288C62.7747 38.1236 62.9588 37.7554 62.8273 37.4135V37.3872C62.7484 37.2031 62.6169 37.0453 62.4328 36.9927Z" fill="white" fill-opacity="0.5"/>
<path d="M34.7926 53.0095C34.5822 52.9043 21.4323 45.251 14.0684 40.9905C22.0372 36.388 34.6611 29.103 34.8452 28.9715C35.5553 28.6033 36.3969 28.6033 37.107 28.9715C37.3174 29.0767 49.7572 36.2828 57.7523 40.9116C50.4147 45.1721 37.107 52.9043 36.8966 53.0095C36.2391 53.3777 35.4501 53.3777 34.7926 53.0095Z" fill="#0A1833" fill-opacity="0.6"/>
<path d="M25.0342 51.115C25.2446 51.2202 25.4024 51.5095 25.4024 51.7462C25.4024 51.9829 25.2446 52.0881 25.0342 51.9566C24.8238 51.8514 24.666 51.5621 24.666 51.3254C24.666 51.115 24.8238 51.0098 25.0342 51.115Z" fill="black" fill-opacity="0.2"/>
<path d="M25.0606 52.5878C25.271 52.7193 25.4288 52.9822 25.4288 53.2452C25.4288 53.4819 25.271 53.5871 25.0606 53.4556C24.8502 53.3504 24.6924 53.0611 24.6924 52.8244C24.6924 52.5877 24.8502 52.4563 25.0606 52.5878Z" fill="#007AFF"/>
<path d="M26.4287 51.9306C26.6391 52.0358 26.7969 52.3251 26.7969 52.5618C26.7969 52.7985 26.6391 52.9037 26.4287 52.7722C26.2183 52.667 26.0605 52.3777 26.0605 52.141C26.0605 51.9306 26.2183 51.7991 26.4287 51.9306Z" fill="black" fill-opacity="0.2"/>
<path d="M26.4541 53.404C26.6645 53.5092 26.8223 53.7985 26.8223 54.0352C26.8223 54.2719 26.6645 54.3771 26.4541 54.2456C26.2437 54.1404 26.0859 53.8511 26.0859 53.6144C26.0859 53.3777 26.2437 53.2725 26.4541 53.404Z" fill="black" fill-opacity="0.2"/>
<path d="M27.9268 52.8512C28.1372 52.9564 28.295 53.2457 28.295 53.4824C28.295 53.7191 28.1372 53.8243 27.9268 53.6928C27.7164 53.5876 27.5586 53.2983 27.5586 53.0616C27.5586 52.8249 27.7164 52.7197 27.9268 52.8512Z" fill="#007AFF"/>
<path d="M27.9532 54.3247C28.1636 54.4299 28.3214 54.7192 28.3214 54.9559C28.3214 55.1926 28.1636 55.2978 27.9532 55.1663C27.7428 55.0611 27.585 54.7718 27.585 54.5351C27.585 54.2984 27.7428 54.2458 27.9532 54.3247Z" fill="black" fill-opacity="0.2"/>
<path d="M29.4268 53.6667C29.6372 53.7719 29.795 54.0611 29.795 54.2978C29.795 54.5345 29.6372 54.6397 29.4268 54.5082C29.2164 54.403 29.0586 54.1137 29.0586 53.877C29.0586 53.6404 29.2164 53.5352 29.4268 53.6667Z" fill="#007AFF"/>
<path d="M29.4532 55.1389C29.6636 55.2441 29.8214 55.5334 29.8214 55.7701C29.8214 56.0068 29.6636 56.112 29.4532 55.9805C29.2428 55.8753 29.085 55.586 29.085 55.3493C29.085 55.1389 29.2428 55.06 29.4532 55.1389Z" fill="black" fill-opacity="0.2"/>
<path d="M30.8194 54.5088C31.0298 54.614 31.1876 54.9033 31.1876 55.14C31.1876 55.3767 31.0298 55.4819 30.8194 55.3504C30.609 55.2452 30.4512 54.9559 30.4512 54.7192C30.4512 54.4562 30.609 54.4036 30.8194 54.5088Z" fill="black" fill-opacity="0.2"/>
<path d="M30.8467 55.9807C31.0571 56.0859 31.2149 56.3752 31.2149 56.6119C31.2149 56.8486 31.0571 56.9538 30.8467 56.8223C30.6363 56.7171 30.4785 56.4278 30.4785 56.1911C30.4785 55.9807 30.6363 55.8755 30.8467 55.9807Z" fill="#007AFF"/>
<path d="M32.3194 55.4031C32.5298 55.5083 32.6876 55.7976 32.6876 56.0343C32.6876 56.2709 32.5298 56.3761 32.3194 56.2446C32.109 56.1394 31.9512 55.8502 31.9512 55.6135C31.9512 55.4031 32.109 55.3242 32.3194 55.4031Z" fill="black" fill-opacity="0.2"/>
<path d="M32.3457 56.9276C32.5561 57.0329 32.7139 57.3222 32.7139 57.5589C32.7139 57.7956 32.5561 57.9008 32.3457 57.7693C32.1353 57.6641 31.9775 57.3748 31.9775 57.1381C31.9775 56.9013 32.1353 56.7961 32.3457 56.9276Z" fill="#007AFF"/>
<path d="M10.7803 42.7794C10.9907 42.8846 11.1485 43.1739 11.1485 43.4106C11.1485 43.6473 10.9907 43.7262 10.7803 43.621C10.5699 43.5158 10.4121 43.2265 10.4121 42.9898C10.4121 42.7531 10.5962 42.6742 10.7803 42.7794Z" fill="black" fill-opacity="0.2"/>
<path d="M10.7803 44.2521C10.9907 44.3573 11.1485 44.6466 11.1485 44.8833C11.1485 45.12 10.9907 45.1989 10.7803 45.0937C10.5699 44.9885 10.4121 44.6992 10.4121 44.4625C10.4121 44.2258 10.5962 44.1206 10.7803 44.2521Z" fill="#007AFF"/>
<path d="M12.1739 43.5932C12.3843 43.6984 12.5421 43.9877 12.5421 44.2244C12.5421 44.4611 12.3843 44.54 12.1739 44.4348C11.9635 44.3296 11.8057 44.0403 11.8057 43.8036C11.8057 43.5932 11.9635 43.5143 12.1739 43.5932Z" fill="#007AFF"/>
<path d="M12.1739 45.0934C12.3843 45.1986 12.5421 45.4879 12.5421 45.7246C12.5421 45.9613 12.3843 46.0402 12.1739 45.935C11.9635 45.8298 11.8057 45.5405 11.8057 45.3038C11.8057 45.0671 11.9635 44.9619 12.1739 45.0934Z" fill="black" fill-opacity="0.2"/>
<path d="M13.6465 44.5673C13.8569 44.6725 14.0147 44.9618 14.0147 45.1985C14.0147 45.4352 13.8569 45.5141 13.6465 45.4089C13.4361 45.3037 13.2783 45.0144 13.2783 44.7777C13.2783 44.5673 13.4361 44.4358 13.6465 44.5673Z" fill="black" fill-opacity="0.2"/>
<path d="M13.6465 46.0392C13.8569 46.1444 14.0147 46.4337 14.0147 46.6704C14.0147 46.9071 13.8569 46.986 13.6465 46.8808C13.4361 46.7756 13.2783 46.4863 13.2783 46.2496C13.2783 46.0129 13.4361 45.9077 13.6465 46.0392Z" fill="black" fill-opacity="0.2"/>
<path d="M16.0889 46.5579C16.0889 46.3563 16.0889 46.2555 16.1228 46.1981C16.1527 46.1476 16.2004 46.1201 16.2591 46.1195C16.3258 46.1187 16.4131 46.1691 16.5877 46.2699L17.2573 46.6565C17.4319 46.7573 17.5192 46.8077 17.5859 46.8855C17.6445 46.9538 17.6922 47.0365 17.7221 47.1215C17.7561 47.2181 17.7561 47.3189 17.7561 47.5205L17.7561 48.2937C17.7561 48.4953 17.7561 48.5961 17.7221 48.6535C17.6922 48.7039 17.6445 48.7315 17.5859 48.7321C17.5192 48.7329 17.4319 48.6825 17.2573 48.5817L16.5877 48.1951C16.4131 48.0943 16.3258 48.0439 16.2591 47.9661C16.2004 47.8977 16.1527 47.8151 16.1228 47.7301C16.0889 47.6335 16.0889 47.5327 16.0889 47.3311L16.0889 46.5579Z" fill="#33FFFF"/>
<path d="M18.5752 48.1151C18.5752 47.9134 18.5752 47.8126 18.6092 47.7552C18.6391 47.7048 18.6868 47.6772 18.7454 47.6766C18.8121 47.6758 18.8994 47.7263 19.074 47.8271L19.7436 48.2136C19.9182 48.3144 20.0055 48.3648 20.0722 48.4426C20.1309 48.511 20.1785 48.5936 20.2084 48.6786C20.2424 48.7752 20.2424 48.876 20.2424 49.0776L20.2424 49.8508C20.2424 50.0524 20.2424 50.1532 20.2084 50.2106C20.1785 50.2611 20.1309 50.2886 20.0722 50.2893C20.0055 50.29 19.9182 50.2396 19.7436 50.1388L19.074 49.7522C18.8994 49.6514 18.8121 49.601 18.7454 49.5233C18.6868 49.4549 18.6391 49.3723 18.6092 49.2873C18.5752 49.1906 18.5752 49.0898 18.5752 48.8882L18.5752 48.1151Z" fill="black" fill-opacity="0.1"/>
<path d="M21.085 49.6182C21.085 49.4166 21.085 49.3158 21.1189 49.2584C21.1488 49.2079 21.1965 49.1804 21.2552 49.1798C21.3219 49.179 21.4092 49.2294 21.5838 49.3302L22.2534 49.7168C22.428 49.8176 22.5153 49.868 22.582 49.9458C22.6406 50.0141 22.6883 50.0968 22.7182 50.1818C22.7522 50.2784 22.7522 50.3792 22.7522 50.5808L22.7522 51.354C22.7522 51.5556 22.7522 51.6564 22.7182 51.7138C22.6883 51.7643 22.6406 51.7918 22.582 51.7924C22.5153 51.7932 22.428 51.7428 22.2534 51.642L21.5838 51.2554C21.4092 51.1546 21.3219 51.1042 21.2552 51.0264C21.1965 50.958 21.1488 50.8754 21.1189 50.7904C21.085 50.6938 21.085 50.593 21.085 50.3914L21.085 49.6182Z" fill="black" fill-opacity="0.1"/>
<path d="M51.6669 49.0237C51.5541 48.0633 50.7937 47.7068 49.8751 48.2371C49.164 48.6477 48.5463 49.4843 48.2643 50.4036C47.7101 50.9148 47.2949 51.7588 47.2949 52.4083C47.2949 53.2297 47.8737 53.5638 48.585 53.1531L51.4233 51.5144C51.9925 51.1858 52.4554 50.3841 52.4554 49.7268C52.455 49.46 52.3771 49.2457 52.2342 49.1183C52.0912 48.9908 51.8915 48.9575 51.6669 49.0237Z" fill="black" fill-opacity="0.1"/>
<path d="M8.74706 50.5052L16.207 46.1589L17.6296 48.6993L11.2051 52.484L8.74706 50.5052Z" fill="url(#paint0_linear_10930_607302)"/>
<path d="M11.3594 52.1084L18.8193 47.7622L20.2419 50.3026L13.8174 54.0873L11.3594 52.1084Z" fill="url(#paint1_linear_10930_607302)"/>
<path d="M13.8691 53.5943L21.3291 49.248L22.7517 51.7884L16.3271 55.5732L13.8691 53.5943Z" fill="url(#paint2_linear_10930_607302)"/>
<path fill-rule="evenodd" clip-rule="evenodd" d="M8.79785 21.8675L19.8223 15.4941L51.1593 33.4981V40.8155L39.7013 47.5313L8.79785 21.8675Z" fill="url(#paint3_linear_10930_607302)"/>
<path d="M39.7102 47.4218L8.95471 21.8807L19.8225 15.598L51.0693 33.5502V40.7639L39.7102 47.4218Z" stroke="black" stroke-opacity="0.2" stroke-width="0.18"/>
<path d="M19.6074 15.885L51.1212 33.9755L66.4493 25.093V30.3013C66.4493 31.027 66.4493 31.3898 66.3439 31.7147C66.2506 32.0022 66.0981 32.2669 65.8961 32.4917C65.6678 32.7458 65.3539 32.9277 64.7261 33.2915L53.4436 39.8298C52.5979 40.3198 52.1751 40.5648 51.7255 40.6601C51.3277 40.7443 50.9167 40.7434 50.5193 40.6574C50.0701 40.5601 49.6484 40.3132 48.8049 39.8194L21.3173 23.7261C20.6942 23.3613 20.3826 23.1789 20.1561 22.9251C19.9557 22.7007 19.8044 22.4368 19.7119 22.1504C19.6074 21.8268 19.6074 21.4657 19.6074 20.7437V15.885Z" fill="url(#paint4_linear_10930_607302)" fill-opacity="0.9"/>
<g filter="url(#filter0_d_10930_607302)">
<path d="M33.062 7.69548C34.0951 7.09901 35.7701 7.09901 36.8032 7.69548L65.486 24.2555C66.5191 24.8519 66.5191 25.819 65.486 26.4155L53.0152 33.6155C51.9821 34.2119 50.3071 34.2119 49.274 33.6155L20.5912 17.0555C19.5581 16.459 19.5581 15.4919 20.5912 14.8955L33.062 7.69548Z" fill="url(#paint5_linear_10930_607302)"/>
<path d="M33.2179 7.78548C34.1649 7.23872 35.7003 7.23872 36.6473 7.78548L65.3301 24.3455C66.2771 24.8922 66.2771 25.7787 65.3301 26.3255L52.8593 33.5255C51.9123 34.0722 50.3769 34.0722 49.4299 33.5255L20.7471 16.9655C19.8001 16.4187 19.8001 15.5322 20.7471 14.9855L33.2179 7.78548Z" stroke="url(#paint6_linear_10930_607302)" stroke-width="0.36"/>
</g>
<path d="M4.89648 24.3313L34.9023 41.5198C35.4374 41.8264 35.705 41.9797 35.9909 42.0523C36.2442 42.1166 36.5071 42.1344 36.7668 42.1049C37.0599 42.0715 37.3458 41.9558 37.9174 41.7243L42.5827 39.835V43.8381C42.5827 44.5483 42.5827 44.9033 42.4812 45.2227C42.3913 45.5053 42.2442 45.7664 42.0491 45.9897C41.8285 46.242 41.5248 46.426 40.9175 46.794L38.6823 48.1481C37.8372 48.6601 37.4146 48.9161 36.9624 49.0197C36.5623 49.1114 36.1472 49.1165 35.7449 49.0346C35.2903 48.9421 34.8616 48.6965 34.0042 48.2054L6.63463 32.527C6.00154 32.1643 5.685 31.983 5.45472 31.7285C5.25098 31.5033 5.09702 31.2376 5.00288 30.9489C4.89648 30.6226 4.89648 30.2578 4.89648 29.5282V24.3313Z" fill="url(#paint7_linear_10930_607302)" fill-opacity="0.9"/>
<g filter="url(#filter1_d_10930_607302)">
<path d="M9.88354 21.1954C10.0557 21.096 10.3349 21.096 10.5071 21.1954L42.3075 39.5554C42.4797 39.6548 42.4797 39.816 42.3075 39.9154L38.2545 42.2554C37.2214 42.8518 35.5464 42.8518 34.5133 42.2554L5.83055 25.6954C4.79744 25.0989 4.79743 24.1318 5.83055 23.5354L9.88354 21.1954Z" fill="url(#paint8_linear_10930_607302)"/>
<path d="M10.0394 21.2854C10.1255 21.2357 10.2651 21.2357 10.3512 21.2854L42.1516 39.6454C42.2377 39.6951 42.2377 39.7757 42.1516 39.8254L38.0987 42.1654C37.1516 42.7121 35.6162 42.7121 34.6692 42.1654L5.98643 25.6054C5.03941 25.0586 5.03941 24.1721 5.98643 23.6254L10.0394 21.2854Z" stroke="url(#paint9_linear_10930_607302)" stroke-width="0.36"/>
</g>
<rect width="4.11431" height="1.07979" rx="0.18" transform="matrix(0.866025 -0.5 0.866025 0.5 50.5801 31.0444)" fill="black" fill-opacity="0.1"/>
<rect width="4.11431" height="1.07979" rx="0.18" transform="matrix(0.866025 -0.5 0.866025 0.5 55.0342 28.4727)" fill="black" fill-opacity="0.1"/>
<path fill-rule="evenodd" clip-rule="evenodd" d="M19.4287 22.6876V15.9316C19.4287 15.9316 19.4244 16.5478 20.1581 17.0943C20.1821 17.1121 43.9926 30.9031 49.067 33.8204C50.0557 34.3044 50.7656 34.2735 50.7656 34.2735V40.9485L19.4287 22.6876Z" fill="url(#paint10_linear_10930_607302)" fill-opacity="0.8"/>
<g filter="url(#filter2_di_10930_607302)">
<rect width="1.44" height="2.88" rx="0.72" transform="matrix(0.866025 -0.5 0.866025 0.5 9.01855 24.5256)" fill="#4DFFE1" fill-opacity="0.8" shape-rendering="crispEdges"/>
</g>
<g filter="url(#filter3_di_10930_607302)">
<rect width="1.44" height="2.88" rx="0.72" transform="matrix(0.866025 -0.5 0.866025 0.5 12.7598 26.6855)" fill="#4DFFE1" fill-opacity="0.8" shape-rendering="crispEdges"/>
</g>
<g filter="url(#filter4_i_10930_607302)">
<rect width="1.44" height="2.88" rx="0.72" transform="matrix(0.866025 -0.5 0.866025 0.5 16.501 28.8457)" fill="black" fill-opacity="0.1"/>
</g>
<g filter="url(#filter5_i_10930_607302)">
<path fill-rule="evenodd" clip-rule="evenodd" d="M38.1068 19.526C37.1661 18.9829 37.1661 18.1024 38.1068 17.5593C39.0474 17.0162 40.5725 17.0162 41.5132 17.5593C42.4538 18.1024 42.4538 18.9829 41.5132 19.526C40.5725 20.0691 39.0474 20.0691 38.1068 19.526ZM43.7476 20.3998C42.8069 19.8567 42.8069 18.9762 43.7476 18.4331C44.6882 17.89 46.2134 17.89 47.154 18.4331C48.0947 18.9762 48.0947 19.8567 47.154 20.3998C46.2134 20.9429 44.6882 20.9429 43.7476 20.3998ZM39.6203 20.8161C38.6796 21.3592 38.6796 22.2397 39.6202 22.7828C40.5609 23.3259 42.086 23.3259 43.0267 22.7828C43.9673 22.2397 43.9673 21.3592 43.0267 20.8161C42.086 20.273 40.5609 20.273 39.6203 20.8161Z" fill="black" fill-opacity="0.15"/>
</g>
<defs>
<filter id="filter0_d_10930_607302" x="19.6364" y="7.06805" width="46.8043" height="27.1747" filterUnits="userSpaceOnUse" color-interpolation-filters="sRGB">
<feFlood flood-opacity="0" result="BackgroundImageFix"/>
<feColorMatrix in="SourceAlpha" type="matrix" values="0 0 0 0 0 0 0 0 0 0 0 0 0 0 0 0 0 0 127 0" result="hardAlpha"/>
<feMorphology radius="0.18" operator="dilate" in="SourceAlpha" result="effect1_dropShadow_10930_607302"/>
<feOffset/>
<feComposite in2="hardAlpha" operator="out"/>
<feColorMatrix type="matrix" values="0 0 0 0 0.16 0 0 0 0 0.48 0 0 0 0 0.8 0 0 0 0.8 0"/>
<feBlend mode="normal" in2="BackgroundImageFix" result="effect1_dropShadow_10930_607302"/>
<feBlend mode="normal" in="SourceGraphic" in2="effect1_dropShadow_10930_607302" result="shape"/>
</filter>
<filter id="filter1_d_10930_607302" x="4.87566" y="20.9408" width="37.7409" height="21.9418" filterUnits="userSpaceOnUse" color-interpolation-filters="sRGB">
<feFlood flood-opacity="0" result="BackgroundImageFix"/>
<feColorMatrix in="SourceAlpha" type="matrix" values="0 0 0 0 0 0 0 0 0 0 0 0 0 0 0 0 0 0 127 0" result="hardAlpha"/>
<feMorphology radius="0.18" operator="dilate" in="SourceAlpha" result="effect1_dropShadow_10930_607302"/>
<feOffset/>
<feComposite in2="hardAlpha" operator="out"/>
<feColorMatrix type="matrix" values="0 0 0 0 0.16 0 0 0 0 0.48 0 0 0 0 0.8 0 0 0 0.8 0"/>
<feBlend mode="normal" in2="BackgroundImageFix" result="effect1_dropShadow_10930_607302"/>
<feBlend mode="normal" in="SourceGraphic" in2="effect1_dropShadow_10930_607302" result="shape"/>
</filter>
<filter id="filter2_di_10930_607302" x="7.22379" y="21.8566" width="7.33074" height="6.05804" filterUnits="userSpaceOnUse" color-interpolation-filters="sRGB">
<feFlood flood-opacity="0" result="BackgroundImageFix"/>
<feColorMatrix in="SourceAlpha" type="matrix" values="0 0 0 0 0 0 0 0 0 0 0 0 0 0 0 0 0 0 127 0" result="hardAlpha"/>
<feOffset/>
<feGaussianBlur stdDeviation="1.08"/>
<feComposite in2="hardAlpha" operator="out"/>
<feColorMatrix type="matrix" values="0 0 0 0 0.301961 0 0 0 0 1 0 0 0 0 0.882353 0 0 0 0.8 0"/>
<feBlend mode="normal" in2="BackgroundImageFix" result="effect1_dropShadow_10930_607302"/>
<feBlend mode="normal" in="SourceGraphic" in2="effect1_dropShadow_10930_607302" result="shape"/>
<feColorMatrix in="SourceAlpha" type="matrix" values="0 0 0 0 0 0 0 0 0 0 0 0 0 0 0 0 0 0 127 0" result="hardAlpha"/>
<feOffset dy="0.36"/>
<feComposite in2="hardAlpha" operator="arithmetic" k2="-1" k3="1"/>
<feColorMatrix type="matrix" values="0 0 0 0 0 0 0 0 0 0 0 0 0 0 0 0 0 0 0.1 0"/>
<feBlend mode="normal" in2="shape" result="effect2_innerShadow_10930_607302"/>
</filter>
<filter id="filter3_di_10930_607302" x="10.965" y="24.0165" width="7.33074" height="6.05804" filterUnits="userSpaceOnUse" color-interpolation-filters="sRGB">
<feFlood flood-opacity="0" result="BackgroundImageFix"/>
<feColorMatrix in="SourceAlpha" type="matrix" values="0 0 0 0 0 0 0 0 0 0 0 0 0 0 0 0 0 0 127 0" result="hardAlpha"/>
<feOffset/>
<feGaussianBlur stdDeviation="1.08"/>
<feComposite in2="hardAlpha" operator="out"/>
<feColorMatrix type="matrix" values="0 0 0 0 0.301961 0 0 0 0 1 0 0 0 0 0.882353 0 0 0 0.8 0"/>
<feBlend mode="normal" in2="BackgroundImageFix" result="effect1_dropShadow_10930_607302"/>
<feBlend mode="normal" in="SourceGraphic" in2="effect1_dropShadow_10930_607302" result="shape"/>
<feColorMatrix in="SourceAlpha" type="matrix" values="0 0 0 0 0 0 0 0 0 0 0 0 0 0 0 0 0 0 127 0" result="hardAlpha"/>
<feOffset dy="0.36"/>
<feComposite in2="hardAlpha" operator="arithmetic" k2="-1" k3="1"/>
<feColorMatrix type="matrix" values="0 0 0 0 0 0 0 0 0 0 0 0 0 0 0 0 0 0 0.1 0"/>
<feBlend mode="normal" in2="shape" result="effect2_innerShadow_10930_607302"/>
</filter>
<filter id="filter4_i_10930_607302" x="16.8662" y="28.3367" width="3.01074" height="1.73804" filterUnits="userSpaceOnUse" color-interpolation-filters="sRGB">
<feFlood flood-opacity="0" result="BackgroundImageFix"/>
<feBlend mode="normal" in="SourceGraphic" in2="BackgroundImageFix" result="shape"/>
<feColorMatrix in="SourceAlpha" type="matrix" values="0 0 0 0 0 0 0 0 0 0 0 0 0 0 0 0 0 0 127 0" result="hardAlpha"/>
<feOffset dy="0.36"/>
<feComposite in2="hardAlpha" operator="arithmetic" k2="-1" k3="1"/>
<feColorMatrix type="matrix" values="0 0 0 0 0 0 0 0 0 0 0 0 0 0 0 0 0 0 0.05 0"/>
<feBlend mode="normal" in2="shape" result="effect1_innerShadow_10930_607302"/>
</filter>
<filter id="filter5_i_10930_607302" x="32.8682" y="14.5354" width="17.459" height="10.0801" filterUnits="userSpaceOnUse" color-interpolation-filters="sRGB">
<feFlood flood-opacity="0" result="BackgroundImageFix"/>
<feBlend mode="normal" in="SourceGraphic" in2="BackgroundImageFix" result="shape"/>
<feColorMatrix in="SourceAlpha" type="matrix" values="0 0 0 0 0 0 0 0 0 0 0 0 0 0 0 0 0 0 127 0" result="hardAlpha"/>
<feOffset dy="0.36"/>
<feComposite in2="hardAlpha" operator="arithmetic" k2="-1" k3="1"/>
<feColorMatrix type="matrix" values="0 0 0 0 0 0 0 0 0 0 0 0 0 0 0 0 0 0 0.05 0"/>
<feBlend mode="normal" in2="shape" result="effect1_innerShadow_10930_607302"/>
</filter>
<linearGradient id="paint0_linear_10930_607302" x1="15.9291" y1="47.8462" x2="10.1328" y2="51.218" gradientUnits="userSpaceOnUse">
<stop stop-color="#2EE6E6" stop-opacity="0.3"/>
<stop offset="1" stop-color="#4DFFE1" stop-opacity="0"/>
<stop offset="1" stop-color="#33FFFF" stop-opacity="0"/>
</linearGradient>
<linearGradient id="paint1_linear_10930_607302" x1="18.5414" y1="49.4494" x2="12.7451" y2="52.8213" gradientUnits="userSpaceOnUse">
<stop stop-color="#2EE6E6" stop-opacity="0.3"/>
<stop offset="1" stop-color="#4DFFE1" stop-opacity="0"/>
<stop offset="1" stop-color="#33FFFF" stop-opacity="0"/>
</linearGradient>
<linearGradient id="paint2_linear_10930_607302" x1="21.0511" y1="50.9353" x2="15.2549" y2="54.3072" gradientUnits="userSpaceOnUse">
<stop stop-color="#2EE6E6" stop-opacity="0.3"/>
<stop offset="1" stop-color="#4DFFE1" stop-opacity="0"/>
<stop offset="1" stop-color="#33FFFF" stop-opacity="0"/>
</linearGradient>
<linearGradient id="paint3_linear_10930_607302" x1="34.9594" y1="19.0382" x2="27.4653" y2="43.8678" gradientUnits="userSpaceOnUse">
<stop stop-color="#73BFE6" stop-opacity="0.9"/>
<stop offset="1" stop-color="#17E6E6" stop-opacity="0.05"/>
</linearGradient>
<linearGradient id="paint4_linear_10930_607302" x1="19.9812" y1="19.3955" x2="66.4212" y2="28.5755" gradientUnits="userSpaceOnUse">
<stop stop-color="#2F97FF"/>
<stop offset="1" stop-color="#3689B2"/>
</linearGradient>
<linearGradient id="paint5_linear_10930_607302" x1="31.8837" y1="28.4394" x2="45.0062" y2="8.64256" gradientUnits="userSpaceOnUse">
<stop stop-color="#1FB4FF"/>
<stop offset="1" stop-color="#9ECFFF"/>
</linearGradient>
<linearGradient id="paint6_linear_10930_607302" x1="51.1446" y1="15.9755" x2="43.0386" y2="30.0155" gradientUnits="userSpaceOnUse">
<stop stop-color="white" stop-opacity="0.3"/>
<stop offset="1" stop-color="white" stop-opacity="0.15"/>
</linearGradient>
<linearGradient id="paint7_linear_10930_607302" x1="5.22019" y1="27.4955" x2="42.6602" y2="43.8756" gradientUnits="userSpaceOnUse">
<stop stop-color="#258DF5"/>
<stop offset="1" stop-color="#2C93C7"/>
</linearGradient>
<linearGradient id="paint8_linear_10930_607302" x1="22.3511" y1="36.0559" x2="26.5261" y2="29.4186" gradientUnits="userSpaceOnUse">
<stop stop-color="#2EB9FF"/>
<stop offset="1" stop-color="#99CCFF"/>
</linearGradient>
<linearGradient id="paint9_linear_10930_607302" x1="26.4073" y1="30.3754" x2="23.2896" y2="35.7754" gradientUnits="userSpaceOnUse">
<stop stop-color="white" stop-opacity="0.3"/>
<stop offset="1" stop-color="white" stop-opacity="0.15"/>
</linearGradient>
<linearGradient id="paint10_linear_10930_607302" x1="36.2363" y1="25.0636" x2="32.5473" y2="32.5112" gradientUnits="userSpaceOnUse">
<stop stop-color="#5CCFE6" stop-opacity="0.9"/>
<stop offset="1" stop-color="#5CCFE6" stop-opacity="0"/>
</linearGradient>
</defs>
</svg>
