<svg width="21" height="21" xmlns="http://www.w3.org/2000/svg">
<path fill-rule="evenodd" clip-rule="evenodd" d="M12.5506 3.04202C11.6656 2.12662 10.1977 2.12662 9.31266 3.04202L8.65174 3.72564C8.49133 3.89156 8.26344 3.97445 8.03385 3.9504L7.08789 3.85131C5.82119 3.71862 4.69668 4.66167 4.60747 5.93146L4.54085 6.87973C4.52468 7.10988 4.40342 7.31978 4.21207 7.44885L3.42369 7.98065C2.36801 8.69276 2.1131 10.1376 2.86143 11.1676L3.42027 11.9368C3.55591 12.1235 3.59802 12.3622 3.53445 12.584L3.27255 13.4979C2.92184 14.7216 3.65581 15.9921 4.89153 16.3004L5.81435 16.5307C6.03833 16.5866 6.22411 16.7424 6.31806 16.9531L6.70518 17.8214C7.22355 18.9841 8.60297 19.4859 9.74787 18.9282L10.6029 18.5118C10.8104 18.4107 11.0529 18.4107 11.2604 18.5118L12.1154 18.9282C13.2603 19.4859 14.6397 18.9841 15.1581 17.8214L15.5452 16.9531C15.6392 16.7424 15.825 16.5866 16.0489 16.5307L16.9718 16.3004C18.2075 15.9921 18.9414 14.7216 18.5907 13.4979L18.3288 12.584C18.2653 12.3622 18.3074 12.1235 18.443 11.9368L19.0019 11.1676C19.7502 10.1376 19.4953 8.69276 18.4396 7.98065L17.6512 7.44885C17.4599 7.31978 17.3386 7.10988 17.3224 6.87972L17.2558 5.93146C17.1666 4.66167 16.0421 3.71862 14.7754 3.85131L13.8294 3.9504C13.5998 3.97445 13.3719 3.89156 13.2115 3.72564L12.5506 3.04202ZM10.392 4.08432C10.687 3.77919 11.1763 3.77919 11.4713 4.08432L12.1322 4.76794C12.6134 5.26569 13.2971 5.51438 13.9859 5.44223L14.9318 5.34314C15.3541 5.29891 15.7289 5.61326 15.7586 6.03652L15.8253 6.98479C15.8738 7.67524 16.2375 8.30495 16.8116 8.69217L17.6 9.22396C17.9519 9.46133 18.0368 9.94294 17.7874 10.2863L17.2285 11.0555C16.8216 11.6156 16.6953 12.3317 16.886 12.9971L17.1479 13.9109C17.2648 14.3188 17.0202 14.7423 16.6082 14.8451L15.6854 15.0753C15.0135 15.243 14.4562 15.7104 14.1743 16.3426L13.7872 17.2109C13.6144 17.5985 13.1546 17.7657 12.773 17.5798L11.918 17.1634C11.2954 16.8601 10.5679 16.8601 9.94533 17.1634L9.09033 17.5798C8.70869 17.7657 8.24889 17.5985 8.0761 17.2109L7.68898 16.3426C7.40712 15.7104 6.84979 15.243 6.17786 15.0753L5.25504 14.8451C4.84313 14.7423 4.59847 14.3188 4.71538 13.9109L4.97728 12.9971C5.16798 12.3317 5.04165 11.6156 4.63474 11.0555L4.0759 10.2863C3.82645 9.94294 3.91142 9.46133 4.26332 9.22396L5.0517 8.69217C5.62573 8.30496 5.9895 7.67524 6.03801 6.98479L6.10463 6.03652C6.13437 5.61326 6.50921 5.29891 6.93144 5.34314L7.8774 5.44223C8.56617 5.51438 9.24984 5.26569 9.73106 4.76794L10.392 4.08432ZM10.9316 14.3555C10.5174 14.3555 10.1816 14.0197 10.1816 13.6055V11.6055H8.18164C7.76743 11.6055 7.43164 11.2697 7.43164 10.8555C7.43164 10.4413 7.76743 10.1055 8.18164 10.1055H10.1816L10.1816 8.10547C10.1816 7.69126 10.5174 7.35547 10.9316 7.35547C11.3459 7.35547 11.6816 7.69126 11.6816 8.10547V10.1055H13.6816C14.0959 10.1055 14.4316 10.4413 14.4316 10.8555C14.4316 11.2697 14.0959 11.6055 13.6816 11.6055H11.6816V13.6055C11.6816 14.0197 11.3459 14.3555 10.9316 14.3555Z"/>
</svg>
