<svg width="21" height="21" viewBox="0 0 21 21" fill="none" xmlns="http://www.w3.org/2000/svg">
<path fill-rule="evenodd" clip-rule="evenodd" d="M2.86328 6.60547C2.86328 4.5344 4.54221 2.85547 6.61328 2.85547H10.1133C12.1003 2.85547 13.7264 4.40096 13.8551 6.35547H15.1133C17.1843 6.35547 18.8633 8.0344 18.8633 10.1055V15.1055C18.8633 17.1765 17.1843 18.8555 15.1133 18.8555H13.8633H12.3633H6.61328C4.54221 18.8555 2.86328 17.1765 2.86328 15.1055V6.60547ZM12.3633 17.3555V6.60547C12.3633 5.36283 11.3559 4.35547 10.1133 4.35547H6.61328C5.37064 4.35547 4.36328 5.36283 4.36328 6.60547V15.1055C4.36328 16.3481 5.37064 17.3555 6.61328 17.3555H12.3633ZM13.8633 17.3555H15.1133C16.3559 17.3555 17.3633 16.3481 17.3633 15.1055V10.1055C17.3633 8.86283 16.3559 7.85547 15.1133 7.85547H13.8633V17.3555ZM5.86328 6.80554C5.86328 6.39133 6.19907 6.05554 6.61328 6.05554H7.11328C7.52749 6.05554 7.86328 6.39133 7.86328 6.80554C7.86328 7.21976 7.52749 7.55554 7.11328 7.55554H6.61328C6.19907 7.55554 5.86328 7.21976 5.86328 6.80554ZM8.86328 6.80554C8.86328 6.39133 9.19907 6.05554 9.61328 6.05554H10.1133C10.5275 6.05554 10.8633 6.39133 10.8633 6.80554C10.8633 7.21976 10.5275 7.55554 10.1133 7.55554H9.61328C9.19907 7.55554 8.86328 7.21976 8.86328 6.80554ZM6.61328 8.75549C6.19907 8.75549 5.86328 9.09128 5.86328 9.50549C5.86328 9.91971 6.19907 10.2555 6.61328 10.2555H7.11328C7.52749 10.2555 7.86328 9.91971 7.86328 9.50549C7.86328 9.09128 7.52749 8.75549 7.11328 8.75549H6.61328ZM8.86328 9.50549C8.86328 9.09128 9.19907 8.75549 9.61328 8.75549H10.1133C10.5275 8.75549 10.8633 9.09128 10.8633 9.50549C10.8633 9.91971 10.5275 10.2555 10.1133 10.2555H9.61328C9.19907 10.2555 8.86328 9.91971 8.86328 9.50549ZM6.61328 11.4554C6.19907 11.4554 5.86328 11.7912 5.86328 12.2054C5.86328 12.6197 6.19907 12.9554 6.61328 12.9554H7.11328C7.52749 12.9554 7.86328 12.6197 7.86328 12.2054C7.86328 11.7912 7.52749 11.4554 7.11328 11.4554H6.61328ZM8.86328 12.2054C8.86328 11.7912 9.19907 11.4554 9.61328 11.4554H10.1133C10.5275 11.4554 10.8633 11.7912 10.8633 12.2054C10.8633 12.6197 10.5275 12.9554 10.1133 12.9554H9.61328C9.19907 12.9554 8.86328 12.6197 8.86328 12.2054ZM6.61328 14.1554C6.19907 14.1554 5.86328 14.4912 5.86328 14.9054C5.86328 15.3196 6.19907 15.6554 6.61328 15.6554H7.11328C7.52749 15.6554 7.86328 15.3196 7.86328 14.9054C7.86328 14.4912 7.52749 14.1554 7.11328 14.1554H6.61328ZM8.86328 14.9054C8.86328 14.4912 9.19907 14.1554 9.61328 14.1554H10.1133C10.5275 14.1554 10.8633 14.4912 10.8633 14.9054C10.8633 15.3196 10.5275 15.6554 10.1133 15.6554H9.61328C9.19907 15.6554 8.86328 15.3196 8.86328 14.9054ZM15.6133 10.8555C16.0275 10.8555 16.3633 10.5197 16.3633 10.1055C16.3633 9.69126 16.0275 9.35547 15.6133 9.35547C15.1991 9.35547 14.8633 9.69126 14.8633 10.1055C14.8633 10.5197 15.1991 10.8555 15.6133 10.8555ZM16.3633 12.6055C16.3633 13.0197 16.0275 13.3555 15.6133 13.3555C15.1991 13.3555 14.8633 13.0197 14.8633 12.6055C14.8633 12.1913 15.1991 11.8555 15.6133 11.8555C16.0275 11.8555 16.3633 12.1913 16.3633 12.6055ZM15.6133 15.8555C16.0275 15.8555 16.3633 15.5197 16.3633 15.1055C16.3633 14.6913 16.0275 14.3555 15.6133 14.3555C15.1991 14.3555 14.8633 14.6913 14.8633 15.1055C14.8633 15.5197 15.1991 15.8555 15.6133 15.8555Z" fill="#6F7883"/>
</svg>
