<svg width="20" height="20" xmlns="http://www.w3.org/2000/svg">
<path fill-rule="evenodd" clip-rule="evenodd" d="M12.0629 7.85557C12.0629 10.1752 10.1825 12.0556 7.86289 12.0556C5.54329 12.0556 3.66289 10.1752 3.66289 7.85557C3.66289 5.53597 5.54329 3.65557 7.86289 3.65557C10.1825 3.65557 12.0629 5.53597 12.0629 7.85557ZM11.2334 12.0748C10.3097 12.8137 9.13787 13.2556 7.86289 13.2556C4.88055 13.2556 2.46289 10.8379 2.46289 7.85557C2.46289 4.87323 4.88055 2.45557 7.86289 2.45557C10.8452 2.45557 13.2629 4.87323 13.2629 7.85557C13.2629 9.1306 12.821 10.3024 12.082 11.2262L15.0871 14.2313C15.3214 14.4656 15.3214 14.8455 15.0871 15.0798C14.8527 15.3141 14.4728 15.3141 14.2385 15.0798L11.2334 12.0748Z" />
</svg>
