<svg width="72" height="73" viewBox="0 0 72 73" fill="none" xmlns="http://www.w3.org/2000/svg">
<rect width="31.68" height="31.68" rx="2.88" transform="matrix(0.866025 0.5 -0.866025 0.5 36 38.2954)" fill="black" fill-opacity="0.05"/>
<path d="M64.8008 37.7843V45.4638C64.7745 45.7531 64.5904 45.9898 64.3274 46.1213C64.0381 46.2791 37.4226 61.5593 37.1333 61.7171C36.4232 62.0853 35.5816 62.0853 34.8715 61.7171C34.5822 61.5593 7.9668 46.2791 7.6775 46.1213C7.4145 46.0161 7.2304 45.7531 7.2041 45.4638V37.8106V37.6791H7.2304C7.3093 37.4424 7.4671 37.2583 7.6775 37.1531C7.9668 36.9953 34.5822 21.4784 34.8715 21.3206C35.5816 20.9524 36.4232 20.9524 37.1333 21.3206C37.4226 21.4784 64.0381 36.9953 64.3274 37.1531C64.5378 37.2583 64.6956 37.4424 64.7745 37.6791H64.8008V37.7843Z" fill="url(#paint0_linear_10930_607307)"/>
<path d="M64.3265 38.3341C64.0372 38.4919 37.4218 53.8772 37.1325 54.0613C36.4224 54.4295 35.5808 54.4295 34.8707 54.0613C34.5814 53.9035 7.96595 38.5182 7.67665 38.3341C7.30845 38.2026 7.12435 37.8344 7.22955 37.4662C7.30845 37.2558 7.46625 37.098 7.67665 37.0191C7.96595 36.8613 34.5814 21.4759 34.8707 21.2918C35.5808 20.9236 36.4224 20.9236 37.1325 21.2918C37.4218 21.4496 64.0372 36.835 64.3265 37.0191C64.6684 37.1243 64.8788 37.5188 64.7473 37.8607C64.7473 37.8607 64.7473 37.8607 64.7473 37.887C64.6947 38.0974 64.5369 38.2552 64.3265 38.3341ZM62.4329 36.9928C62.1699 36.835 37.1851 22.2912 36.8958 22.1334C36.2383 21.7915 35.423 21.7915 34.7655 22.1334C34.5025 22.2912 9.51764 36.835 9.22834 36.9928C8.88644 37.1243 8.70234 37.4925 8.83384 37.8344C8.91274 38.0185 9.04424 38.15 9.22834 38.2289C9.49134 38.3867 34.5025 52.9304 34.7655 53.0882C35.423 53.4301 36.2383 53.4301 36.8958 53.0882C37.1588 52.9304 62.1699 38.3867 62.4329 38.2289C62.7748 38.1237 62.9589 37.7555 62.8274 37.4136V37.3873C62.7485 37.2032 62.617 37.0454 62.4329 36.9928Z" fill="white" fill-opacity="0.5"/>
<path d="M34.7926 53.0095C34.5822 52.9043 21.4323 45.251 14.0684 40.9905C22.0372 36.388 34.6611 29.103 34.8452 28.9715C35.5553 28.6033 36.3969 28.6033 37.107 28.9715C37.3174 29.0767 49.7572 36.2828 57.7524 40.9116C50.4147 45.1721 37.107 52.9043 36.8966 53.0095C36.2391 53.3777 35.4501 53.3777 34.7926 53.0095Z" fill="#673D13" fill-opacity="0.7"/>
<path d="M25.0342 51.1155C25.2446 51.2207 25.4024 51.51 25.4024 51.7467C25.4024 51.9834 25.2446 52.0886 25.0342 51.9571C24.8238 51.8519 24.666 51.5626 24.666 51.3259C24.666 51.1155 24.8238 51.0103 25.0342 51.1155Z" fill="black" fill-opacity="0.2"/>
<path d="M25.0606 52.588C25.271 52.7195 25.4288 52.9825 25.4288 53.2455C25.4288 53.4822 25.271 53.5874 25.0606 53.4559C24.8502 53.3507 24.6924 53.0614 24.6924 52.8247C24.6924 52.588 24.8502 52.4565 25.0606 52.588Z" fill="#CFA116" fill-opacity="0.4"/>
<path d="M26.4287 51.9311C26.6391 52.0363 26.7969 52.3256 26.7969 52.5623C26.7969 52.799 26.6391 52.9042 26.4287 52.7727C26.2183 52.6675 26.0605 52.3782 26.0605 52.1415C26.0605 51.9311 26.2183 51.7996 26.4287 51.9311Z" fill="black" fill-opacity="0.2"/>
<path d="M26.4551 53.4042C26.6655 53.5094 26.8233 53.7987 26.8233 54.0354C26.8233 54.2721 26.6655 54.3773 26.4551 54.2458C26.2447 54.1406 26.0869 53.8513 26.0869 53.6146C26.0869 53.3779 26.2447 53.2727 26.4551 53.4042Z" fill="black" fill-opacity="0.2"/>
<path d="M27.9268 52.8515C28.1372 52.9567 28.295 53.246 28.295 53.4827C28.295 53.7193 28.1372 53.8245 27.9268 53.693C27.7164 53.5878 27.5586 53.2986 27.5586 53.0619C27.5586 52.8252 27.7164 52.72 27.9268 52.8515Z" fill="#CFA116" fill-opacity="0.4"/>
<path d="M27.9532 54.3247C28.1636 54.4299 28.3214 54.7192 28.3214 54.9559C28.3214 55.1926 28.1636 55.2978 27.9532 55.1663C27.7428 55.0611 27.585 54.7718 27.585 54.5351C27.585 54.2984 27.7428 54.2458 27.9532 54.3247Z" fill="black" fill-opacity="0.2"/>
<path d="M29.4268 53.6669C29.6372 53.7721 29.795 54.0614 29.795 54.2981C29.795 54.5347 29.6372 54.6399 29.4268 54.5084C29.2164 54.4033 29.0586 54.114 29.0586 53.8773C29.0586 53.6406 29.2164 53.5354 29.4268 53.6669Z" fill="#CFA116" fill-opacity="0.4"/>
<path d="M29.4532 55.1394C29.6636 55.2446 29.8214 55.5339 29.8214 55.7706C29.8214 56.0073 29.6636 56.1125 29.4532 55.981C29.2428 55.8758 29.085 55.5865 29.085 55.3498C29.085 55.1394 29.2428 55.0605 29.4532 55.1394Z" fill="black" fill-opacity="0.2"/>
<path d="M30.8194 54.5088C31.0298 54.614 31.1876 54.9033 31.1876 55.14C31.1876 55.3767 31.0298 55.4819 30.8194 55.3504C30.609 55.2452 30.4512 54.9559 30.4512 54.7192C30.4512 54.4562 30.609 54.4036 30.8194 54.5088Z" fill="black" fill-opacity="0.2"/>
<path d="M30.8467 55.981C31.0571 56.0862 31.2149 56.3755 31.2149 56.6121C31.2149 56.8488 31.0571 56.954 30.8467 56.8225C30.6363 56.7173 30.4785 56.428 30.4785 56.1914C30.4785 55.981 30.6363 55.8758 30.8467 55.981Z" fill="#CFA116" fill-opacity="0.4"/>
<path d="M32.3194 55.4031C32.5298 55.5083 32.6876 55.7976 32.6876 56.0343C32.6876 56.2709 32.5298 56.3761 32.3194 56.2446C32.109 56.1394 31.9512 55.8502 31.9512 55.6135C31.9512 55.4031 32.109 55.3242 32.3194 55.4031Z" fill="black" fill-opacity="0.2"/>
<path d="M32.3457 56.9279C32.5561 57.0331 32.7139 57.3224 32.7139 57.5591C32.7139 57.7958 32.5561 57.901 32.3457 57.7695C32.1353 57.6643 31.9775 57.375 31.9775 57.1383C31.9775 56.9016 32.1353 56.7964 32.3457 56.9279Z" fill="#CFA116" fill-opacity="0.4"/>
<path d="M10.7803 42.7794C10.9907 42.8846 11.1485 43.1739 11.1485 43.4106C11.1485 43.6473 10.9907 43.7262 10.7803 43.621C10.5699 43.5158 10.4121 43.2265 10.4121 42.9898C10.4121 42.7531 10.5962 42.6742 10.7803 42.7794Z" fill="black" fill-opacity="0.2"/>
<path d="M10.7803 44.2521C10.9907 44.3573 11.1485 44.6466 11.1485 44.8833C11.1485 45.12 10.9907 45.1989 10.7803 45.0937C10.5699 44.9885 10.4121 44.6992 10.4121 44.4625C10.4121 44.2258 10.5962 44.1206 10.7803 44.2521Z" fill="#CFA116" fill-opacity="0.4"/>
<path d="M12.1739 43.5935C12.3843 43.6987 12.5421 43.988 12.5421 44.2247C12.5421 44.4614 12.3843 44.5403 12.1739 44.4351C11.9635 44.3299 11.8057 44.0406 11.8057 43.8039C11.8057 43.5935 11.9635 43.5146 12.1739 43.5935Z" fill="#CFA116" fill-opacity="0.4"/>
<path d="M12.1739 45.0934C12.3843 45.1986 12.5421 45.4879 12.5421 45.7246C12.5421 45.9613 12.3843 46.0402 12.1739 45.935C11.9635 45.8298 11.8057 45.5405 11.8057 45.3038C11.8057 45.0671 11.9635 44.9619 12.1739 45.0934Z" fill="black" fill-opacity="0.2"/>
<path d="M13.6465 44.5673C13.8569 44.6725 14.0147 44.9618 14.0147 45.1985C14.0147 45.4352 13.8569 45.5141 13.6465 45.4089C13.4361 45.3037 13.2783 45.0144 13.2783 44.7777C13.2783 44.5673 13.4361 44.4358 13.6465 44.5673Z" fill="black" fill-opacity="0.2"/>
<path d="M13.6465 46.0395C13.8569 46.1447 14.0147 46.434 14.0147 46.6707C14.0147 46.9074 13.8569 46.9863 13.6465 46.8811C13.4361 46.7759 13.2783 46.4866 13.2783 46.2499C13.2783 46.0132 13.4361 45.908 13.6465 46.0395Z" fill="black" fill-opacity="0.2"/>
<path d="M16.0889 46.5579C16.0889 46.3563 16.0889 46.2555 16.1228 46.1981C16.1527 46.1476 16.2004 46.1201 16.2591 46.1195C16.3258 46.1187 16.4131 46.1691 16.5877 46.2699L17.2573 46.6565C17.4319 46.7573 17.5192 46.8077 17.5859 46.8855C17.6445 46.9538 17.6922 47.0365 17.7221 47.1215C17.7561 47.2181 17.7561 47.3189 17.7561 47.5205L17.7561 48.2937C17.7561 48.4953 17.7561 48.5961 17.7221 48.6535C17.6922 48.704 17.6445 48.7315 17.5859 48.7321C17.5192 48.7329 17.4319 48.6825 17.2573 48.5817L16.5877 48.1951C16.4131 48.0943 16.3258 48.0439 16.2591 47.9661C16.2004 47.8977 16.1527 47.8151 16.1228 47.7301C16.0889 47.6335 16.0889 47.5327 16.0889 47.3311L16.0889 46.5579Z" fill="black" fill-opacity="0.1"/>
<path d="M18.5752 48.1151C18.5752 47.9134 18.5752 47.8126 18.6092 47.7552C18.6391 47.7048 18.6868 47.6772 18.7454 47.6766C18.8121 47.6758 18.8994 47.7263 19.074 47.8271L19.7436 48.2136C19.9182 48.3144 20.0055 48.3649 20.0722 48.4426C20.1309 48.511 20.1786 48.5936 20.2084 48.6786C20.2424 48.7752 20.2424 48.876 20.2424 49.0776L20.2424 49.8508C20.2424 50.0524 20.2424 50.1532 20.2084 50.2106C20.1786 50.2611 20.1309 50.2886 20.0722 50.2893C20.0055 50.29 19.9182 50.2396 19.7436 50.1388L19.074 49.7522C18.8994 49.6514 18.8121 49.601 18.7454 49.5233C18.6868 49.4549 18.6391 49.3723 18.6092 49.2873C18.5752 49.1906 18.5752 49.0898 18.5752 48.8882L18.5752 48.1151Z" fill="black" fill-opacity="0.1"/>
<path d="M21.085 49.6182C21.085 49.4166 21.085 49.3158 21.1189 49.2584C21.1488 49.2079 21.1965 49.1804 21.2552 49.1798C21.3219 49.179 21.4092 49.2294 21.5838 49.3302L22.2534 49.7168C22.428 49.8176 22.5153 49.868 22.582 49.9458C22.6406 50.0141 22.6883 50.0968 22.7182 50.1818C22.7522 50.2784 22.7522 50.3792 22.7522 50.5808L22.7522 51.354C22.7522 51.5556 22.7522 51.6564 22.7182 51.7138C22.6883 51.7643 22.6406 51.7918 22.582 51.7924C22.5153 51.7932 22.428 51.7428 22.2534 51.642L21.5838 51.2554C21.4092 51.1546 21.3219 51.1042 21.2552 51.0264C21.1965 50.958 21.1488 50.8754 21.1189 50.7904C21.085 50.6938 21.085 50.593 21.085 50.3914L21.085 49.6182Z" fill="black" fill-opacity="0.1"/>
<path d="M51.6669 49.0239C51.5541 48.0635 50.7937 47.707 49.8752 48.2374C49.164 48.6479 48.5463 49.4845 48.2643 50.4038C47.7101 50.9151 47.2949 51.759 47.2949 52.4085C47.2949 53.2299 47.8737 53.5641 48.585 53.1534L51.4233 51.5147C51.9925 51.1861 52.4554 50.3843 52.4554 49.7271C52.455 49.4602 52.3771 49.246 52.2342 49.1185C52.0912 48.9911 51.8915 48.9578 51.6669 49.0239Z" fill="black" fill-opacity="0.1"/>
<path d="M5.04004 27.1355L33.9798 43.8913C34.7156 44.3174 35.0836 44.5304 35.4749 44.6138C35.8211 44.6875 36.179 44.6875 36.5252 44.6138C36.9165 44.5304 37.2844 44.3174 38.0203 43.8913L66.96 27.1355V29.1217C66.96 29.6056 66.96 29.8476 66.8897 30.0643C66.8275 30.256 66.7257 30.4325 66.591 30.5824C66.4387 30.7518 66.2293 30.8731 65.8105 31.1156L38.3089 47.0387C37.4679 47.5256 37.0474 47.7691 36.6002 47.8644C36.2045 47.9487 35.7955 47.9487 35.3999 47.8644C34.9527 47.7691 34.5322 47.5256 33.6911 47.0387L6.18959 31.1156C5.77077 30.8731 5.56137 30.7518 5.40908 30.5824C5.27434 30.4325 5.17257 30.256 5.11035 30.0643C5.04004 29.8476 5.04004 29.6056 5.04004 29.1217V27.1355Z" fill="#F0A100" fill-opacity="0.8"/>
<g filter="url(#filter0_d_10930_607307)">
<rect width="37.44" height="37.44" rx="2.16" transform="matrix(0.866025 0.5 -0.866025 0.5 36 8.05542)" fill="url(#paint1_linear_10930_607307)"/>
<rect x="-1.07288e-08" y="0.18" width="37.08" height="37.08" rx="1.98" transform="matrix(0.866025 0.5 -0.866025 0.5 36.1559 8.14542)" stroke="white" stroke-opacity="0.3" stroke-width="0.36"/>
</g>
<path d="M29.4844 12.0154L33.235 14.1808L32.204 16.1961L34.602 17.5805M24.7243 14.7636L27.7986 16.5386L27.0796 19.1547L29.4775 20.5391M12.6039 21.7613L15.6783 23.5363L19.1131 23.7541L21.5111 25.1386M20.2027 17.3741L22.5853 18.7497L21.9552 22.1132L24.3531 23.4977" stroke="black" stroke-opacity="0.1" stroke-width="0.36"/>
<path d="M44.377 40.6021L40.6353 38.4418L41.6301 36.4509L39.2379 35.0697M49.0546 37.9014L45.9876 36.1307L46.6657 33.5436L44.2734 32.1624M60.9648 31.0251L57.8978 29.2544L54.494 29.0239L52.1018 27.6427M53.4977 35.3362L51.1208 33.9639L51.7013 30.6363L49.309 29.2551" stroke="white" stroke-opacity="0.4" stroke-width="0.36"/>
<g filter="url(#filter1_i_10930_607307)">
<circle r="0.9" transform="matrix(0.866025 0.5 -0.866025 0.5 36 10.7555)" fill="black" fill-opacity="0.2"/>
<circle r="0.9" transform="matrix(0.866025 0.5 -0.866025 0.5 8.03809 26.5956)" fill="black" fill-opacity="0.2"/>
<circle r="0.9" transform="matrix(0.866025 0.5 -0.866025 0.5 63.957 26.5956)" fill="black" fill-opacity="0.2"/>
<circle r="0.9" transform="matrix(0.866025 0.5 -0.866025 0.5 36 42.7955)" fill="black" fill-opacity="0.2"/>
</g>
<rect width="20.16" height="20.16" rx="0.72" transform="matrix(0.866025 0.5 -0.866025 0.5 36.0498 16.6953)" fill="black" fill-opacity="0.4"/>
<rect x="-1.60933e-08" y="0.27" width="19.62" height="19.62" rx="0.45" transform="matrix(0.866025 0.5 -0.866025 0.5 36.2836 16.8303)" stroke="black" stroke-opacity="0.1" stroke-width="0.54"/>
<path fill-rule="evenodd" clip-rule="evenodd" d="M36.6734 17.0554C36.329 16.8565 35.7707 16.8565 35.4263 17.0554L19.2143 26.4154C18.87 26.6142 18.87 26.9365 19.2143 27.1354L22.0203 28.7554L36.0499 20.6554L50.0795 28.7554L52.8854 27.1354C53.2298 26.9365 53.2298 26.6142 52.8854 26.4154L36.6734 17.0554Z" fill="black" fill-opacity="0.1"/>
<g filter="url(#filter2_d_10930_607307)">
<path d="M24.4805 21.1956L35.4284 27.5248C35.6369 27.6453 35.7412 27.7056 35.8521 27.7294C35.9502 27.7505 36.0516 27.7509 36.1499 27.7304C36.2609 27.7073 36.3656 27.6478 36.5749 27.5286L47.7005 21.1956V23.4559C47.7005 23.9438 47.7005 24.1877 47.6292 24.4058C47.5661 24.5987 47.4629 24.7761 47.3265 24.9264C47.1722 25.0963 46.9602 25.2169 46.5363 25.4583L37.1492 30.8017C36.7306 31.04 36.5213 31.1591 36.2992 31.2053C36.1027 31.2462 35.8998 31.2455 35.7036 31.2033C35.4818 31.1556 35.2733 31.0351 34.8563 30.794L25.6313 25.4609C25.212 25.2185 25.0024 25.0973 24.85 24.9278C24.7151 24.7779 24.6132 24.6013 24.5509 24.4095C24.4805 24.1927 24.4805 23.9505 24.4805 23.4662V21.1956Z" fill="#FFA200" fill-opacity="0.8" shape-rendering="crispEdges"/>
</g>
<rect x="-5.36442e-09" y="0.09" width="14.22" height="14.22" rx="1.35" transform="matrix(0.866025 0.5 -0.866025 0.5 36.1277 13.8604)" fill="url(#paint2_linear_10930_607307)" stroke="#CCB129" stroke-width="0.18"/>
<g filter="url(#filter3_di_10930_607307)">
<rect width="1.44" height="2.88" rx="0.72" transform="matrix(0.866025 -0.5 0.866025 0.5 14.7559 29.4756)" fill="#4DFFE1" fill-opacity="0.8" shape-rendering="crispEdges"/>
</g>
<g filter="url(#filter4_di_10930_607307)">
<rect width="1.44" height="2.88" rx="0.72" transform="matrix(0.866025 -0.5 0.866025 0.5 18.4971 31.6355)" fill="#4DFFE1" fill-opacity="0.8" shape-rendering="crispEdges"/>
</g>
<g filter="url(#filter5_i_10930_607307)">
<rect width="1.44" height="2.88" rx="0.72" transform="matrix(0.866025 -0.5 0.866025 0.5 22.2383 33.7957)" fill="black" fill-opacity="0.1"/>
</g>
<g filter="url(#filter6_i_10930_607307)">
<path fill-rule="evenodd" clip-rule="evenodd" d="M39.761 18.8736C41.81 20.0566 41.81 21.9746 39.761 23.1576C37.712 24.3406 34.3899 24.3406 32.3409 23.1576C30.2919 21.9746 30.2919 20.0566 32.3409 18.8736C34.3899 17.6906 37.712 17.6906 39.761 18.8736ZM36.2669 21.298L35.2376 21.8923C35.1549 21.94 35.0379 21.9426 34.96 21.8977C34.917 21.8728 34.8941 21.8421 34.8865 21.7987L34.5701 19.6929C34.5445 19.5223 34.8614 19.4617 34.9825 19.6212L35.8366 20.7339L36.8659 20.1397C36.9486 20.0919 37.0657 20.0894 37.1418 20.1333C37.1849 20.1582 37.2077 20.1909 37.2137 20.2333L37.5317 22.3381C37.5556 22.5097 37.2404 22.5712 37.1177 22.4108L36.2669 21.298Z" fill="black" fill-opacity="0.15"/>
</g>
<defs>
<filter id="filter0_d_10930_607307" x="4.49187" y="8.50799" width="63.0163" height="36.5348" filterUnits="userSpaceOnUse" color-interpolation-filters="sRGB">
<feFlood flood-opacity="0" result="BackgroundImageFix"/>
<feColorMatrix in="SourceAlpha" type="matrix" values="0 0 0 0 0 0 0 0 0 0 0 0 0 0 0 0 0 0 127 0" result="hardAlpha"/>
<feMorphology radius="0.18" operator="dilate" in="SourceAlpha" result="effect1_dropShadow_10930_607307"/>
<feOffset/>
<feComposite in2="hardAlpha" operator="out"/>
<feColorMatrix type="matrix" values="0 0 0 0 0.9 0 0 0 0 0.69 0 0 0 0 0.27 0 0 0 1 0"/>
<feBlend mode="normal" in2="BackgroundImageFix" result="effect1_dropShadow_10930_607307"/>
<feBlend mode="normal" in="SourceGraphic" in2="effect1_dropShadow_10930_607307" result="shape"/>
</filter>
<filter id="filter1_i_10930_607307" x="6.93555" y="10.1191" width="58.124" height="33.3127" filterUnits="userSpaceOnUse" color-interpolation-filters="sRGB">
<feFlood flood-opacity="0" result="BackgroundImageFix"/>
<feBlend mode="normal" in="SourceGraphic" in2="BackgroundImageFix" result="shape"/>
<feColorMatrix in="SourceAlpha" type="matrix" values="0 0 0 0 0 0 0 0 0 0 0 0 0 0 0 0 0 0 127 0" result="hardAlpha"/>
<feOffset dy="0.36"/>
<feComposite in2="hardAlpha" operator="arithmetic" k2="-1" k3="1"/>
<feColorMatrix type="matrix" values="0 0 0 0 0 0 0 0 0 0 0 0 0 0 0 0 0 0 0.1 0"/>
<feBlend mode="normal" in2="shape" result="effect1_innerShadow_10930_607307"/>
</filter>
<filter id="filter2_d_10930_607307" x="20.1605" y="19.0356" width="31.8597" height="18.6798" filterUnits="userSpaceOnUse" color-interpolation-filters="sRGB">
<feFlood flood-opacity="0" result="BackgroundImageFix"/>
<feColorMatrix in="SourceAlpha" type="matrix" values="0 0 0 0 0 0 0 0 0 0 0 0 0 0 0 0 0 0 127 0" result="hardAlpha"/>
<feOffset dy="2.16"/>
<feGaussianBlur stdDeviation="2.16"/>
<feComposite in2="hardAlpha" operator="out"/>
<feColorMatrix type="matrix" values="0 0 0 0 0.2 0 0 0 0 0.1 0 0 0 0 0 0 0 0 0.2 0"/>
<feBlend mode="normal" in2="BackgroundImageFix" result="effect1_dropShadow_10930_607307"/>
<feBlend mode="normal" in="SourceGraphic" in2="effect1_dropShadow_10930_607307" result="shape"/>
</filter>
<filter id="filter3_di_10930_607307" x="12.9611" y="26.8066" width="7.33074" height="6.05804" filterUnits="userSpaceOnUse" color-interpolation-filters="sRGB">
<feFlood flood-opacity="0" result="BackgroundImageFix"/>
<feColorMatrix in="SourceAlpha" type="matrix" values="0 0 0 0 0 0 0 0 0 0 0 0 0 0 0 0 0 0 127 0" result="hardAlpha"/>
<feOffset/>
<feGaussianBlur stdDeviation="1.08"/>
<feComposite in2="hardAlpha" operator="out"/>
<feColorMatrix type="matrix" values="0 0 0 0 1 0 0 0 0 1 0 0 0 0 0.301961 0 0 0 0.8 0"/>
<feBlend mode="normal" in2="BackgroundImageFix" result="effect1_dropShadow_10930_607307"/>
<feBlend mode="normal" in="SourceGraphic" in2="effect1_dropShadow_10930_607307" result="shape"/>
<feColorMatrix in="SourceAlpha" type="matrix" values="0 0 0 0 0 0 0 0 0 0 0 0 0 0 0 0 0 0 127 0" result="hardAlpha"/>
<feOffset dy="0.36"/>
<feComposite in2="hardAlpha" operator="arithmetic" k2="-1" k3="1"/>
<feColorMatrix type="matrix" values="0 0 0 0 0 0 0 0 0 0 0 0 0 0 0 0 0 0 0.1 0"/>
<feBlend mode="normal" in2="shape" result="effect2_innerShadow_10930_607307"/>
</filter>
<filter id="filter4_di_10930_607307" x="16.7023" y="28.9665" width="7.33074" height="6.05804" filterUnits="userSpaceOnUse" color-interpolation-filters="sRGB">
<feFlood flood-opacity="0" result="BackgroundImageFix"/>
<feColorMatrix in="SourceAlpha" type="matrix" values="0 0 0 0 0 0 0 0 0 0 0 0 0 0 0 0 0 0 127 0" result="hardAlpha"/>
<feOffset/>
<feGaussianBlur stdDeviation="1.08"/>
<feComposite in2="hardAlpha" operator="out"/>
<feColorMatrix type="matrix" values="0 0 0 0 1 0 0 0 0 1 0 0 0 0 0.301961 0 0 0 0.8 0"/>
<feBlend mode="normal" in2="BackgroundImageFix" result="effect1_dropShadow_10930_607307"/>
<feBlend mode="normal" in="SourceGraphic" in2="effect1_dropShadow_10930_607307" result="shape"/>
<feColorMatrix in="SourceAlpha" type="matrix" values="0 0 0 0 0 0 0 0 0 0 0 0 0 0 0 0 0 0 127 0" result="hardAlpha"/>
<feOffset dy="0.36"/>
<feComposite in2="hardAlpha" operator="arithmetic" k2="-1" k3="1"/>
<feColorMatrix type="matrix" values="0 0 0 0 0 0 0 0 0 0 0 0 0 0 0 0 0 0 0.1 0"/>
<feBlend mode="normal" in2="shape" result="effect2_innerShadow_10930_607307"/>
</filter>
<filter id="filter5_i_10930_607307" x="22.6035" y="33.2866" width="3.01074" height="1.73804" filterUnits="userSpaceOnUse" color-interpolation-filters="sRGB">
<feFlood flood-opacity="0" result="BackgroundImageFix"/>
<feBlend mode="normal" in="SourceGraphic" in2="BackgroundImageFix" result="shape"/>
<feColorMatrix in="SourceAlpha" type="matrix" values="0 0 0 0 0 0 0 0 0 0 0 0 0 0 0 0 0 0 127 0" result="hardAlpha"/>
<feOffset dy="0.36"/>
<feComposite in2="hardAlpha" operator="arithmetic" k2="-1" k3="1"/>
<feColorMatrix type="matrix" values="0 0 0 0 0 0 0 0 0 0 0 0 0 0 0 0 0 0 0.05 0"/>
<feBlend mode="normal" in2="shape" result="effect1_innerShadow_10930_607307"/>
</filter>
<filter id="filter6_i_10930_607307" x="27.3203" y="15.9753" width="17.459" height="10.0801" filterUnits="userSpaceOnUse" color-interpolation-filters="sRGB">
<feFlood flood-opacity="0" result="BackgroundImageFix"/>
<feBlend mode="normal" in="SourceGraphic" in2="BackgroundImageFix" result="shape"/>
<feColorMatrix in="SourceAlpha" type="matrix" values="0 0 0 0 0 0 0 0 0 0 0 0 0 0 0 0 0 0 127 0" result="hardAlpha"/>
<feOffset dy="0.36"/>
<feComposite in2="hardAlpha" operator="arithmetic" k2="-1" k3="1"/>
<feColorMatrix type="matrix" values="0 0 0 0 0 0 0 0 0 0 0 0 0 0 0 0 0 0 0.05 0"/>
<feBlend mode="normal" in2="shape" result="effect1_innerShadow_10930_607307"/>
</filter>
<linearGradient id="paint0_linear_10930_607307" x1="7.2122" y1="41.5057" x2="64.8089" y2="41.5057" gradientUnits="userSpaceOnUse">
<stop stop-color="#E6DBCF"/>
<stop offset="1" stop-color="#E6DECF"/>
</linearGradient>
<linearGradient id="paint1_linear_10930_607307" x1="-4.81893e-07" y1="37.44" x2="44.8532" y2="15.0134" gradientUnits="userSpaceOnUse">
<stop offset="0.01" stop-color="#FFD659"/>
<stop offset="1" stop-color="#F2CA79"/>
</linearGradient>
<linearGradient id="paint2_linear_10930_607307" x1="14.4458" y1="-0.0458424" x2="5.71631" y2="17.4132" gradientUnits="userSpaceOnUse">
<stop stop-color="#FFE699"/>
<stop offset="1" stop-color="#FFE699"/>
</linearGradient>
</defs>
</svg>
