<svg width="21" height="20" viewBox="0 0 21 20" fill="none" xmlns="http://www.w3.org/2000/svg">
<path fill-rule="evenodd" clip-rule="evenodd" d="M7.48631 2.60658C7.56559 3.01314 7.30029 3.40699 6.89373 3.48627L6.88087 3.48878C5.67774 3.70554 4.59503 4.38412 3.85506 5.39355C3.61017 5.72762 3.14083 5.79991 2.80676 5.55502C2.47269 5.31013 2.4004 4.8408 2.64529 4.50673C3.60767 3.19389 5.02371 2.30046 6.60999 2.01336C7.01535 1.93619 7.40724 2.20115 7.48631 2.60658ZM15.2303 4.20907C14.2944 3.4499 13.1895 3.03334 11.9581 2.92235C10.5712 2.79735 9.1706 3.13439 7.98953 3.89031L4.07147 6.2877C3.64623 6.55994 3.28614 6.92351 3.01803 7.35153C2.74991 7.77954 2.58056 8.2611 2.52249 8.76066C2.46442 9.26027 2.51914 9.76513 2.68265 10.238C2.84617 10.7109 3.11435 11.1396 3.46727 11.4925L4.6972 12.7225C4.59092 12.8242 4.49902 12.9422 4.4255 13.0737C4.07154 13.7068 3.93502 14.4384 4.03688 15.1565C4.13874 15.8746 4.47336 16.5394 4.9894 17.0491L5.01033 17.0693C5.52207 17.5554 6.17297 17.8694 6.87195 17.9673C7.57094 18.0652 8.28304 17.9421 8.90862 17.6153C9.06299 17.5346 9.19998 17.429 9.31525 17.3043C9.59961 17.5253 9.91924 17.6988 10.2621 17.8174C10.7349 17.9809 11.2397 18.0356 11.7393 17.9775C12.2389 17.9195 12.7205 17.7501 13.1485 17.482C13.5765 17.2139 13.9401 16.8538 14.2123 16.4285L16.6092 12.5099C17.3651 11.3289 17.7046 9.93077 17.5796 8.54385C17.4686 7.31242 17.0505 6.20599 16.291 5.26972L17.2804 4.28033C17.5733 3.98744 17.5733 3.51256 17.2804 3.21967C16.9875 2.92678 16.5126 2.92678 16.2197 3.21967L15.2303 4.20907ZM17.0139 13.6064C17.0931 13.1998 17.487 12.9345 17.8935 13.0138C18.299 13.0929 18.5639 13.4848 18.4868 13.8901C18.1997 15.4764 17.3062 16.8925 15.9934 17.8548C15.6593 18.0997 15.19 18.0274 14.9451 17.6934C14.7002 17.3593 14.7725 16.89 15.1066 16.6451C16.116 15.9051 16.7946 14.8224 17.0113 13.6193L17.0139 13.6064ZM8.21407 16.2858L5.73473 13.8058C5.54098 14.1523 5.46626 14.5528 5.52201 14.9458C5.57777 15.3389 5.76093 15.7028 6.0434 15.9818C6.32835 16.2524 6.69078 16.4273 7.08 16.4818C7.46921 16.5363 7.86572 16.4678 8.21407 16.2858ZM15.3296 11.7272L12.9419 15.6308C12.79 15.8646 12.5885 16.0628 12.3522 16.2108C12.1122 16.3611 11.8434 16.4553 11.5662 16.4876C11.2891 16.5198 11.011 16.4892 10.7523 16.3997C10.4936 16.3103 10.26 16.1639 10.0681 15.9721L4.52792 10.4319C4.33604 10.24 4.18973 10.0064 4.10028 9.74775C4.01081 9.48902 3.98025 9.21096 4.01246 8.93385C4.04468 8.65666 4.13888 8.38782 4.28922 8.14781C4.43724 7.9115 4.63548 7.71 4.86925 7.55807L8.77243 5.16979C8.78105 5.16451 8.78963 5.15915 8.79815 5.1537C9.69675 4.57856 10.7651 4.32091 11.8234 4.4163C12.906 4.51386 13.8067 4.90186 14.5448 5.60178L14.8982 5.95524C15.5987 6.69392 15.9882 7.59683 16.0856 8.6785C16.1808 9.73459 15.9222 10.8008 15.3458 11.7013C15.3403 11.7099 15.3349 11.7186 15.3296 11.7272Z" fill="#6F7883"/>
</svg>
