<svg width="20" height="20"  xmlns="http://www.w3.org/2000/svg">
<path d="M11.0625 3.0638C11.254 3.70202 11.3879 4.34023 12.4488 4.95254C13.6368 5.27474 14.2178 4.95493 14.7582 4.59463C15.3217 4.21898 15.489 4.32756 15.7141 4.54896L16.2608 5.09549C16.5113 5.34593 16.6115 5.44611 16.2608 6.09723C15.9449 6.68405 15.5882 7.2302 15.9058 8.41396C16.5181 9.48102 17.1549 9.66561 17.7917 9.79297C18.4557 9.92579 18.4972 10.1209 18.4998 10.4365L18.5 11.2096C18.5 11.5638 18.5 11.7055 17.7917 11.918C17.1535 12.1094 16.5152 12.2434 15.9029 13.3043C15.5807 14.4923 15.9005 15.0732 16.2608 15.6137C16.6365 16.1772 16.5279 16.3445 16.3065 16.5695L15.76 17.1163C15.5095 17.3667 15.4094 17.4669 14.7582 17.1163C14.1714 16.8003 13.6253 16.4437 12.4415 16.7613C11.3744 17.3736 11.1899 18.0104 11.0625 18.6471C10.9297 19.3112 10.7346 19.3527 10.4189 19.3553L9.778 19.3555C9.7398 19.3555 9.69643 19.3555 9.64583 19.3555C9.29167 19.3555 9.14999 19.3555 8.9375 18.6471C8.74604 18.0089 8.61208 17.3707 7.55121 16.7584C6.36317 16.4362 5.78222 16.756 5.24176 17.1163C4.67828 17.492 4.511 17.3834 4.28594 17.162L3.73916 16.6154C3.48873 16.365 3.38855 16.2648 3.73916 15.6137C4.05515 15.0269 4.41181 14.4807 4.09419 13.297C3.48185 12.2299 2.84509 12.0453 2.20833 11.918C1.54427 11.7851 1.50277 11.5901 1.50017 11.2744L1.5 10.5013C1.5 10.1471 1.5 10.0055 2.20833 9.79297C2.84655 9.60151 3.48476 9.46755 4.09707 8.40668C4.41927 7.21864 4.09946 6.63769 3.73916 6.09723C3.36351 5.53375 3.4721 5.36647 3.69349 5.14141L4.24003 4.59463C4.49046 4.34419 4.59064 4.24401 5.24176 4.59463C5.82858 4.91062 6.37473 5.26728 7.55849 4.94966C8.62555 4.33732 8.81014 3.70056 8.9375 3.0638C9.07032 2.39974 9.26538 2.35824 9.58107 2.35564L10.3542 2.35547C10.7083 2.35547 10.85 2.35547 11.0625 3.0638ZM10 6.81797C7.77015 6.81797 5.9625 8.62562 5.9625 10.8555C5.9625 13.0853 7.77015 14.893 10 14.893C12.2298 14.893 14.0375 13.0853 14.0375 10.8555C14.0375 8.62562 12.2298 6.81797 10 6.81797Z" />
</svg>
