<svg width="72" height="73" viewBox="0 0 72 73" fill="none" xmlns="http://www.w3.org/2000/svg">
<rect width="31.68" height="31.68" rx="2.88" transform="matrix(0.866025 0.5 -0.866025 0.5 36 38.2954)" fill="black" fill-opacity="0.05"/>
<path d="M64.8007 37.785V45.4645C64.7744 45.7538 64.5903 45.9905 64.3273 46.122C64.038 46.2798 37.4226 61.56 37.1333 61.7178C36.4232 62.086 35.5816 62.086 34.8715 61.7178C34.5822 61.56 7.9668 46.2798 7.6775 46.122C7.4145 46.0168 7.2304 45.7538 7.2041 45.4645V37.8113V37.6798H7.2304C7.3093 37.4431 7.4671 37.259 7.6775 37.1538C7.9668 36.996 34.5822 21.4791 34.8715 21.3213C35.5816 20.9531 36.4232 20.9531 37.1333 21.3213C37.4226 21.4791 64.038 36.996 64.3273 37.1538C64.5377 37.259 64.6955 37.4431 64.7744 37.6798H64.8007V37.785Z" fill="#E6DADA"/>
<path d="M64.3264 38.334C64.0371 38.4918 37.4217 53.8772 37.1324 54.0613C36.4223 54.4295 35.5807 54.4295 34.8706 54.0613C34.5813 53.9035 7.96595 38.5181 7.67665 38.334C7.30845 38.2025 7.12435 37.8343 7.22955 37.4661C7.30845 37.2557 7.46625 37.0979 7.67665 37.019C7.96595 36.8612 34.5813 21.4759 34.8706 21.2918C35.5807 20.9236 36.4223 20.9236 37.1324 21.2918C37.4217 21.4496 64.0371 36.8349 64.3264 37.019C64.6683 37.1242 64.8787 37.5187 64.7472 37.8606C64.7472 37.8606 64.7472 37.8606 64.7472 37.8869C64.6946 38.0973 64.5368 38.2551 64.3264 38.334ZM62.4328 36.9927C62.1698 36.8349 37.185 22.2912 36.8957 22.1334C36.2382 21.7915 35.4229 21.7915 34.7654 22.1334C34.5024 22.2912 9.51763 36.8349 9.22834 36.9927C8.88644 37.1242 8.70234 37.4924 8.83384 37.8343C8.91274 38.0184 9.04424 38.1499 9.22834 38.2288C9.49133 38.3866 34.5024 52.9304 34.7654 53.0882C35.4229 53.4301 36.2382 53.4301 36.8957 53.0882C37.1587 52.9304 62.1698 38.3866 62.4328 38.2288C62.7747 38.1236 62.9588 37.7554 62.8273 37.4135V37.3872C62.7484 37.2031 62.6169 37.0453 62.4328 36.9927Z" fill="white" fill-opacity="0.5"/>
<path d="M34.7926 53.0095C34.5822 52.9043 21.4323 45.251 14.0684 40.9905C22.0372 36.388 34.6611 29.103 34.8452 28.9715C35.5553 28.6033 36.3969 28.6033 37.107 28.9715C37.3174 29.0767 49.7572 36.2828 57.7523 40.9116C50.4147 45.1721 37.107 52.9043 36.8966 53.0095C36.2391 53.3777 35.4501 53.3777 34.7926 53.0095Z" fill="#1A0303" fill-opacity="0.6"/>
<path d="M25.0342 51.1152C25.2446 51.2204 25.4024 51.5097 25.4024 51.7464C25.4024 51.9831 25.2446 52.0883 25.0342 51.9568C24.8238 51.8516 24.666 51.5623 24.666 51.3256C24.666 51.1152 24.8238 51.01 25.0342 51.1152Z" fill="black" fill-opacity="0.2"/>
<path d="M25.0606 52.588C25.271 52.7195 25.4288 52.9825 25.4288 53.2455C25.4288 53.4822 25.271 53.5874 25.0606 53.4559C24.8502 53.3507 24.6924 53.0614 24.6924 52.8247C24.6924 52.588 24.8502 52.4565 25.0606 52.588Z" fill="#FF4261" fill-opacity="0.4"/>
<path d="M26.4287 51.9311C26.6391 52.0363 26.7969 52.3256 26.7969 52.5623C26.7969 52.799 26.6391 52.9042 26.4287 52.7727C26.2183 52.6675 26.0605 52.3782 26.0605 52.1415C26.0605 51.9311 26.2183 51.7996 26.4287 51.9311Z" fill="black" fill-opacity="0.2"/>
<path d="M26.4541 53.4045C26.6645 53.5097 26.8223 53.7989 26.8223 54.0356C26.8223 54.2723 26.6645 54.3775 26.4541 54.246C26.2437 54.1408 26.0859 53.8515 26.0859 53.6148C26.0859 53.3782 26.2437 53.273 26.4541 53.4045Z" fill="black" fill-opacity="0.2"/>
<path d="M27.9268 52.8517C28.1372 52.9569 28.295 53.2462 28.295 53.4829C28.295 53.7196 28.1372 53.8248 27.9268 53.6933C27.7164 53.5881 27.5586 53.2988 27.5586 53.0621C27.5586 52.8254 27.7164 52.7202 27.9268 52.8517Z" fill="#FF4261" fill-opacity="0.4"/>
<path d="M27.9532 54.325C28.1636 54.4302 28.3214 54.7195 28.3214 54.9562C28.3214 55.1929 28.1636 55.2981 27.9532 55.1666C27.7428 55.0614 27.585 54.7721 27.585 54.5354C27.585 54.2987 27.7428 54.2461 27.9532 54.325Z" fill="black" fill-opacity="0.2"/>
<path d="M29.4268 53.6669C29.6372 53.7721 29.795 54.0614 29.795 54.2981C29.795 54.5347 29.6372 54.6399 29.4268 54.5084C29.2164 54.4033 29.0586 54.114 29.0586 53.8773C29.0586 53.6406 29.2164 53.5354 29.4268 53.6669Z" fill="#FF4261" fill-opacity="0.4"/>
<path d="M29.4532 55.1394C29.6636 55.2446 29.8214 55.5339 29.8214 55.7706C29.8214 56.0073 29.6636 56.1125 29.4532 55.981C29.2428 55.8758 29.085 55.5865 29.085 55.3498C29.085 55.1394 29.2428 55.0605 29.4532 55.1394Z" fill="black" fill-opacity="0.2"/>
<path d="M30.8194 54.509C31.0298 54.6142 31.1876 54.9035 31.1876 55.1402C31.1876 55.3769 31.0298 55.4821 30.8194 55.3506C30.609 55.2454 30.4512 54.9561 30.4512 54.7194C30.4512 54.4565 30.609 54.4039 30.8194 54.509Z" fill="black" fill-opacity="0.2"/>
<path d="M30.8467 55.981C31.0571 56.0862 31.2149 56.3754 31.2149 56.6121C31.2149 56.8488 31.0571 56.954 30.8467 56.8225C30.6363 56.7173 30.4785 56.428 30.4785 56.1914C30.4785 55.981 30.6363 55.8758 30.8467 55.981Z" fill="#FF4261" fill-opacity="0.4"/>
<path d="M32.3194 55.4033C32.5298 55.5085 32.6876 55.7978 32.6876 56.0345C32.6876 56.2712 32.5298 56.3764 32.3194 56.2449C32.109 56.1397 31.9512 55.8504 31.9512 55.6137C31.9512 55.4033 32.109 55.3244 32.3194 55.4033Z" fill="black" fill-opacity="0.2"/>
<path d="M32.3457 56.9279C32.5561 57.0331 32.7139 57.3224 32.7139 57.5591C32.7139 57.7958 32.5561 57.901 32.3457 57.7695C32.1353 57.6643 31.9775 57.375 31.9775 57.1383C31.9775 56.9016 32.1353 56.7964 32.3457 56.9279Z" fill="#FF4261" fill-opacity="0.4"/>
<path d="M10.7803 42.7796C10.9907 42.8848 11.1485 43.1741 11.1485 43.4108C11.1485 43.6475 10.9907 43.7264 10.7803 43.6212C10.5699 43.516 10.4121 43.2267 10.4121 42.99C10.4121 42.7533 10.5962 42.6744 10.7803 42.7796Z" fill="black" fill-opacity="0.2"/>
<path d="M10.7803 44.2524C10.9907 44.3576 11.1485 44.6469 11.1485 44.8836C11.1485 45.1203 10.9907 45.1992 10.7803 45.094C10.5699 44.9888 10.4121 44.6995 10.4121 44.4628C10.4121 44.2261 10.5962 44.1209 10.7803 44.2524Z" fill="#FF4261" fill-opacity="0.4"/>
<path d="M12.1739 43.5937C12.3843 43.6989 12.5421 43.9882 12.5421 44.2249C12.5421 44.4616 12.3843 44.5405 12.1739 44.4353C11.9635 44.3301 11.8057 44.0408 11.8057 43.8041C11.8057 43.5937 11.9635 43.5148 12.1739 43.5937Z" fill="#FF4261" fill-opacity="0.4"/>
<path d="M12.1739 45.0937C12.3843 45.1989 12.5421 45.4882 12.5421 45.7249C12.5421 45.9616 12.3843 46.0405 12.1739 45.9353C11.9635 45.8301 11.8057 45.5408 11.8057 45.3041C11.8057 45.0674 11.9635 44.9622 12.1739 45.0937Z" fill="black" fill-opacity="0.2"/>
<path d="M13.6465 44.5675C13.8569 44.6727 14.0147 44.962 14.0147 45.1987C14.0147 45.4355 13.8569 45.5144 13.6465 45.4092C13.4361 45.304 13.2783 45.0146 13.2783 44.7779C13.2783 44.5675 13.4361 44.436 13.6465 44.5675Z" fill="black" fill-opacity="0.2"/>
<path d="M13.6465 46.0395C13.8569 46.1447 14.0147 46.434 14.0147 46.6707C14.0147 46.9074 13.8569 46.9863 13.6465 46.8811C13.4361 46.7759 13.2783 46.4866 13.2783 46.2499C13.2783 46.0132 13.4361 45.908 13.6465 46.0395Z" fill="black" fill-opacity="0.2"/>
<path d="M16.0889 46.5579C16.0889 46.3563 16.0889 46.2555 16.1228 46.1981C16.1527 46.1476 16.2004 46.1201 16.2591 46.1195C16.3258 46.1187 16.4131 46.1691 16.5877 46.2699L17.2573 46.6565C17.4319 46.7573 17.5192 46.8077 17.5859 46.8855C17.6445 46.9538 17.6922 47.0365 17.7221 47.1215C17.7561 47.2181 17.7561 47.3189 17.7561 47.5205L17.7561 48.2937C17.7561 48.4953 17.7561 48.5961 17.7221 48.6535C17.6922 48.7039 17.6445 48.7315 17.5859 48.7321C17.5192 48.7329 17.4319 48.6825 17.2573 48.5817L16.5877 48.1951C16.4131 48.0943 16.3258 48.0439 16.2591 47.9661C16.2004 47.8977 16.1527 47.8151 16.1228 47.7301C16.0889 47.6335 16.0889 47.5327 16.0889 47.3311L16.0889 46.5579Z" fill="black" fill-opacity="0.1"/>
<path d="M18.5752 48.1151C18.5752 47.9134 18.5752 47.8126 18.6092 47.7552C18.6391 47.7048 18.6868 47.6772 18.7454 47.6766C18.8121 47.6758 18.8994 47.7263 19.074 47.8271L19.7436 48.2136C19.9182 48.3144 20.0055 48.3648 20.0722 48.4426C20.1309 48.511 20.1785 48.5936 20.2084 48.6786C20.2424 48.7752 20.2424 48.876 20.2424 49.0776L20.2424 49.8508C20.2424 50.0524 20.2424 50.1532 20.2084 50.2106C20.1785 50.2611 20.1309 50.2886 20.0722 50.2893C20.0055 50.29 19.9182 50.2396 19.7436 50.1388L19.074 49.7522C18.8994 49.6514 18.8121 49.601 18.7454 49.5233C18.6868 49.4549 18.6391 49.3723 18.6092 49.2873C18.5752 49.1906 18.5752 49.0898 18.5752 48.8882L18.5752 48.1151Z" fill="black" fill-opacity="0.1"/>
<path d="M21.085 49.6182C21.085 49.4166 21.085 49.3158 21.1189 49.2584C21.1488 49.2079 21.1965 49.1804 21.2552 49.1798C21.3219 49.179 21.4092 49.2294 21.5838 49.3302L22.2534 49.7168C22.428 49.8176 22.5153 49.868 22.582 49.9458C22.6406 50.0141 22.6883 50.0968 22.7182 50.1818C22.7522 50.2784 22.7522 50.3792 22.7522 50.5808L22.7522 51.354C22.7522 51.5556 22.7522 51.6564 22.7182 51.7138C22.6883 51.7643 22.6406 51.7918 22.582 51.7924C22.5153 51.7932 22.428 51.7428 22.2534 51.642L21.5838 51.2554C21.4092 51.1546 21.3219 51.1042 21.2552 51.0264C21.1965 50.958 21.1488 50.8754 21.1189 50.7904C21.085 50.6938 21.085 50.593 21.085 50.3914L21.085 49.6182Z" fill="black" fill-opacity="0.1"/>
<path d="M51.6669 49.0237C51.5541 48.0633 50.7937 47.7068 49.8751 48.2371C49.164 48.6477 48.5463 49.4843 48.2643 50.4036C47.7101 50.9148 47.2949 51.7588 47.2949 52.4083C47.2949 53.2297 47.8737 53.5638 48.585 53.1531L51.4233 51.5144C51.9925 51.1858 52.4554 50.3841 52.4554 49.7268C52.455 49.46 52.3771 49.2457 52.2342 49.1183C52.0912 48.9908 51.8915 48.9575 51.6669 49.0237Z" fill="black" fill-opacity="0.1"/>
<path d="M51.3215 30.7587V31.0114C51.3215 31.4221 51.2267 31.7696 50.7844 32.0223L37.3585 39.7619C36.6003 40.2042 35.2735 40.141 34.389 39.6356L21.4369 32.1802C20.963 31.8959 20.6787 31.58 20.6787 31.2325V24.4722L51.3215 24.5353V30.7587Z" fill="#D16375" fill-opacity="0.9"/>
<path d="M50.6951 31.866L50.6945 31.8663L37.2686 39.606L37.2678 39.6065C36.9279 39.8047 36.4442 39.8971 35.929 39.8743C35.4159 39.8517 34.8921 39.7157 34.4786 39.4795C34.4785 39.4794 34.4784 39.4794 34.4783 39.4793L21.5281 32.0251C21.062 31.7451 20.8587 31.476 20.8587 31.2325V24.6525L51.1415 24.715V30.7587V31.0114C51.1415 31.2047 51.1188 31.3643 51.0556 31.5002C50.9942 31.6321 50.888 31.7558 50.6951 31.866Z" stroke="black" stroke-opacity="0.2" stroke-width="0.36"/>
<path d="M29.4926 25.8307C28.8608 26.2098 28.2921 26.1782 27.9131 25.8939L19.6679 21.1237C19.2889 20.9026 19.0361 20.4603 19.0361 19.7969C19.0361 18.5017 19.9523 16.8906 21.0895 16.2588C21.7213 15.8797 22.29 15.9113 22.669 16.1956L30.9141 20.9658C31.2932 21.1869 31.546 21.6292 31.546 22.2926C31.546 23.5878 30.6298 25.1673 29.4926 25.8307Z" fill="url(#paint0_linear_10930_607297)"/>
<path d="M29.4472 25.7529L29.4463 25.7535C28.8372 26.1189 28.3096 26.0788 27.9671 25.8219L27.9674 25.8214L27.9581 25.816L19.7133 21.046C19.7133 21.046 19.7132 21.0459 19.7132 21.0459C19.3684 20.8447 19.1261 20.4366 19.1261 19.7969C19.1261 19.1688 19.3489 18.4576 19.7143 17.824C20.0798 17.1903 20.5825 16.6434 21.1332 16.3375L21.1332 16.3375L21.1358 16.336C21.7449 15.9705 22.2725 16.0107 22.615 16.2676L22.6147 16.2681L22.624 16.2735L30.8688 21.0435C30.8688 21.0435 30.8689 21.0435 30.8689 21.0436C31.2137 21.2448 31.456 21.6529 31.456 22.2926C31.456 22.9205 31.2333 23.6237 30.8679 24.2534C30.5026 24.883 29.9994 25.4309 29.4472 25.753L29.4472 25.7529Z" stroke="#A3B1CC" stroke-opacity="0.8" stroke-width="0.18"/>
<path d="M41.623 21.9135C41.623 21.2501 41.8758 20.7763 42.2549 20.5867L48.8889 16.7327C49.2995 16.48 49.8366 16.4168 50.4684 16.7959C51.6056 17.4593 52.5218 19.0388 52.5218 20.334C52.5218 20.9974 52.269 21.4713 51.8899 21.6608L45.2559 25.5464C44.8453 25.7676 44.3082 25.8307 43.6764 25.4832C42.5392 24.8198 41.623 23.2403 41.623 21.9135Z" fill="url(#paint1_linear_10930_607297)"/>
<path d="M42.2951 20.6672L42.2952 20.6674L42.3001 20.6645L48.9341 16.8105L48.9341 16.8105L48.936 16.8093C49.3174 16.5746 49.8184 16.5108 50.4221 16.873L50.423 16.8736C50.9752 17.1957 51.4784 17.7436 51.8437 18.3732C52.2091 19.0029 52.4318 19.7061 52.4318 20.334C52.4318 20.978 52.187 21.4116 51.8497 21.5803L51.8496 21.5801L51.8445 21.5831L45.2119 25.4679C44.8279 25.6742 44.3241 25.7364 43.7208 25.4049C43.1691 25.0828 42.6663 24.5352 42.3012 23.9022C41.9359 23.2688 41.713 22.5576 41.713 21.9135C41.713 21.2695 41.9578 20.8359 42.2951 20.6672Z" stroke="#A3B1CC" stroke-opacity="0.8" stroke-width="0.18"/>
<g filter="url(#filter0_d_10930_607297)">
<path d="M18.7197 35.2761C18.7197 34.6127 18.9725 34.1388 19.3515 33.9493L25.9855 30.0952C26.3962 29.8425 26.9332 29.7793 27.5651 30.1584C28.7023 30.8218 29.6184 32.4013 29.6184 33.6965C29.6184 34.3599 29.3657 34.8338 28.9866 35.0233L22.3526 38.909C21.942 39.1301 21.4049 39.1933 20.7731 38.8458C19.6358 38.1824 18.7197 36.6029 18.7197 35.2761Z" fill="url(#paint2_linear_10930_607297)"/>
<path d="M19.3918 34.0298L19.3919 34.0299L19.3967 34.0271L26.0307 30.1731L26.0308 30.1731L26.0327 30.1719C26.4141 29.9372 26.9151 29.8734 27.5187 30.2356L27.5197 30.2362C28.0718 30.5582 28.575 31.1061 28.9404 31.7357C29.3057 32.3654 29.5284 33.0686 29.5284 33.6965C29.5284 34.3406 29.2837 34.7742 28.9464 34.9428L28.9463 34.9427L28.9411 34.9457L22.3086 38.8305C21.9246 39.0367 21.4208 39.0989 20.8175 38.7675C20.2658 38.4453 19.763 37.8978 19.3979 37.2647C19.0326 36.6313 18.8097 35.9201 18.8097 35.2761C18.8097 34.632 19.0544 34.1984 19.3918 34.0298Z" stroke="#A3B1CC" stroke-opacity="0.8" stroke-width="0.18"/>
</g>
<g filter="url(#filter1_d_10930_607297)">
<path d="M51.2272 38.5301C50.5954 38.9091 50.0267 38.8775 49.6476 38.5932L43.0136 34.7392C42.6346 34.5181 42.3818 34.0758 42.3818 33.4124C42.3818 32.1172 43.298 30.5061 44.4352 29.8743C45.067 29.4952 45.6357 29.5268 46.0147 29.8111L52.6487 33.6651C53.0278 33.8863 53.2805 34.3285 53.2805 34.9919C53.2805 36.2871 52.3644 37.8667 51.2272 38.5301Z" fill="url(#paint3_linear_10930_607297)"/>
<path d="M51.1818 38.4523L51.1809 38.4529C50.5718 38.8183 50.0442 38.7781 49.7016 38.5212L49.702 38.5207L49.6928 38.5154L43.059 34.6615C43.059 34.6614 43.0589 34.6614 43.0589 34.6614C42.7141 34.4602 42.4718 34.0521 42.4718 33.4124C42.4718 32.7843 42.6946 32.0731 43.06 31.4395C43.4255 30.8058 43.9282 30.2589 44.4789 29.9529L44.4789 29.953L44.4815 29.9514C45.0906 29.586 45.6182 29.6262 45.9607 29.8831L45.9604 29.8836L45.9695 29.8889L52.6034 33.7429C52.6034 33.7429 52.6035 33.7429 52.6035 33.7429C52.9483 33.9441 53.1905 34.3522 53.1905 34.9919C53.1905 35.6199 52.9679 36.323 52.6025 36.9527C52.2371 37.5824 51.7339 38.1302 51.1818 38.4523L51.1818 38.4523Z" stroke="#A3B1CC" stroke-opacity="0.8" stroke-width="0.18"/>
</g>
<g filter="url(#filter2_di_10930_607297)">
<path d="M51.2263 34.3602C50.3734 34.834 49.71 36.0344 49.71 36.9822C49.71 37.9299 50.4049 38.3406 51.2263 37.8667C52.0792 37.3928 52.7426 36.1924 52.7426 35.2447C52.7426 34.2654 52.0476 33.8547 51.2263 34.3602Z" fill="#4DFFE1" fill-opacity="0.8" shape-rendering="crispEdges"/>
</g>
<g filter="url(#filter3_di_10930_607297)">
<path d="M19.2891 35.5605C19.2891 36.5398 19.9841 37.7086 20.8054 38.1825C21.6583 38.6563 22.3217 38.2772 22.3217 37.2979C22.3217 36.3186 21.6268 35.1498 20.8054 34.6759C19.9841 34.2021 19.2891 34.6127 19.2891 35.5605Z" fill="#4DFFE1" fill-opacity="0.8" shape-rendering="crispEdges"/>
</g>
<g filter="url(#filter4_d_10930_607297)">
<path d="M21.1205 23.6509L34.5465 15.9112C35.3046 15.469 36.6314 15.5322 37.516 16.0376L50.4996 23.5245C51.3842 24.03 51.4789 24.7882 50.7208 25.2304L37.2948 32.9701C36.5367 33.4124 35.2099 33.3492 34.3253 32.8437L21.3416 25.3884C20.4571 24.8829 20.3623 24.0932 21.1205 23.6509Z" fill="url(#paint4_linear_10930_607297)"/>
<path d="M34.6364 16.0672L34.6372 16.0667C34.9771 15.8684 35.4607 15.7761 35.9759 15.7988C36.489 15.8215 37.0129 15.9575 37.4263 16.1937C37.4264 16.1938 37.4265 16.1938 37.4267 16.1939L50.4097 23.6805L50.4103 23.6808C50.8275 23.9192 51.0183 24.1947 51.0477 24.4241C51.0753 24.6392 50.9675 24.878 50.6305 25.0747C50.6303 25.0748 50.6302 25.0749 50.6301 25.0749L37.2049 32.8141L37.2041 32.8146C36.8642 33.0129 36.3806 33.1052 35.8654 33.0825C35.3521 33.0598 34.8281 32.9237 34.4146 32.6875L21.4313 25.2323L21.4309 25.2321C21.0162 24.9951 20.8235 24.7124 20.7937 24.4736C20.7654 24.2477 20.8765 24.0017 21.2109 23.8066C21.211 23.8065 21.2111 23.8065 21.2112 23.8064L34.6364 16.0672Z" stroke="#DB2121" stroke-opacity="0.4" stroke-width="0.36"/>
</g>
<path d="M4.32031 26.0769C4.32031 25.3479 4.32031 24.9834 4.42656 24.6573C4.52056 24.3687 4.6743 24.1032 4.87777 23.8781C5.10774 23.6236 5.42388 23.4422 6.05616 23.0794L32.56 7.86978C33.8137 7.15033 34.4405 6.7906 35.1066 6.64976C35.6959 6.52515 36.3047 6.52515 36.8941 6.64976C37.5601 6.7906 38.1869 7.15033 39.4406 7.86978L65.9445 23.0794C66.5767 23.4422 66.8929 23.6236 67.1229 23.8781C67.3263 24.1032 67.4801 24.3687 67.5741 24.6573C67.6803 24.9834 67.6803 25.3479 67.6803 26.0769V30.544C67.6803 31.2696 67.6803 31.6324 67.5749 31.9573C67.4817 32.2447 67.3291 32.5094 67.1272 32.7343C66.8989 32.9884 66.585 33.1703 65.9572 33.5341L39.4662 48.8869C38.2038 49.6185 37.5726 49.9843 36.9013 50.1275C36.3073 50.2541 35.6933 50.2541 35.0994 50.1275C34.428 49.9843 33.7969 49.6185 32.5345 48.8869L6.04339 33.5341C5.41561 33.1703 5.10172 32.9884 4.87346 32.7343C4.67149 32.5094 4.51895 32.2447 4.4257 31.9573C4.32031 31.6324 4.32031 31.2696 4.32031 30.544V26.0769Z" fill="url(#paint5_linear_10930_607297)"/>
<path d="M4.50031 26.0769C4.50031 25.3357 4.50241 25.0055 4.5977 24.713C4.68387 24.4485 4.8248 24.2052 5.01132 23.9988C5.21757 23.7706 5.5029 23.6044 6.14575 23.2355L32.6496 8.0259C33.9138 7.30044 34.5121 6.95945 35.1438 6.82587C35.7086 6.70644 36.2921 6.70644 36.8568 6.82587C37.4885 6.95945 38.0869 7.30044 39.351 8.0259L65.8549 23.2355C66.4977 23.6044 66.7831 23.7706 66.9893 23.9988C67.1758 24.2052 67.3168 24.4485 67.4029 24.713C67.4982 25.0055 67.5003 25.3357 67.5003 26.0769V30.544C67.5003 31.2817 67.4982 31.6103 67.4037 31.9017C67.3182 32.1652 67.1784 32.4079 66.9933 32.614C66.7885 32.8419 66.5052 33.0085 65.867 33.3784L39.3759 48.7312C38.103 49.4689 37.5004 49.8156 36.8637 49.9514C36.2945 50.0728 35.7061 50.0728 35.1369 49.9514C34.5002 49.8156 33.8977 49.4689 32.6247 48.7312L6.13365 33.3784C5.49538 33.0085 5.21208 32.8419 5.00736 32.614C4.82223 32.4079 4.6824 32.1652 4.59692 31.9017C4.5024 31.6103 4.50031 31.2817 4.50031 30.544V26.0769Z" stroke="#FF4823" stroke-opacity="0.1" stroke-width="0.36"/>
<rect width="37.44" height="37.44" rx="2.16" transform="matrix(0.866025 0.5 -0.866025 0.5 36 6.07544)" fill="url(#paint6_linear_10930_607297)"/>
<rect x="-1.07288e-08" y="0.18" width="37.08" height="37.08" rx="1.98" transform="matrix(0.866025 0.5 -0.866025 0.5 36.1559 6.16544)" stroke="white" stroke-opacity="0.1" stroke-width="0.36"/>
<g filter="url(#filter5_i_10930_607297)">
<path d="M35.561 21.7768C36.6633 22.4132 36.6633 23.4443 35.561 24.0808C34.4586 24.7172 32.6727 24.7172 31.5703 24.0808C30.468 23.4443 30.468 22.4132 31.5703 21.7768C32.6727 21.1403 34.4586 21.1403 35.561 21.7768ZM35.0621 28.1128C33.3238 27.1091 34.2308 25.7128 36.3092 24.5128C38.3877 23.3128 40.8063 22.7891 42.5446 23.7928C43.3569 24.2617 43.2456 24.828 42.5446 25.2328L37.5563 28.1128C36.8553 28.5175 35.8744 28.5817 35.0621 28.1128Z" fill="black" fill-opacity="0.15"/>
</g>
<defs>
<filter id="filter0_d_10930_607297" x="18.7197" y="29.5299" width="11.6184" height="9.56068" filterUnits="userSpaceOnUse" color-interpolation-filters="sRGB">
<feFlood flood-opacity="0" result="BackgroundImageFix"/>
<feColorMatrix in="SourceAlpha" type="matrix" values="0 0 0 0 0 0 0 0 0 0 0 0 0 0 0 0 0 0 127 0" result="hardAlpha"/>
<feOffset dx="0.72" dy="-0.36"/>
<feComposite in2="hardAlpha" operator="out"/>
<feColorMatrix type="matrix" values="0 0 0 0 0 0 0 0 0 0 0 0 0 0 0 0 0 0 0.1 0"/>
<feBlend mode="normal" in2="BackgroundImageFix" result="effect1_dropShadow_10930_607297"/>
<feBlend mode="normal" in="SourceGraphic" in2="effect1_dropShadow_10930_607297" result="shape"/>
</filter>
<filter id="filter1_d_10930_607297" x="41.6618" y="29.2337" width="11.6184" height="9.5768" filterUnits="userSpaceOnUse" color-interpolation-filters="sRGB">
<feFlood flood-opacity="0" result="BackgroundImageFix"/>
<feColorMatrix in="SourceAlpha" type="matrix" values="0 0 0 0 0 0 0 0 0 0 0 0 0 0 0 0 0 0 127 0" result="hardAlpha"/>
<feOffset dx="-0.72" dy="-0.36"/>
<feComposite in2="hardAlpha" operator="out"/>
<feColorMatrix type="matrix" values="0 0 0 0 0 0 0 0 0 0 0 0 0 0 0 0 0 0 0.1 0"/>
<feBlend mode="normal" in2="BackgroundImageFix" result="effect1_dropShadow_10930_607297"/>
<feBlend mode="normal" in="SourceGraphic" in2="effect1_dropShadow_10930_607297" result="shape"/>
</filter>
<filter id="filter2_di_10930_607297" x="45.39" y="29.8231" width="11.6722" height="12.5614" filterUnits="userSpaceOnUse" color-interpolation-filters="sRGB">
<feFlood flood-opacity="0" result="BackgroundImageFix"/>
<feColorMatrix in="SourceAlpha" type="matrix" values="0 0 0 0 0 0 0 0 0 0 0 0 0 0 0 0 0 0 127 0" result="hardAlpha"/>
<feOffset/>
<feGaussianBlur stdDeviation="2.16"/>
<feComposite in2="hardAlpha" operator="out"/>
<feColorMatrix type="matrix" values="0 0 0 0 0.301961 0 0 0 0 1 0 0 0 0 0.882353 0 0 0 0.8 0"/>
<feBlend mode="normal" in2="BackgroundImageFix" result="effect1_dropShadow_10930_607297"/>
<feBlend mode="normal" in="SourceGraphic" in2="effect1_dropShadow_10930_607297" result="shape"/>
<feColorMatrix in="SourceAlpha" type="matrix" values="0 0 0 0 0 0 0 0 0 0 0 0 0 0 0 0 0 0 127 0" result="hardAlpha"/>
<feOffset dx="-0.72" dy="-0.36"/>
<feComposite in2="hardAlpha" operator="arithmetic" k2="-1" k3="1"/>
<feColorMatrix type="matrix" values="0 0 0 0 0 0 0 0 0 0 0 0 0 0 0 0 0 0 0.25 0"/>
<feBlend mode="normal" in2="shape" result="effect2_innerShadow_10930_607297"/>
</filter>
<filter id="filter3_di_10930_607297" x="14.9691" y="30.1583" width="11.6722" height="12.5475" filterUnits="userSpaceOnUse" color-interpolation-filters="sRGB">
<feFlood flood-opacity="0" result="BackgroundImageFix"/>
<feColorMatrix in="SourceAlpha" type="matrix" values="0 0 0 0 0 0 0 0 0 0 0 0 0 0 0 0 0 0 127 0" result="hardAlpha"/>
<feOffset/>
<feGaussianBlur stdDeviation="2.16"/>
<feComposite in2="hardAlpha" operator="out"/>
<feColorMatrix type="matrix" values="0 0 0 0 0.301961 0 0 0 0 1 0 0 0 0 0.882353 0 0 0 0.8 0"/>
<feBlend mode="normal" in2="BackgroundImageFix" result="effect1_dropShadow_10930_607297"/>
<feBlend mode="normal" in="SourceGraphic" in2="effect1_dropShadow_10930_607297" result="shape"/>
<feColorMatrix in="SourceAlpha" type="matrix" values="0 0 0 0 0 0 0 0 0 0 0 0 0 0 0 0 0 0 127 0" result="hardAlpha"/>
<feOffset dx="0.72" dy="-0.36"/>
<feComposite in2="hardAlpha" operator="arithmetic" k2="-1" k3="1"/>
<feColorMatrix type="matrix" values="0 0 0 0 0 0 0 0 0 0 0 0 0 0 0 0 0 0 0.25 0"/>
<feBlend mode="normal" in2="shape" result="effect2_innerShadow_10930_607297"/>
</filter>
<filter id="filter4_d_10930_607297" x="20.6094" y="15.6155" width="30.6221" height="18.7304" filterUnits="userSpaceOnUse" color-interpolation-filters="sRGB">
<feFlood flood-opacity="0" result="BackgroundImageFix"/>
<feColorMatrix in="SourceAlpha" type="matrix" values="0 0 0 0 0 0 0 0 0 0 0 0 0 0 0 0 0 0 127 0" result="hardAlpha"/>
<feOffset dy="1.08"/>
<feComposite in2="hardAlpha" operator="out"/>
<feColorMatrix type="matrix" values="0 0 0 0 0 0 0 0 0 0 0 0 0 0 0 0 0 0 0.04 0"/>
<feBlend mode="normal" in2="BackgroundImageFix" result="effect1_dropShadow_10930_607297"/>
<feBlend mode="normal" in="SourceGraphic" in2="effect1_dropShadow_10930_607297" result="shape"/>
</filter>
<filter id="filter5_i_10930_607297" x="25.585" y="18.3208" width="19.9531" height="11.52" filterUnits="userSpaceOnUse" color-interpolation-filters="sRGB">
<feFlood flood-opacity="0" result="BackgroundImageFix"/>
<feBlend mode="normal" in="SourceGraphic" in2="BackgroundImageFix" result="shape"/>
<feColorMatrix in="SourceAlpha" type="matrix" values="0 0 0 0 0 0 0 0 0 0 0 0 0 0 0 0 0 0 127 0" result="hardAlpha"/>
<feOffset dy="0.36"/>
<feComposite in2="hardAlpha" operator="arithmetic" k2="-1" k3="1"/>
<feColorMatrix type="matrix" values="0 0 0 0 0 0 0 0 0 0 0 0 0 0 0 0 0 0 0.05 0"/>
<feBlend mode="normal" in2="shape" result="effect1_innerShadow_10930_607297"/>
</filter>
<linearGradient id="paint0_linear_10930_607297" x1="23.8404" y1="23.5513" x2="26.7365" y2="18.5352" gradientUnits="userSpaceOnUse">
<stop offset="0.2" stop-color="#BFC6D8"/>
<stop offset="0.7" stop-color="#ECEFF8"/>
</linearGradient>
<linearGradient id="paint1_linear_10930_607297" x1="48.5192" y1="23.6435" x2="45.6069" y2="18.5993" gradientUnits="userSpaceOnUse">
<stop offset="0.2" stop-color="#BFC6D8"/>
<stop offset="0.7" stop-color="#ECEFF8"/>
</linearGradient>
<linearGradient id="paint2_linear_10930_607297" x1="25.6204" y1="37.0139" x2="22.7081" y2="31.9698" gradientUnits="userSpaceOnUse">
<stop offset="0.2" stop-color="#BFC6D8"/>
<stop offset="0.7" stop-color="#ECEFF8"/>
</linearGradient>
<linearGradient id="paint3_linear_10930_607297" x1="46.3856" y1="36.7" x2="49.3002" y2="31.6518" gradientUnits="userSpaceOnUse">
<stop offset="0.2" stop-color="#BFC6D8"/>
<stop offset="0.7" stop-color="#ECEFF8"/>
</linearGradient>
<linearGradient id="paint4_linear_10930_607297" x1="35.9996" y1="15.6155" x2="35.9996" y2="33.2555" gradientUnits="userSpaceOnUse">
<stop stop-color="#FF4646"/>
<stop offset="1" stop-color="#CC6677"/>
</linearGradient>
<linearGradient id="paint5_linear_10930_607297" x1="36.0003" y1="50.8955" x2="36.0003" y2="5.89551" gradientUnits="userSpaceOnUse">
<stop stop-color="#FF3456" stop-opacity="0.2"/>
<stop offset="1" stop-color="#E64D2E" stop-opacity="0.2"/>
</linearGradient>
<linearGradient id="paint6_linear_10930_607297" x1="1.26" y1="1.26" x2="30.4221" y2="30.4179" gradientUnits="userSpaceOnUse">
<stop offset="0.01" stop-color="white" stop-opacity="0.2"/>
<stop offset="1" stop-color="#CC8F99" stop-opacity="0.2"/>
</linearGradient>
</defs>
</svg>
