<svg width="20" height="20" xmlns="http://www.w3.org/2000/svg">
<path fill-rule="evenodd" clip-rule="evenodd" d="M5.5 16H6.5C7.32843 16 8 15.3284 8 14.5V13.5C8 12.6716 7.32843 12 6.5 12H5.5C4.67157 12 4 12.6716 4 13.5V14.5C4 15.3284 4.67157 16 5.5 16ZM2.5 14.5C2.5 16.1569 3.84315 17.5 5.5 17.5H6.5C8.15685 17.5 9.5 16.1569 9.5 14.5V13.5C9.5 11.8431 8.15685 10.5 6.5 10.5H5.5C3.84315 10.5 2.5 11.8431 2.5 13.5V14.5ZM5.5 8H6.5C7.32843 8 8 7.32843 8 6.5V5.5C8 4.67157 7.32843 4 6.5 4H5.5C4.67157 4 4 4.67157 4 5.5V6.5C4 7.32843 4.67157 8 5.5 8ZM2.5 6.5C2.5 8.15685 3.84315 9.5 5.5 9.5H6.5C8.15685 9.5 9.5 8.15685 9.5 6.5V5.5C9.5 3.84315 8.15685 2.5 6.5 2.5H5.5C3.84315 2.5 2.5 3.84315 2.5 5.5V6.5ZM14.5 16H13.5C12.6716 16 12 15.3284 12 14.5V13.5C12 12.6716 12.6716 12 13.5 12H14.5C15.3284 12 16 12.6716 16 13.5V14.5C16 15.3284 15.3284 16 14.5 16ZM13.5 17.5C11.8431 17.5 10.5 16.1569 10.5 14.5V13.5C10.5 11.8431 11.8431 10.5 13.5 10.5H14.5C16.1569 10.5 17.5 11.8431 17.5 13.5V14.5C17.5 16.1569 16.1569 17.5 14.5 17.5H13.5ZM14 9.5C14.4142 9.5 14.75 9.16421 14.75 8.75V6.75H16.75C17.1642 6.75 17.5 6.41421 17.5 6C17.5 5.58579 17.1642 5.25 16.75 5.25H14.75V3.25C14.75 2.83579 14.4142 2.5 14 2.5C13.5858 2.5 13.25 2.83579 13.25 3.25V5.25H11.25C10.8358 5.25 10.5 5.58579 10.5 6C10.5 6.41421 10.8358 6.75 11.25 6.75H13.25V8.75C13.25 9.16421 13.5858 9.5 14 9.5Z"/>
</svg>
