<svg width="20" height="20" xmlns="http://www.w3.org/2000/svg"><path d="M8.824 11.175a.811.811 0 010 1.183.84.84 0 01-1.183 0 4.17 4.17 0 010-5.891l2.95-2.95a4.17 4.17 0 015.891 0 4.17 4.17 0 010 5.891l-1.241 1.242a5.756 5.756 0 00-.334-2.017l.392-.4a2.485 2.485 0 000-3.533 2.485 2.485 0 00-3.533 0L8.824 7.642a2.485 2.485 0 000 3.533zm2.35-3.533a.84.84 0 011.183 0 4.17 4.17 0 010 5.891l-2.95 2.95a4.17 4.17 0 01-5.891 0 4.17 4.17 0 010-5.891L4.757 9.35c-.008.683.1 1.367.334 2.025l-.392.392a2.485 2.485 0 000 3.533 2.485 2.485 0 003.533 0l2.942-2.942a2.485 2.485 0 000-3.533.811.811 0 010-1.183z"/></svg>