<svg width="30" height="28" xmlns="http://www.w3.org/2000/svg"><path fill-rule="evenodd" clip-rule="evenodd" d="M9.138 21.214h1.588l-.49 3.857H6.053a1.286 1.286 0 100 2.572h18a1.286 1.286 0 000-2.572h-4.184l-.49-3.857h1.588c2.88 0 4.32 0 5.42-.56a5.143 5.143 0 002.248-2.248c.56-1.1.56-2.54.56-5.42V8.87c0-2.88 0-4.32-.56-5.42a5.142 5.142 0 00-2.248-2.248c-1.1-.56-2.54-.56-5.42-.56H9.138c-2.88 0-4.32 0-5.42.56A5.143 5.143 0 001.47 3.451C.91 4.55.91 5.99.91 8.87v4.114c0 2.88 0 4.32.56 5.421a5.143 5.143 0 002.248 2.248c1.1.56 2.54.56 5.42.56zm17.486-8.229V8.871c0-1.482-.002-2.44-.062-3.168-.057-.699-.154-.958-.218-1.085a2.571 2.571 0 00-1.124-1.124c-.127-.065-.386-.161-1.085-.218-.728-.06-1.686-.062-3.168-.062H9.138c-1.482 0-2.44.002-3.168.062-.699.057-.958.153-1.085.218-.484.247-.877.64-1.124 1.124-.064.127-.161.386-.218 1.085-.06.728-.062 1.686-.062 3.168v4.114c0 1.483.002 2.44.062 3.169.057.698.154.957.218 1.085.247.483.64.877 1.124 1.123.127.065.386.162 1.085.22.728.059 1.686.06 3.168.06h11.829c1.482 0 2.44-.001 3.168-.06.699-.058.958-.155 1.085-.22.484-.246.877-.64 1.124-1.123.064-.128.161-.387.218-1.085.06-.729.062-1.686.062-3.169zm-9.347 12.086l-.49-3.857h-3.469l-.49 3.857h4.449z"/></svg>