<svg width="30" height="29" xmlns="http://www.w3.org/2000/svg"><path d="M9.017 16.071c1.633 0 2.226.17 2.823.49a3.33 3.33 0 011.385 1.385c.32.597.49 1.19.49 2.823v3.462c0 1.633-.17 2.226-.49 2.823a3.33 3.33 0 01-1.385 1.385c-.597.32-1.19.49-2.823.49H5.555c-1.634 0-2.226-.17-2.823-.49a3.33 3.33 0 01-1.385-1.385c-.32-.597-.49-1.19-.49-2.823v-3.462c0-1.634.17-2.226.49-2.823a3.33 3.33 0 011.385-1.385c.597-.32 1.19-.49 2.823-.49h3.462zm18.247 9c.43 0 .586.045.743.129.157.084.28.207.364.364.084.158.129.314.129.743v.742c0 .43-.045.586-.129.743a.875.875 0 01-.364.365c-.157.084-.313.128-.743.128h-.742c-.43 0-.586-.044-.743-.128a.876.876 0 01-.364-.365c-.084-.157-.13-.313-.13-.743v-.742c0-.43.046-.585.13-.742a.877.877 0 01.364-.365c.157-.084.313-.129.743-.129h.742zm-8.357 0c.43 0 .585.045.743.129.157.084.28.207.364.364.084.158.129.314.129.743v.742c0 .43-.045.586-.129.743a.876.876 0 01-.364.365c-.158.084-.313.128-.743.128h-.742c-.43 0-.586-.044-.743-.128a.876.876 0 01-.365-.365c-.084-.157-.128-.313-.128-.743v-.742c0-.43.044-.585.128-.742a.876.876 0 01.365-.365c.157-.084.313-.129.743-.129h.742zM9.24 18.643H5.555c-1.101 0-1.355.049-1.61.185a.76.76 0 00-.33.33c-.128.237-.179.473-.186 1.387v3.686c0 1.1.049 1.355.185 1.61.08.15.181.25.33.33.256.137.51.186 1.61.186h3.463c1.1 0 1.355-.05 1.61-.186a.76.76 0 00.33-.33c.137-.255.186-.51.186-1.61v-3.462c0-1.101-.05-1.355-.186-1.61a.76.76 0 00-.33-.33c-.237-.128-.473-.179-1.387-.186zm-1.583 2.25c.43 0 .585.044.743.128.157.084.28.208.364.365.084.157.129.313.129.743v.742c0 .43-.045.585-.129.743a.877.877 0 01-.364.364c-.158.084-.313.129-.743.129h-.742c-.43 0-.586-.045-.743-.129a.877.877 0 01-.365-.364c-.084-.158-.128-.314-.128-.743v-.742c0-.43.044-.586.128-.743a.876.876 0 01.365-.365c.157-.084.313-.128.743-.128h.742zm15.428 0c.43 0 .586.044.743.128.157.084.28.208.365.365.084.157.128.313.128.743v.742c0 .43-.044.585-.128.743a.877.877 0 01-.365.364c-.157.084-.313.129-.743.129h-.742c-.43 0-.585-.045-.742-.129a.876.876 0 01-.365-.364c-.084-.158-.129-.314-.129-.743v-.742c0-.43.045-.586.129-.743a.875.875 0 01.364-.365c.158-.084.313-.128.743-.128h.742zm-4.178-4.179c.43 0 .585.045.743.129.157.084.28.207.364.364.084.157.129.313.129.743v.742c0 .43-.045.586-.129.743a.876.876 0 01-.364.364c-.158.085-.313.13-.743.13h-.742c-.43 0-.586-.045-.743-.13a.876.876 0 01-.365-.364c-.084-.157-.128-.313-.128-.743v-.742c0-.43.044-.585.128-.743a.876.876 0 01.365-.364c.157-.084.313-.129.743-.129h.742zm8.357 0c.43 0 .586.045.743.129.157.084.28.207.364.364.084.157.129.313.129.743v.742c0 .43-.045.586-.129.743a.876.876 0 01-.364.364c-.157.085-.313.13-.743.13h-.742c-.43 0-.586-.045-.743-.13a.876.876 0 01-.364-.364c-.084-.157-.13-.313-.13-.743v-.742c0-.43.046-.585.13-.743a.876.876 0 01.364-.364c.157-.084.313-.129.743-.129h.742zM9.017.643c1.633 0 2.226.17 2.823.489a3.33 3.33 0 011.385 1.385c.32.597.49 1.19.49 2.823v3.462c0 1.634-.17 2.226-.49 2.823a3.33 3.33 0 01-1.385 1.385c-.597.32-1.19.49-2.823.49H5.555c-1.634 0-2.226-.17-2.823-.49a3.33 3.33 0 01-1.385-1.385c-.32-.597-.49-1.19-.49-2.823V5.34c0-1.633.17-2.226.49-2.823a3.33 3.33 0 011.385-1.385c.597-.32 1.19-.49 2.823-.49h3.462zm15.428 0c1.634 0 2.226.17 2.823.489a3.33 3.33 0 011.386 1.385c.319.597.489 1.19.489 2.823v3.462c0 1.634-.17 2.226-.49 2.823a3.33 3.33 0 01-1.385 1.385c-.597.32-1.19.49-2.823.49h-3.462c-1.633 0-2.226-.17-2.823-.49a3.33 3.33 0 01-1.385-1.385c-.32-.597-.49-1.19-.49-2.823V5.34c0-1.633.17-2.226.49-2.823a3.33 3.33 0 011.385-1.385c.598-.32 1.19-.49 2.823-.49h3.462zM9.24 3.215l-3.685-.001c-1.101 0-1.355.049-1.61.186a.76.76 0 00-.33.33c-.128.237-.179.473-.186 1.387v3.685c0 1.101.049 1.355.185 1.61a.76.76 0 00.33.33c.256.137.51.186 1.61.186h3.463c1.1 0 1.355-.049 1.61-.185a.76.76 0 00.33-.33c.137-.256.186-.51.186-1.61V5.34c0-1.101-.05-1.355-.186-1.61a.76.76 0 00-.33-.33c-.237-.127-.473-.179-1.387-.185zm15.429 0l-3.686-.001c-1.1 0-1.355.049-1.61.186a.76.76 0 00-.33.33c-.127.237-.178.473-.185 1.387v3.685c0 1.101.048 1.355.185 1.61a.76.76 0 00.33.33c.255.137.51.186 1.61.186h3.462c1.102 0 1.355-.049 1.61-.185a.76.76 0 00.33-.33c.137-.256.186-.51.186-1.61V5.34c0-1.101-.049-1.355-.185-1.61a.76.76 0 00-.33-.33c-.237-.127-.473-.179-1.387-.185zM7.657 5.464c.43 0 .585.045.743.129.157.084.28.207.364.364.084.157.129.313.129.743v.742c0 .43-.045.586-.129.743a.876.876 0 01-.364.364c-.158.085-.313.13-.743.13h-.742c-.43 0-.586-.045-.743-.13a.876.876 0 01-.365-.364c-.084-.157-.128-.313-.128-.743V6.7c0-.43.044-.586.128-.743a.876.876 0 01.365-.364c.157-.084.313-.129.743-.129h.742zm15.428 0c.43 0 .586.045.743.129.157.084.28.207.365.364.084.157.128.313.128.743v.742c0 .43-.044.586-.128.743a.877.877 0 01-.365.364c-.157.085-.313.13-.743.13h-.742c-.43 0-.585-.045-.742-.13a.876.876 0 01-.365-.364c-.084-.157-.129-.313-.129-.743V6.7c0-.43.045-.586.129-.743a.876.876 0 01.364-.364c.158-.084.313-.129.743-.129h.742z"/></svg>