<svg width="20" height="20" viewBox="0 0 20 20" fill="none"  xmlns="http://www.w3.org/2000/svg">
<path fill-rule="evenodd" clip-rule="evenodd" d="M86.5 35L93.3477 59.8754H115.507L97.5798 75.2492L104.427 100.125L86.5 84.7508L68.5725 100.125L75.4202 75.2492L57.4928 59.8754H79.6523L86.5 35Z" fill="#1051F7"/>
<path fill-rule="evenodd" clip-rule="evenodd" d="M348.5 35L355.348 59.8754H377.507L359.58 75.2492L366.427 100.125L348.5 84.7508L330.573 100.125L337.42 75.2492L319.493 59.8754H341.652L348.5 35Z" fill="#1051F7"/>
<path fill-rule="evenodd" clip-rule="evenodd" d="M195.414 67.3984C195.805 67.3984 196 67.6198 196 68.0625C196 68.2708 195.961 68.4401 195.883 68.5703C195.831 68.7005 195.753 68.7917 195.648 68.8438C195.544 68.8698 195.44 68.8958 195.336 68.9219C195.258 68.9479 195.141 68.9609 194.984 68.9609C194.854 68.9609 194.776 68.9609 194.75 68.9609C194.281 69.0651 193.943 69.4688 193.734 70.1719C193.552 70.849 192.992 72.4896 192.055 75.0938C191.117 77.6719 189.737 80.6406 187.914 84C187.549 84.6771 187.172 85.0156 186.781 85.0156C186.469 85.0156 186.169 84.8073 185.883 84.3906C185.622 83.974 185.128 83.1016 184.398 81.7734C184.112 81.2526 183.891 80.8359 183.734 80.5234C182.016 77.2682 181.13 75.6276 181.078 75.6016C181 75.6016 180.466 76.6562 179.477 78.7656C177.602 82.5417 176.599 84.4948 176.469 84.625C176.26 84.8854 176.026 85.0156 175.766 85.0156C175.349 85.0156 174.958 84.6641 174.594 83.9609C173.318 81.5651 172.159 79.2083 171.117 76.8906C170.076 74.5729 169.294 72.776 168.773 71.5C168.279 70.1979 168.018 69.5339 167.992 69.5078C167.862 69.2474 167.68 69.0781 167.445 69C167.237 68.8958 167.042 68.8568 166.859 68.8828C166.703 68.8828 166.56 68.8307 166.43 68.7266C166.299 68.5964 166.234 68.375 166.234 68.0625C166.234 67.6198 166.482 67.3984 166.977 67.3984C167.029 67.3984 167.172 67.4115 167.406 67.4375C167.667 67.4375 168.018 67.4505 168.461 67.4766C168.904 67.5026 169.385 67.5156 169.906 67.5156H170.023C170.518 67.5156 170.987 67.5026 171.43 67.4766C171.872 67.4505 172.211 67.4375 172.445 67.4375C172.706 67.4115 172.862 67.3984 172.914 67.3984C173.227 67.3984 173.383 67.6198 173.383 68.0625C173.383 68.5833 172.966 68.8568 172.133 68.8828C171.326 68.9089 170.922 69.1172 170.922 69.5078C170.922 69.7161 171 69.9766 171.156 70.2891C172.432 73.6224 173.93 76.9688 175.648 80.3281C175.753 80.5365 175.883 80.6406 176.039 80.6406C176.117 80.6406 176.182 80.6146 176.234 80.5625C176.312 80.5104 176.365 80.4714 176.391 80.4453C176.417 80.3932 176.43 80.3542 176.43 80.3281C177.185 79.1823 177.966 77.8151 178.773 76.2266C179.607 74.612 180.036 73.6484 180.062 73.3359V73.2969C180.062 73.1667 179.841 72.6198 179.398 71.6562C178.956 70.6667 178.682 70.0938 178.578 69.9375C178.344 69.599 178.044 69.3646 177.68 69.2344C177.315 69.0781 176.977 69.013 176.664 69.0391C176.378 69.0391 176.117 69 175.883 68.9219C175.674 68.8177 175.57 68.6224 175.57 68.3359C175.57 67.7109 175.779 67.3984 176.195 67.3984C176.273 67.3984 176.482 67.4115 176.82 67.4375C177.185 67.4375 177.68 67.4505 178.305 67.4766C178.93 67.5026 179.607 67.5156 180.336 67.5156C181.065 67.5156 181.729 67.5026 182.328 67.4766C182.953 67.4505 183.435 67.4375 183.773 67.4375C184.138 67.4115 184.359 67.3984 184.438 67.3984C184.802 67.3984 184.984 67.5938 184.984 67.9844V68.2578C184.984 68.5182 184.919 68.6745 184.789 68.7266C184.685 68.7786 184.294 68.8307 183.617 68.8828C183.227 68.9089 182.914 68.9349 182.68 68.9609C182.055 69.013 181.742 69.2865 181.742 69.7812C181.742 70.224 182.276 71.5781 183.344 73.8438C184.411 76.1094 185.544 78.1797 186.742 80.0547C186.951 80.4193 187.172 80.6016 187.406 80.6016C187.641 80.6016 187.797 80.4844 187.875 80.25C188.734 78.7396 189.477 77.138 190.102 75.4453C190.753 73.7526 191.182 72.4635 191.391 71.5781C191.625 70.6667 191.742 70.0938 191.742 69.8594C191.742 69.7552 191.729 69.6641 191.703 69.5859C191.703 69.4818 191.677 69.4036 191.625 69.3516C191.573 69.2995 191.521 69.2474 191.469 69.1953C191.443 69.1432 191.378 69.1042 191.273 69.0781C191.195 69.0521 191.117 69.0391 191.039 69.0391C190.961 69.013 190.844 69 190.688 69C190.557 68.974 190.44 68.9609 190.336 68.9609C190.232 68.9349 190.076 68.9219 189.867 68.9219C189.659 68.8958 189.477 68.8828 189.32 68.8828C188.852 68.8307 188.617 68.5573 188.617 68.0625C188.617 67.6198 188.773 67.3984 189.086 67.3984C189.138 67.3984 189.294 67.4115 189.555 67.4375C189.815 67.4635 190.18 67.4896 190.648 67.5156C191.143 67.5417 191.664 67.5547 192.211 67.5547C192.784 67.5547 193.305 67.5417 193.773 67.5156C194.268 67.4896 194.646 67.4635 194.906 67.4375C195.193 67.4115 195.362 67.3984 195.414 67.3984ZM210.453 82.6719C210.427 82.6719 210.31 82.75 210.102 82.9062C209.919 83.0365 209.659 83.2057 209.32 83.4141C209.008 83.5964 208.643 83.7917 208.227 84C207.81 84.1823 207.302 84.3385 206.703 84.4688C206.104 84.625 205.492 84.7031 204.867 84.7031C203.227 84.7031 201.859 84.1953 200.766 83.1797C199.672 82.1641 199.008 80.7448 198.773 78.9219C198.695 78.1406 198.656 77.3203 198.656 76.4609C198.656 75.9661 198.656 74.8203 198.656 73.0234C198.682 71.2005 198.695 70.2109 198.695 70.0547C198.695 69.5599 198.331 69.1823 197.602 68.9219C197.471 68.8698 197.263 68.8047 196.977 68.7266C196.716 68.6484 196.547 68.5703 196.469 68.4922C196.391 68.4141 196.352 68.2708 196.352 68.0625V67.9453C196.352 67.6068 196.495 67.4245 196.781 67.3984C199.438 67.2422 200.831 67.1641 200.961 67.1641C201.221 67.1641 201.352 67.3203 201.352 67.6328V75.8359C201.352 77.5807 201.599 78.9609 202.094 79.9766C202.458 80.6797 203.005 81.3047 203.734 81.8516C204.49 82.3724 205.349 82.6328 206.312 82.6328C207.615 82.6328 208.747 82.151 209.711 81.1875C209.763 81.1094 209.828 81.0312 209.906 80.9531C210.01 80.849 210.076 80.7839 210.102 80.7578C210.128 80.7057 210.167 80.6536 210.219 80.6016C210.271 80.5495 210.297 80.5104 210.297 80.4844C210.323 80.4323 210.349 80.3802 210.375 80.3281C210.401 80.276 210.414 80.237 210.414 80.2109C210.414 80.1589 210.414 80.0938 210.414 80.0156V70.1719C210.414 69.599 210.154 69.2344 209.633 69.0781C209.503 69.026 208.878 68.9089 207.758 68.7266C207.367 68.6484 207.172 68.4271 207.172 68.0625C207.172 67.6719 207.354 67.4505 207.719 67.3984C208.578 67.3724 209.346 67.3464 210.023 67.3203C210.727 67.2943 211.208 67.2812 211.469 67.2812C211.755 67.2552 211.99 67.2422 212.172 67.2422C212.38 67.2422 212.536 67.2422 212.641 67.2422C213.031 67.2422 213.227 67.5026 213.227 68.0234V80.5625C213.227 80.6406 213.227 80.7057 213.227 80.7578C213.253 80.7839 213.279 80.8229 213.305 80.875C213.357 80.901 213.409 80.9271 213.461 80.9531C213.513 80.9792 213.591 81.0182 213.695 81.0703C213.799 81.1224 213.917 81.1745 214.047 81.2266C214.177 81.2786 214.346 81.3568 214.555 81.4609C214.763 81.5651 214.984 81.6693 215.219 81.7734C215.453 81.8776 215.57 82.0339 215.57 82.2422C215.57 82.5286 215.505 82.724 215.375 82.8281C215.271 82.9323 215.102 83.0104 214.867 83.0625C214.633 83.0885 214.203 83.2188 213.578 83.4531C212.953 83.6615 212.276 83.974 211.547 84.3906C211.391 84.4948 211.247 84.5469 211.117 84.5469C210.753 84.5469 210.57 84.2865 210.57 83.7656V82.8281C210.57 82.724 210.531 82.6719 210.453 82.6719ZM226.273 82.9062C227.966 82.9062 229.438 82.2682 230.688 80.9922C231.964 79.7161 232.602 78.1146 232.602 76.1875C232.602 74.2865 231.964 72.6328 230.688 71.2266C229.438 69.8203 228.005 69.1172 226.391 69.1172C225.401 69.1172 224.516 69.4036 223.734 69.9766C222.979 70.4974 222.602 71.3177 222.602 72.4375V81.0312C222.602 81.5521 222.94 81.9688 223.617 82.2812C224.451 82.6979 225.336 82.9062 226.273 82.9062ZM227.719 66.7734C229.906 66.7734 231.703 67.6198 233.109 69.3125C234.542 71.0052 235.258 73.0365 235.258 75.4062C235.258 78.0365 234.372 80.1719 232.602 81.8125C230.831 83.4531 228.552 84.2734 225.766 84.2734C225.505 84.2734 225.245 84.2604 224.984 84.2344C224.724 84.2344 224.49 84.2214 224.281 84.1953C224.073 84.1693 223.891 84.1432 223.734 84.1172C223.578 84.0911 223.448 84.0781 223.344 84.0781L223.188 84.0391C223.005 84.0391 222.914 84.1823 222.914 84.4688V89.9766V90.0938C222.914 90.7188 223.214 91.0573 223.812 91.1094C224.073 91.1354 224.372 91.1615 224.711 91.1875C225.076 91.2135 225.336 91.2266 225.492 91.2266C225.648 91.2526 225.831 91.2786 226.039 91.3047C226.247 91.3307 226.391 91.3698 226.469 91.4219C226.573 91.474 226.664 91.5391 226.742 91.6172C226.846 91.6953 226.911 91.7865 226.938 91.8906C226.964 92.0208 226.977 92.1771 226.977 92.3594C226.977 92.75 226.82 92.9453 226.508 92.9453C226.456 92.9453 226.26 92.9323 225.922 92.9062C225.609 92.8802 225.167 92.8542 224.594 92.8281C224.021 92.8021 223.409 92.7891 222.758 92.7891C221.898 92.7891 221.039 92.8151 220.18 92.8672C219.346 92.9193 218.682 92.9714 218.188 93.0234L217.445 93.1016C217.003 93.1016 216.781 92.8411 216.781 92.3203C216.781 92.2422 216.781 92.1641 216.781 92.0859C216.807 92.0339 216.833 91.9818 216.859 91.9297C216.911 91.9036 216.951 91.8646 216.977 91.8125C217.003 91.7865 217.055 91.7474 217.133 91.6953C217.237 91.6693 217.315 91.6432 217.367 91.6172C217.445 91.6172 217.549 91.5911 217.68 91.5391C217.836 91.513 217.966 91.487 218.07 91.4609C218.201 91.4609 218.37 91.4349 218.578 91.3828C218.786 91.3307 218.969 91.2917 219.125 91.2656C219.698 91.1615 219.984 90.7969 219.984 90.1719V71.6953V71.6172C219.984 71.2005 219.815 70.9271 219.477 70.7969C219.112 70.6406 218.669 70.4453 218.148 70.2109C217.471 69.9245 217.068 69.7422 216.938 69.6641C216.833 69.5859 216.781 69.4948 216.781 69.3906V69.3516C216.781 69.2474 217.367 68.8568 218.539 68.1797C219.477 67.6328 220.323 67.138 221.078 66.6953C221.156 66.6432 221.234 66.6042 221.312 66.5781C221.391 66.526 221.443 66.487 221.469 66.4609C221.521 66.4089 221.56 66.3828 221.586 66.3828C221.638 66.3568 221.69 66.3438 221.742 66.3438C221.951 66.3438 222.055 66.5 222.055 66.8125V69.1562C222.055 69.3125 222.107 69.3906 222.211 69.3906L222.719 68.8438C223.057 68.4792 223.591 68.0885 224.32 67.6719C225.049 67.2292 225.87 66.9427 226.781 66.8125C226.99 66.7865 227.302 66.7734 227.719 66.7734ZM236.898 75.7578C236.898 73.0495 237.615 70.875 239.047 69.2344C240.479 67.5938 242.224 66.7734 244.281 66.7734C245.609 66.7734 246.885 67.138 248.109 67.8672C249.333 68.5964 250.349 69.5078 251.156 70.6016C251.365 70.862 251.469 71.1484 251.469 71.4609V71.5391C251.469 71.7734 251.404 71.9818 251.273 72.1641C251.143 72.3464 250.935 72.5156 250.648 72.6719C250.362 72.8021 250.115 72.9062 249.906 72.9844C249.698 73.0625 249.385 73.1667 248.969 73.2969C248.578 73.4271 248.331 73.5052 248.227 73.5312C242.784 75.4062 239.997 76.3828 239.867 76.4609C239.763 76.513 239.711 76.5911 239.711 76.6953C239.711 76.8516 239.75 77.112 239.828 77.4766C239.906 77.8411 240.076 78.3229 240.336 78.9219C240.622 79.5208 240.961 80.0807 241.352 80.6016C241.768 81.0964 242.354 81.5391 243.109 81.9297C243.865 82.2943 244.711 82.4766 245.648 82.4766C247.471 82.4766 249.06 81.8255 250.414 80.5234C250.779 80.1589 251.078 79.9766 251.312 79.9766C251.755 79.9766 251.977 80.1719 251.977 80.5625C251.977 80.7188 251.872 80.9271 251.664 81.1875C250.831 82.2812 249.789 83.1536 248.539 83.8047C247.289 84.4297 245.974 84.7422 244.594 84.7422C243.708 84.7422 242.836 84.5859 241.977 84.2734C241.143 83.9609 240.323 83.4792 239.516 82.8281C238.734 82.1771 238.096 81.2396 237.602 80.0156C237.133 78.7917 236.898 77.3724 236.898 75.7578ZM247.602 71.6172C247.602 71.2786 247.146 70.7578 246.234 70.0547C245.323 69.3255 244.372 68.9609 243.383 68.9609C242.211 68.9609 241.273 69.4688 240.57 70.4844C239.893 71.5 239.555 72.8932 239.555 74.6641C239.555 74.8724 239.62 74.9766 239.75 74.9766C239.802 74.9766 241.039 74.5078 243.461 73.5703C245.909 72.6068 247.172 72.112 247.25 72.0859C247.484 71.9557 247.602 71.7995 247.602 71.6172ZM257.953 68.9219C257.953 69.026 257.992 69.0781 258.07 69.0781H258.109C258.135 69.0781 258.227 69 258.383 68.8438C258.565 68.6875 258.812 68.4922 259.125 68.2578C259.438 68.0234 259.802 67.7891 260.219 67.5547C260.635 67.3203 261.143 67.125 261.742 66.9688C262.341 66.7865 262.966 66.6953 263.617 66.6953H263.695C264.242 66.6953 264.776 66.7734 265.297 66.9297C265.844 67.0599 266.417 67.3203 267.016 67.7109C267.641 68.0755 268.161 68.6615 268.578 69.4688C268.995 70.276 269.255 71.2656 269.359 72.4375C269.411 72.8802 269.438 73.5573 269.438 74.4688C269.438 74.5729 269.438 74.8333 269.438 75.25C269.438 75.6406 269.424 76.3568 269.398 77.3984C269.398 78.4401 269.398 79.7682 269.398 81.3828V81.4609C269.398 81.5911 269.411 81.7214 269.438 81.8516C269.464 81.9557 269.477 82.0469 269.477 82.125C269.503 82.1771 269.555 82.2422 269.633 82.3203C269.711 82.3724 269.763 82.4115 269.789 82.4375C269.841 82.4635 269.932 82.5026 270.062 82.5547C270.219 82.5807 270.323 82.5938 270.375 82.5938C270.453 82.5938 270.596 82.6068 270.805 82.6328C271.039 82.6589 271.208 82.6849 271.312 82.7109C271.703 82.763 271.898 83.0104 271.898 83.4531C271.898 83.974 271.69 84.2344 271.273 84.2344C271.195 84.2344 271.013 84.2083 270.727 84.1562C270.44 84.1302 270.036 84.0911 269.516 84.0391C269.021 84.013 268.487 84 267.914 84C267.576 84 267.237 84 266.898 84C266.56 84.026 266.26 84.0521 266 84.0781C265.766 84.1042 265.544 84.1302 265.336 84.1562C265.128 84.1823 264.958 84.2083 264.828 84.2344H264.633C264.268 84.2344 264.086 83.974 264.086 83.4531C264.086 83.1667 264.164 82.9844 264.32 82.9062C264.477 82.8281 264.893 82.737 265.57 82.6328C265.805 82.5807 266 82.5417 266.156 82.5156C266.417 82.4635 266.586 82.3854 266.664 82.2812C266.768 82.151 266.82 81.9167 266.82 81.5781V75.3672C266.82 73.4141 266.638 71.9688 266.273 71.0312C265.883 70.1458 265.297 69.5339 264.516 69.1953C263.734 68.8307 262.992 68.6484 262.289 68.6484C261.273 68.6484 260.362 68.9609 259.555 69.5859C258.747 70.2109 258.292 70.7578 258.188 71.2266C258.135 71.4349 258.109 71.6172 258.109 71.7734V81.2266V81.3438C258.109 82.0208 258.409 82.3984 259.008 82.4766C260.18 82.6589 260.818 82.8021 260.922 82.9062C261.078 83.0365 261.156 83.2578 261.156 83.5703C261.156 84.0391 260.987 84.2734 260.648 84.2734C260.622 84.2734 260.531 84.2604 260.375 84.2344C260.245 84.2344 260.062 84.2214 259.828 84.1953C259.594 84.1693 259.333 84.1302 259.047 84.0781C258.76 84.0521 258.422 84.026 258.031 84C257.667 84 257.302 84 256.938 84C256.573 84 256.208 84 255.844 84C255.479 84.026 255.154 84.0521 254.867 84.0781C254.607 84.1042 254.372 84.1302 254.164 84.1562C253.956 84.1823 253.786 84.1953 253.656 84.1953C253.526 84.2214 253.448 84.2344 253.422 84.2344C252.979 84.2344 252.758 84 252.758 83.5312C252.758 83.1667 252.836 82.9453 252.992 82.8672C253.174 82.763 253.617 82.6589 254.32 82.5547C254.789 82.4766 255.076 82.3333 255.18 82.125C255.31 81.9167 255.375 81.6042 255.375 81.1875V71.6562C255.375 71.1875 255.31 70.875 255.18 70.7188C255.049 70.5365 254.516 70.0938 253.578 69.3906C253.422 69.2344 253.344 69.1042 253.344 69V68.9609C253.344 68.8307 253.435 68.7135 253.617 68.6094C253.799 68.4792 254.359 68.1667 255.297 67.6719C256.026 67.2812 256.638 66.9557 257.133 66.6953C257.289 66.5911 257.419 66.5391 257.523 66.5391C257.836 66.5391 257.992 66.7344 257.992 67.125V68.6875C257.992 68.7135 257.979 68.7656 257.953 68.8438V68.9219ZM279.711 68.0234C278.695 68.0234 277.862 68.4401 277.211 69.2734C276.56 70.0807 276.234 71.1354 276.234 72.4375C276.234 73.974 276.625 75.3021 277.406 76.4219C278.188 77.5417 279.177 78.1016 280.375 78.1016C281.443 78.1016 282.302 77.6849 282.953 76.8516C283.604 75.9922 283.93 74.9375 283.93 73.6875C283.93 72.2031 283.526 70.888 282.719 69.7422C281.938 68.5964 280.935 68.0234 279.711 68.0234ZM275.57 87.5156C275.57 88.6875 276.182 89.638 277.406 90.3672C278.656 91.0964 280.219 91.4609 282.094 91.4609C283.943 91.4609 285.245 91.1615 286 90.5625C286.781 89.9896 287.172 89.3255 287.172 88.5703C287.172 87.4766 286.638 86.6823 285.57 86.1875C285.023 85.901 284.385 85.7057 283.656 85.6016C282.927 85.5234 281.898 85.4583 280.57 85.4062C279.268 85.3802 278.122 85.3151 277.133 85.2109H277.016C276.833 85.2109 276.599 85.3542 276.312 85.6406C275.818 86.1354 275.57 86.7604 275.57 87.5156ZM273.148 72.9062C273.148 71.2135 273.76 69.7552 274.984 68.5312C276.234 67.3073 277.771 66.6953 279.594 66.6953C280.714 66.6953 281.794 66.9297 282.836 67.3984C283.904 67.8672 284.503 68.1016 284.633 68.1016C285.466 68.1016 286.169 67.6849 286.742 66.8516C287.133 66.2266 287.51 65.9141 287.875 65.9141C288.24 65.9141 288.578 66.0964 288.891 66.4609C289.229 66.7995 289.398 67.1641 289.398 67.5547C289.398 68.0234 289.19 68.4271 288.773 68.7656C288.383 69.1042 287.914 69.3906 287.367 69.625C286.846 69.8333 286.573 69.9505 286.547 69.9766C286.417 70.1068 286.352 70.2109 286.352 70.2891C286.352 70.3411 286.391 70.4714 286.469 70.6797C286.547 70.888 286.625 71.1875 286.703 71.5781C286.781 71.9427 286.82 72.3464 286.82 72.7891C286.82 74.638 286.169 76.2266 284.867 77.5547C283.591 78.8568 282.029 79.5078 280.18 79.5078C279.659 79.5078 279.164 79.4557 278.695 79.3516C278.227 79.2214 277.94 79.1562 277.836 79.1562C277.471 79.1562 277.081 79.3906 276.664 79.8594C276.247 80.3021 276.039 80.7448 276.039 81.1875C276.039 81.8906 276.599 82.3594 277.719 82.5938C278.865 82.8281 280.31 82.9714 282.055 83.0234C283.826 83.0755 285.089 83.2188 285.844 83.4531C287.042 83.7917 287.94 84.3646 288.539 85.1719C289.164 86.0052 289.477 86.9036 289.477 87.8672C289.477 88.4661 289.346 89.0651 289.086 89.6641C288.826 90.263 288.396 90.849 287.797 91.4219C287.224 91.9948 286.365 92.4635 285.219 92.8281C284.073 93.1927 282.719 93.375 281.156 93.375C278.266 93.375 276.234 92.8411 275.062 91.7734C273.917 90.7318 273.344 89.5859 273.344 88.3359C273.344 88.0755 273.37 87.8151 273.422 87.5547C273.474 87.3203 273.539 87.099 273.617 86.8906C273.695 86.7083 273.773 86.526 273.852 86.3438C273.956 86.1875 274.06 86.0312 274.164 85.875C274.294 85.7448 274.411 85.6276 274.516 85.5234C274.646 85.4193 274.763 85.3281 274.867 85.25C274.971 85.1719 275.062 85.0938 275.141 85.0156C275.219 84.9635 275.284 84.9245 275.336 84.8984L275.414 84.8594C275.466 84.8073 275.492 84.7422 275.492 84.6641C275.492 84.638 275.362 84.5469 275.102 84.3906C274.867 84.2344 274.62 83.974 274.359 83.6094C274.125 83.2448 274.008 82.8021 274.008 82.2812C274.008 81.0052 274.75 79.7682 276.234 78.5703L276.273 78.5312C276.299 78.5052 276.312 78.4661 276.312 78.4141C276.312 78.3099 276.195 78.1927 275.961 78.0625C275.727 77.9323 275.401 77.6849 274.984 77.3203C274.594 76.9297 274.229 76.4349 273.891 75.8359C273.396 74.9505 273.148 73.974 273.148 72.9062Z" fill="#1051F7"/>
<path d="M195.414 67.3984C195.805 67.3984 196 67.6198 196 68.0625C196 68.2708 195.961 68.4401 195.883 68.5703C195.831 68.7005 195.753 68.7917 195.648 68.8438C195.544 68.8698 195.44 68.8958 195.336 68.9219C195.258 68.9479 195.141 68.9609 194.984 68.9609C194.854 68.9609 194.776 68.9609 194.75 68.9609C194.281 69.0651 193.943 69.4688 193.734 70.1719C193.552 70.849 192.992 72.4896 192.055 75.0938C191.117 77.6719 189.737 80.6406 187.914 84C187.549 84.6771 187.172 85.0156 186.781 85.0156C186.469 85.0156 186.169 84.8073 185.883 84.3906C185.622 83.974 185.128 83.1016 184.398 81.7734C184.112 81.2526 183.891 80.8359 183.734 80.5234C182.016 77.2682 181.13 75.6276 181.078 75.6016C181 75.6016 180.466 76.6562 179.477 78.7656C177.602 82.5417 176.599 84.4948 176.469 84.625C176.26 84.8854 176.026 85.0156 175.766 85.0156C175.349 85.0156 174.958 84.6641 174.594 83.9609C173.318 81.5651 172.159 79.2083 171.117 76.8906C170.076 74.5729 169.294 72.776 168.773 71.5C168.279 70.1979 168.018 69.5339 167.992 69.5078C167.862 69.2474 167.68 69.0781 167.445 69C167.237 68.8958 167.042 68.8568 166.859 68.8828C166.703 68.8828 166.56 68.8307 166.43 68.7266C166.299 68.5964 166.234 68.375 166.234 68.0625C166.234 67.6198 166.482 67.3984 166.977 67.3984C167.029 67.3984 167.172 67.4115 167.406 67.4375C167.667 67.4375 168.018 67.4505 168.461 67.4766C168.904 67.5026 169.385 67.5156 169.906 67.5156H170.023C170.518 67.5156 170.987 67.5026 171.43 67.4766C171.872 67.4505 172.211 67.4375 172.445 67.4375C172.706 67.4115 172.862 67.3984 172.914 67.3984C173.227 67.3984 173.383 67.6198 173.383 68.0625C173.383 68.5833 172.966 68.8568 172.133 68.8828C171.326 68.9089 170.922 69.1172 170.922 69.5078C170.922 69.7161 171 69.9766 171.156 70.2891C172.432 73.6224 173.93 76.9688 175.648 80.3281C175.753 80.5365 175.883 80.6406 176.039 80.6406C176.117 80.6406 176.182 80.6146 176.234 80.5625C176.312 80.5104 176.365 80.4714 176.391 80.4453C176.417 80.3932 176.43 80.3542 176.43 80.3281C177.185 79.1823 177.966 77.8151 178.773 76.2266C179.607 74.612 180.036 73.6484 180.062 73.3359V73.2969C180.062 73.1667 179.841 72.6198 179.398 71.6562C178.956 70.6667 178.682 70.0938 178.578 69.9375C178.344 69.599 178.044 69.3646 177.68 69.2344C177.315 69.0781 176.977 69.013 176.664 69.0391C176.378 69.0391 176.117 69 175.883 68.9219C175.674 68.8177 175.57 68.6224 175.57 68.3359C175.57 67.7109 175.779 67.3984 176.195 67.3984C176.273 67.3984 176.482 67.4115 176.82 67.4375C177.185 67.4375 177.68 67.4505 178.305 67.4766C178.93 67.5026 179.607 67.5156 180.336 67.5156C181.065 67.5156 181.729 67.5026 182.328 67.4766C182.953 67.4505 183.435 67.4375 183.773 67.4375C184.138 67.4115 184.359 67.3984 184.438 67.3984C184.802 67.3984 184.984 67.5938 184.984 67.9844V68.2578C184.984 68.5182 184.919 68.6745 184.789 68.7266C184.685 68.7786 184.294 68.8307 183.617 68.8828C183.227 68.9089 182.914 68.9349 182.68 68.9609C182.055 69.013 181.742 69.2865 181.742 69.7812C181.742 70.224 182.276 71.5781 183.344 73.8438C184.411 76.1094 185.544 78.1797 186.742 80.0547C186.951 80.4193 187.172 80.6016 187.406 80.6016C187.641 80.6016 187.797 80.4844 187.875 80.25C188.734 78.7396 189.477 77.138 190.102 75.4453C190.753 73.7526 191.182 72.4635 191.391 71.5781C191.625 70.6667 191.742 70.0938 191.742 69.8594C191.742 69.7552 191.729 69.6641 191.703 69.5859C191.703 69.4818 191.677 69.4036 191.625 69.3516C191.573 69.2995 191.521 69.2474 191.469 69.1953C191.443 69.1432 191.378 69.1042 191.273 69.0781C191.195 69.0521 191.117 69.0391 191.039 69.0391C190.961 69.013 190.844 69 190.688 69C190.557 68.974 190.44 68.9609 190.336 68.9609C190.232 68.9349 190.076 68.9219 189.867 68.9219C189.659 68.8958 189.477 68.8828 189.32 68.8828C188.852 68.8307 188.617 68.5573 188.617 68.0625C188.617 67.6198 188.773 67.3984 189.086 67.3984C189.138 67.3984 189.294 67.4115 189.555 67.4375C189.815 67.4635 190.18 67.4896 190.648 67.5156C191.143 67.5417 191.664 67.5547 192.211 67.5547C192.784 67.5547 193.305 67.5417 193.773 67.5156C194.268 67.4896 194.646 67.4635 194.906 67.4375C195.193 67.4115 195.362 67.3984 195.414 67.3984ZM210.453 82.6719C210.427 82.6719 210.31 82.75 210.102 82.9062C209.919 83.0365 209.659 83.2057 209.32 83.4141C209.008 83.5964 208.643 83.7917 208.227 84C207.81 84.1823 207.302 84.3385 206.703 84.4688C206.104 84.625 205.492 84.7031 204.867 84.7031C203.227 84.7031 201.859 84.1953 200.766 83.1797C199.672 82.1641 199.008 80.7448 198.773 78.9219C198.695 78.1406 198.656 77.3203 198.656 76.4609C198.656 75.9661 198.656 74.8203 198.656 73.0234C198.682 71.2005 198.695 70.2109 198.695 70.0547C198.695 69.5599 198.331 69.1823 197.602 68.9219C197.471 68.8698 197.263 68.8047 196.977 68.7266C196.716 68.6484 196.547 68.5703 196.469 68.4922C196.391 68.4141 196.352 68.2708 196.352 68.0625V67.9453C196.352 67.6068 196.495 67.4245 196.781 67.3984C199.438 67.2422 200.831 67.1641 200.961 67.1641C201.221 67.1641 201.352 67.3203 201.352 67.6328V75.8359C201.352 77.5807 201.599 78.9609 202.094 79.9766C202.458 80.6797 203.005 81.3047 203.734 81.8516C204.49 82.3724 205.349 82.6328 206.312 82.6328C207.615 82.6328 208.747 82.151 209.711 81.1875C209.763 81.1094 209.828 81.0312 209.906 80.9531C210.01 80.849 210.076 80.7839 210.102 80.7578C210.128 80.7057 210.167 80.6536 210.219 80.6016C210.271 80.5495 210.297 80.5104 210.297 80.4844C210.323 80.4323 210.349 80.3802 210.375 80.3281C210.401 80.276 210.414 80.237 210.414 80.2109C210.414 80.1589 210.414 80.0938 210.414 80.0156V70.1719C210.414 69.599 210.154 69.2344 209.633 69.0781C209.503 69.026 208.878 68.9089 207.758 68.7266C207.367 68.6484 207.172 68.4271 207.172 68.0625C207.172 67.6719 207.354 67.4505 207.719 67.3984C208.578 67.3724 209.346 67.3464 210.023 67.3203C210.727 67.2943 211.208 67.2812 211.469 67.2812C211.755 67.2552 211.99 67.2422 212.172 67.2422C212.38 67.2422 212.536 67.2422 212.641 67.2422C213.031 67.2422 213.227 67.5026 213.227 68.0234V80.5625C213.227 80.6406 213.227 80.7057 213.227 80.7578C213.253 80.7839 213.279 80.8229 213.305 80.875C213.357 80.901 213.409 80.9271 213.461 80.9531C213.513 80.9792 213.591 81.0182 213.695 81.0703C213.799 81.1224 213.917 81.1745 214.047 81.2266C214.177 81.2786 214.346 81.3568 214.555 81.4609C214.763 81.5651 214.984 81.6693 215.219 81.7734C215.453 81.8776 215.57 82.0339 215.57 82.2422C215.57 82.5286 215.505 82.724 215.375 82.8281C215.271 82.9323 215.102 83.0104 214.867 83.0625C214.633 83.0885 214.203 83.2188 213.578 83.4531C212.953 83.6615 212.276 83.974 211.547 84.3906C211.391 84.4948 211.247 84.5469 211.117 84.5469C210.753 84.5469 210.57 84.2865 210.57 83.7656V82.8281C210.57 82.724 210.531 82.6719 210.453 82.6719ZM226.273 82.9062C227.966 82.9062 229.438 82.2682 230.688 80.9922C231.964 79.7161 232.602 78.1146 232.602 76.1875C232.602 74.2865 231.964 72.6328 230.688 71.2266C229.438 69.8203 228.005 69.1172 226.391 69.1172C225.401 69.1172 224.516 69.4036 223.734 69.9766C222.979 70.4974 222.602 71.3177 222.602 72.4375V81.0312C222.602 81.5521 222.94 81.9688 223.617 82.2812C224.451 82.6979 225.336 82.9062 226.273 82.9062ZM227.719 66.7734C229.906 66.7734 231.703 67.6198 233.109 69.3125C234.542 71.0052 235.258 73.0365 235.258 75.4062C235.258 78.0365 234.372 80.1719 232.602 81.8125C230.831 83.4531 228.552 84.2734 225.766 84.2734C225.505 84.2734 225.245 84.2604 224.984 84.2344C224.724 84.2344 224.49 84.2214 224.281 84.1953C224.073 84.1693 223.891 84.1432 223.734 84.1172C223.578 84.0911 223.448 84.0781 223.344 84.0781L223.188 84.0391C223.005 84.0391 222.914 84.1823 222.914 84.4688V89.9766V90.0938C222.914 90.7188 223.214 91.0573 223.812 91.1094C224.073 91.1354 224.372 91.1615 224.711 91.1875C225.076 91.2135 225.336 91.2266 225.492 91.2266C225.648 91.2526 225.831 91.2786 226.039 91.3047C226.247 91.3307 226.391 91.3698 226.469 91.4219C226.573 91.474 226.664 91.5391 226.742 91.6172C226.846 91.6953 226.911 91.7865 226.938 91.8906C226.964 92.0208 226.977 92.1771 226.977 92.3594C226.977 92.75 226.82 92.9453 226.508 92.9453C226.456 92.9453 226.26 92.9323 225.922 92.9062C225.609 92.8802 225.167 92.8542 224.594 92.8281C224.021 92.8021 223.409 92.7891 222.758 92.7891C221.898 92.7891 221.039 92.8151 220.18 92.8672C219.346 92.9193 218.682 92.9714 218.188 93.0234L217.445 93.1016C217.003 93.1016 216.781 92.8411 216.781 92.3203C216.781 92.2422 216.781 92.1641 216.781 92.0859C216.807 92.0339 216.833 91.9818 216.859 91.9297C216.911 91.9036 216.951 91.8646 216.977 91.8125C217.003 91.7865 217.055 91.7474 217.133 91.6953C217.237 91.6693 217.315 91.6432 217.367 91.6172C217.445 91.6172 217.549 91.5911 217.68 91.5391C217.836 91.513 217.966 91.487 218.07 91.4609C218.201 91.4609 218.37 91.4349 218.578 91.3828C218.786 91.3307 218.969 91.2917 219.125 91.2656C219.698 91.1615 219.984 90.7969 219.984 90.1719V71.6953V71.6172C219.984 71.2005 219.815 70.9271 219.477 70.7969C219.112 70.6406 218.669 70.4453 218.148 70.2109C217.471 69.9245 217.068 69.7422 216.938 69.6641C216.833 69.5859 216.781 69.4948 216.781 69.3906V69.3516C216.781 69.2474 217.367 68.8568 218.539 68.1797C219.477 67.6328 220.323 67.138 221.078 66.6953C221.156 66.6432 221.234 66.6042 221.312 66.5781C221.391 66.526 221.443 66.487 221.469 66.4609C221.521 66.4089 221.56 66.3828 221.586 66.3828C221.638 66.3568 221.69 66.3438 221.742 66.3438C221.951 66.3438 222.055 66.5 222.055 66.8125V69.1562C222.055 69.3125 222.107 69.3906 222.211 69.3906L222.719 68.8438C223.057 68.4792 223.591 68.0885 224.32 67.6719C225.049 67.2292 225.87 66.9427 226.781 66.8125C226.99 66.7865 227.302 66.7734 227.719 66.7734ZM236.898 75.7578C236.898 73.0495 237.615 70.875 239.047 69.2344C240.479 67.5938 242.224 66.7734 244.281 66.7734C245.609 66.7734 246.885 67.138 248.109 67.8672C249.333 68.5964 250.349 69.5078 251.156 70.6016C251.365 70.862 251.469 71.1484 251.469 71.4609V71.5391C251.469 71.7734 251.404 71.9818 251.273 72.1641C251.143 72.3464 250.935 72.5156 250.648 72.6719C250.362 72.8021 250.115 72.9062 249.906 72.9844C249.698 73.0625 249.385 73.1667 248.969 73.2969C248.578 73.4271 248.331 73.5052 248.227 73.5312C242.784 75.4062 239.997 76.3828 239.867 76.4609C239.763 76.513 239.711 76.5911 239.711 76.6953C239.711 76.8516 239.75 77.112 239.828 77.4766C239.906 77.8411 240.076 78.3229 240.336 78.9219C240.622 79.5208 240.961 80.0807 241.352 80.6016C241.768 81.0964 242.354 81.5391 243.109 81.9297C243.865 82.2943 244.711 82.4766 245.648 82.4766C247.471 82.4766 249.06 81.8255 250.414 80.5234C250.779 80.1589 251.078 79.9766 251.312 79.9766C251.755 79.9766 251.977 80.1719 251.977 80.5625C251.977 80.7188 251.872 80.9271 251.664 81.1875C250.831 82.2812 249.789 83.1536 248.539 83.8047C247.289 84.4297 245.974 84.7422 244.594 84.7422C243.708 84.7422 242.836 84.5859 241.977 84.2734C241.143 83.9609 240.323 83.4792 239.516 82.8281C238.734 82.1771 238.096 81.2396 237.602 80.0156C237.133 78.7917 236.898 77.3724 236.898 75.7578ZM247.602 71.6172C247.602 71.2786 247.146 70.7578 246.234 70.0547C245.323 69.3255 244.372 68.9609 243.383 68.9609C242.211 68.9609 241.273 69.4688 240.57 70.4844C239.893 71.5 239.555 72.8932 239.555 74.6641C239.555 74.8724 239.62 74.9766 239.75 74.9766C239.802 74.9766 241.039 74.5078 243.461 73.5703C245.909 72.6068 247.172 72.112 247.25 72.0859C247.484 71.9557 247.602 71.7995 247.602 71.6172ZM257.953 68.9219C257.953 69.026 257.992 69.0781 258.07 69.0781H258.109C258.135 69.0781 258.227 69 258.383 68.8438C258.565 68.6875 258.812 68.4922 259.125 68.2578C259.438 68.0234 259.802 67.7891 260.219 67.5547C260.635 67.3203 261.143 67.125 261.742 66.9688C262.341 66.7865 262.966 66.6953 263.617 66.6953H263.695C264.242 66.6953 264.776 66.7734 265.297 66.9297C265.844 67.0599 266.417 67.3203 267.016 67.7109C267.641 68.0755 268.161 68.6615 268.578 69.4688C268.995 70.276 269.255 71.2656 269.359 72.4375C269.411 72.8802 269.438 73.5573 269.438 74.4688C269.438 74.5729 269.438 74.8333 269.438 75.25C269.438 75.6406 269.424 76.3568 269.398 77.3984C269.398 78.4401 269.398 79.7682 269.398 81.3828V81.4609C269.398 81.5911 269.411 81.7214 269.438 81.8516C269.464 81.9557 269.477 82.0469 269.477 82.125C269.503 82.1771 269.555 82.2422 269.633 82.3203C269.711 82.3724 269.763 82.4115 269.789 82.4375C269.841 82.4635 269.932 82.5026 270.062 82.5547C270.219 82.5807 270.323 82.5938 270.375 82.5938C270.453 82.5938 270.596 82.6068 270.805 82.6328C271.039 82.6589 271.208 82.6849 271.312 82.7109C271.703 82.763 271.898 83.0104 271.898 83.4531C271.898 83.974 271.69 84.2344 271.273 84.2344C271.195 84.2344 271.013 84.2083 270.727 84.1562C270.44 84.1302 270.036 84.0911 269.516 84.0391C269.021 84.013 268.487 84 267.914 84C267.576 84 267.237 84 266.898 84C266.56 84.026 266.26 84.0521 266 84.0781C265.766 84.1042 265.544 84.1302 265.336 84.1562C265.128 84.1823 264.958 84.2083 264.828 84.2344H264.633C264.268 84.2344 264.086 83.974 264.086 83.4531C264.086 83.1667 264.164 82.9844 264.32 82.9062C264.477 82.8281 264.893 82.737 265.57 82.6328C265.805 82.5807 266 82.5417 266.156 82.5156C266.417 82.4635 266.586 82.3854 266.664 82.2812C266.768 82.151 266.82 81.9167 266.82 81.5781V75.3672C266.82 73.4141 266.638 71.9688 266.273 71.0312C265.883 70.1458 265.297 69.5339 264.516 69.1953C263.734 68.8307 262.992 68.6484 262.289 68.6484C261.273 68.6484 260.362 68.9609 259.555 69.5859C258.747 70.2109 258.292 70.7578 258.188 71.2266C258.135 71.4349 258.109 71.6172 258.109 71.7734V81.2266V81.3438C258.109 82.0208 258.409 82.3984 259.008 82.4766C260.18 82.6589 260.818 82.8021 260.922 82.9062C261.078 83.0365 261.156 83.2578 261.156 83.5703C261.156 84.0391 260.987 84.2734 260.648 84.2734C260.622 84.2734 260.531 84.2604 260.375 84.2344C260.245 84.2344 260.062 84.2214 259.828 84.1953C259.594 84.1693 259.333 84.1302 259.047 84.0781C258.76 84.0521 258.422 84.026 258.031 84C257.667 84 257.302 84 256.938 84C256.573 84 256.208 84 255.844 84C255.479 84.026 255.154 84.0521 254.867 84.0781C254.607 84.1042 254.372 84.1302 254.164 84.1562C253.956 84.1823 253.786 84.1953 253.656 84.1953C253.526 84.2214 253.448 84.2344 253.422 84.2344C252.979 84.2344 252.758 84 252.758 83.5312C252.758 83.1667 252.836 82.9453 252.992 82.8672C253.174 82.763 253.617 82.6589 254.32 82.5547C254.789 82.4766 255.076 82.3333 255.18 82.125C255.31 81.9167 255.375 81.6042 255.375 81.1875V71.6562C255.375 71.1875 255.31 70.875 255.18 70.7188C255.049 70.5365 254.516 70.0938 253.578 69.3906C253.422 69.2344 253.344 69.1042 253.344 69V68.9609C253.344 68.8307 253.435 68.7135 253.617 68.6094C253.799 68.4792 254.359 68.1667 255.297 67.6719C256.026 67.2812 256.638 66.9557 257.133 66.6953C257.289 66.5911 257.419 66.5391 257.523 66.5391C257.836 66.5391 257.992 66.7344 257.992 67.125V68.6875C257.992 68.7135 257.979 68.7656 257.953 68.8438V68.9219ZM279.711 68.0234C278.695 68.0234 277.862 68.4401 277.211 69.2734C276.56 70.0807 276.234 71.1354 276.234 72.4375C276.234 73.974 276.625 75.3021 277.406 76.4219C278.188 77.5417 279.177 78.1016 280.375 78.1016C281.443 78.1016 282.302 77.6849 282.953 76.8516C283.604 75.9922 283.93 74.9375 283.93 73.6875C283.93 72.2031 283.526 70.888 282.719 69.7422C281.938 68.5964 280.935 68.0234 279.711 68.0234ZM275.57 87.5156C275.57 88.6875 276.182 89.638 277.406 90.3672C278.656 91.0964 280.219 91.4609 282.094 91.4609C283.943 91.4609 285.245 91.1615 286 90.5625C286.781 89.9896 287.172 89.3255 287.172 88.5703C287.172 87.4766 286.638 86.6823 285.57 86.1875C285.023 85.901 284.385 85.7057 283.656 85.6016C282.927 85.5234 281.898 85.4583 280.57 85.4062C279.268 85.3802 278.122 85.3151 277.133 85.2109H277.016C276.833 85.2109 276.599 85.3542 276.312 85.6406C275.818 86.1354 275.57 86.7604 275.57 87.5156ZM273.148 72.9062C273.148 71.2135 273.76 69.7552 274.984 68.5312C276.234 67.3073 277.771 66.6953 279.594 66.6953C280.714 66.6953 281.794 66.9297 282.836 67.3984C283.904 67.8672 284.503 68.1016 284.633 68.1016C285.466 68.1016 286.169 67.6849 286.742 66.8516C287.133 66.2266 287.51 65.9141 287.875 65.9141C288.24 65.9141 288.578 66.0964 288.891 66.4609C289.229 66.7995 289.398 67.1641 289.398 67.5547C289.398 68.0234 289.19 68.4271 288.773 68.7656C288.383 69.1042 287.914 69.3906 287.367 69.625C286.846 69.8333 286.573 69.9505 286.547 69.9766C286.417 70.1068 286.352 70.2109 286.352 70.2891C286.352 70.3411 286.391 70.4714 286.469 70.6797C286.547 70.888 286.625 71.1875 286.703 71.5781C286.781 71.9427 286.82 72.3464 286.82 72.7891C286.82 74.638 286.169 76.2266 284.867 77.5547C283.591 78.8568 282.029 79.5078 280.18 79.5078C279.659 79.5078 279.164 79.4557 278.695 79.3516C278.227 79.2214 277.94 79.1562 277.836 79.1562C277.471 79.1562 277.081 79.3906 276.664 79.8594C276.247 80.3021 276.039 80.7448 276.039 81.1875C276.039 81.8906 276.599 82.3594 277.719 82.5938C278.865 82.8281 280.31 82.9714 282.055 83.0234C283.826 83.0755 285.089 83.2188 285.844 83.4531C287.042 83.7917 287.94 84.3646 288.539 85.1719C289.164 86.0052 289.477 86.9036 289.477 87.8672C289.477 88.4661 289.346 89.0651 289.086 89.6641C288.826 90.263 288.396 90.849 287.797 91.4219C287.224 91.9948 286.365 92.4635 285.219 92.8281C284.073 93.1927 282.719 93.375 281.156 93.375C278.266 93.375 276.234 92.8411 275.062 91.7734C273.917 90.7318 273.344 89.5859 273.344 88.3359C273.344 88.0755 273.37 87.8151 273.422 87.5547C273.474 87.3203 273.539 87.099 273.617 86.8906C273.695 86.7083 273.773 86.526 273.852 86.3438C273.956 86.1875 274.06 86.0312 274.164 85.875C274.294 85.7448 274.411 85.6276 274.516 85.5234C274.646 85.4193 274.763 85.3281 274.867 85.25C274.971 85.1719 275.062 85.0938 275.141 85.0156C275.219 84.9635 275.284 84.9245 275.336 84.8984L275.414 84.8594C275.466 84.8073 275.492 84.7422 275.492 84.6641C275.492 84.638 275.362 84.5469 275.102 84.3906C274.867 84.2344 274.62 83.974 274.359 83.6094C274.125 83.2448 274.008 82.8021 274.008 82.2812C274.008 81.0052 274.75 79.7682 276.234 78.5703L276.273 78.5312C276.299 78.5052 276.312 78.4661 276.312 78.4141C276.312 78.3099 276.195 78.1927 275.961 78.0625C275.727 77.9323 275.401 77.6849 274.984 77.3203C274.594 76.9297 274.229 76.4349 273.891 75.8359C273.396 74.9505 273.148 73.974 273.148 72.9062Z" fill="black" fill-opacity="0.2"/>
</svg>
