<svg width="20" height="20" xmlns="http://www.w3.org/2000/svg"><path d="M10.004 17.74c-1.497 0-2.804-.303-3.921-.909a6.328 6.328 0 01-2.588-2.578c-.609-1.113-.913-2.412-.913-3.897V9.82c0-1.478.317-2.79.952-3.935A6.707 6.707 0 016.21 3.213c1.15-.635 2.463-.952 3.94-.952h.079c1.38 0 2.615.285 3.706.854 1.09.57 1.943 1.358 2.558 2.364.615 1.005.923 2.146.923 3.422v.489c0 .872-.143 1.643-.43 2.314-.286.67-.687 1.193-1.2 1.567a2.942 2.942 0 01-1.778.562c-.606 0-1.126-.127-1.563-.38-.436-.255-.696-.587-.78-.997h-.099a1.579 1.579 0 01-.43.698 2.285 2.285 0 01-.785.498 2.67 2.67 0 01-.972.181c-.534 0-1-.13-1.397-.39-.397-.261-.703-.632-.918-1.114-.214-.482-.322-1.051-.322-1.709v-.976c0-.638.11-1.195.327-1.67.218-.476.53-.84.938-1.094.407-.254.884-.381 1.43-.381.482 0 .905.119 1.27.356.365.238.605.549.723.933h.078v-.254c0-.26.071-.467.215-.62.143-.153.338-.23.586-.23.24 0 .433.077.576.23.143.153.215.36.215.62v3.906c0 .333.1.598.302.796.202.199.466.298.791.298.345 0 .648-.133.909-.4.26-.267.46-.646.6-1.138.14-.491.21-1.066.21-1.724V8.95c0-1.022-.242-1.937-.727-2.744a5.068 5.068 0 00-2.022-1.894c-.863-.456-1.84-.684-2.934-.684h-.079c-1.185 0-2.233.26-3.144.781a5.409 5.409 0 00-2.124 2.202c-.505.948-.757 2.036-.757 3.267v.42c0 1.224.244 2.296.732 3.218a5.13 5.13 0 002.076 2.129c.895.498 1.938.747 3.13.747h.078c.442 0 .992-.05 1.65-.147.345-.046.57-.068.674-.068a.67.67 0 01.469.17.565.565 0 01.185.435.674.674 0 01-.156.45.856.856 0 01-.45.263c-.63.163-1.438.244-2.421.244h-.088zM8.44 10.395c0 .657.126 1.157.376 1.498.251.342.62.513 1.109.513.482 0 .85-.164 1.103-.493.254-.329.381-.806.381-1.43v-.792c0-.573-.135-1.025-.405-1.357-.27-.332-.637-.498-1.099-.498-.462 0-.822.174-1.079.522-.257.349-.386.835-.386 1.46v.576z"/></svg>