<svg width="20" height="20" viewBox="0 0 20 20" xmlns="http://www.w3.org/2000/svg"><path fill-rule="evenodd" clip-rule="evenodd" d="M10.0092 1.54154C12.5168 1.54243 14.5501 3.57621 14.5501 6.08404V7.87321C14.5501 8.28742 14.2143 8.62321 13.8001 8.62321C13.3858 8.62321 13.0501 8.28742 13.0501 7.87321V6.08404C13.0501 4.40409 11.6875 3.04154 10.0076 3.04154H10.0043C8.3249 3.03419 6.95741 4.38896 6.94922 6.06911V7.87321C6.94922 8.28742 6.61343 8.62321 6.19922 8.62321C5.78501 8.62321 5.44922 8.28742 5.44922 7.87321V6.06409C5.4602 3.5555 7.5015 1.53145 10.0092 1.54154Z"/><path fill-rule="evenodd" clip-rule="evenodd" d="M6.81625 8.56396C5.48533 8.56396 4.40625 9.64247 4.40625 10.974V14.5481C4.40625 15.8796 5.48533 16.9581 6.81625 16.9581H13.1838C14.5147 16.9581 15.5938 15.8796 15.5938 14.5481V10.974C15.5938 9.64247 14.5147 8.56396 13.1838 8.56396H6.81625ZM2.90625 10.974C2.90625 8.81379 4.65717 7.06396 6.81625 7.06396H13.1838C15.3428 7.06396 17.0938 8.81379 17.0938 10.974V14.5481C17.0938 16.7083 15.3428 18.4581 13.1838 18.4581H6.81625C4.65717 18.4581 2.90625 16.7083 2.90625 14.5481V10.974Z"/><path fill-rule="evenodd" clip-rule="evenodd" d="M10 11.0854C10.4142 11.0854 10.75 11.4212 10.75 11.8354V13.6863C10.75 14.1005 10.4142 14.4363 10 14.4363C9.58579 14.4363 9.25 14.1005 9.25 13.6863V11.8354C9.25 11.4212 9.58579 11.0854 10 11.0854Z"/></svg>