<svg width="20" height="20" xmlns="http://www.w3.org/2000/svg"><path fill-rule="evenodd" clip-rule="evenodd" d="M7.5 1.75a.75.75 0 01.75.75v.917h4.25a.75.75 0 010 1.5h-1.252a15.68 15.68 0 01-2.783 6.16c.146.165.295.327.448.485a.75.75 0 01-1.079 1.042 15.737 15.737 0 01-.334-.356 15.803 15.803 0 01-4.666 3.531.75.75 0 01-.668-1.343 14.302 14.302 0 004.37-3.36 15.732 15.732 0 01-1.883-3.284.75.75 0 011.381-.584c.396.936.889 1.822 1.466 2.643a14.18 14.18 0 002.211-4.934h-7.21a.75.75 0 110-1.5h4.25V2.5a.75.75 0 01.75-.75zm5.834 6.667a.75.75 0 01.67.414l2.91 5.82.014.028 1.243 2.486a.75.75 0 11-1.342.67l-1.042-2.085H10.88l-1.042 2.085a.75.75 0 11-1.342-.67l1.243-2.486a.761.761 0 01.014-.028l2.91-5.82a.75.75 0 01.67-.414zM11.63 14.25h3.407l-1.704-3.406-1.703 3.406z"/></svg>