<svg width="20" height="20" xmlns="http://www.w3.org/2000/svg"><path fill-rule="evenodd" clip-rule="evenodd" d="M7.395 2.107h1.889a.75.75 0 010 1.5H7.427c-.813 0-1.377 0-1.816.036-.43.036-.673.1-.855.194a2.107 2.107 0 00-.92.92c-.094.183-.159.426-.194.856-.036.439-.037 1.003-.037 1.815v5.143c0 .813.001 1.377.037 1.816.035.43.1.673.193.855.202.397.524.719.921.921.182.093.425.158.855.193.44.036 1.003.037 1.816.037h1.857a.75.75 0 010 1.5H7.395c-.773 0-1.399 0-1.906-.042-.523-.043-.985-.133-1.414-.351a3.607 3.607 0 01-1.576-1.577c-.219-.429-.31-.891-.352-1.414-.042-.507-.042-1.133-.042-1.906V7.396c0-.773 0-1.398.042-1.905.043-.523.133-.986.352-1.415A3.607 3.607 0 014.075 2.5c.429-.218.891-.309 1.414-.352.507-.041 1.133-.041 1.906-.041z"/><path fill-rule="evenodd" clip-rule="evenodd" d="M7.82 10a.75.75 0 01.75-.75h8.571a.75.75 0 110 1.5H8.57a.75.75 0 01-.75-.75z"/><path fill-rule="evenodd" clip-rule="evenodd" d="M17.672 9.47a.75.75 0 010 1.06l-2.858 2.857a.75.75 0 11-1.06-1.06l2.857-2.858a.75.75 0 011.06 0z"/><path fill-rule="evenodd" clip-rule="evenodd" d="M13.754 6.612a.75.75 0 011.06 0l2.858 2.857a.75.75 0 11-1.061 1.061l-2.857-2.857a.75.75 0 010-1.06z"/></svg>