<svg width="20" height="20" viewBox="0 0 20 20" xmlns="http://www.w3.org/2000/svg"><path d="M16.6393 11.4715H10.0184C9.577 11.4715 9.28273 11.7658 9.28273 12.2071C9.28273 12.6485 9.577 12.9428 10.0184 12.9428H16.6393C17.0807 12.9428 17.375 12.6485 17.375 12.2071C17.375 11.7658 17.0807 11.4715 16.6393 11.4715ZM16.6393 15.8855H3.39744C2.95605 15.8855 2.66178 16.1797 2.66178 16.6211C2.66178 17.0625 2.95605 17.3568 3.39744 17.3568H16.6393C17.0807 17.3568 17.375 17.0625 17.375 16.6211C17.375 16.1797 17.0807 15.8855 16.6393 15.8855ZM16.6393 7.05752H10.0184C9.577 7.05752 9.28273 7.35178 9.28273 7.79318C9.28273 8.23458 9.577 8.52884 10.0184 8.52884H16.6393C17.0807 8.52884 17.375 8.23458 17.375 7.79318C17.375 7.35178 17.0807 7.05752 16.6393 7.05752ZM3.39744 4.11488H16.6393C17.0807 4.11488 17.375 3.82061 17.375 3.37922C17.375 2.93782 17.0807 2.64355 16.6393 2.64355H3.39744C2.95605 2.64355 2.66178 2.93782 2.66178 3.37922C2.66178 3.82061 2.95605 4.11488 3.39744 4.11488ZM6.48722 13.4578C6.34009 13.5313 6.26652 13.5313 6.11939 13.5313C5.89869 13.5313 5.67799 13.4578 5.45729 13.2371L2.95605 10.7358C2.51465 10.2944 2.51465 9.55877 2.95605 9.11737L5.45729 6.61612C5.75156 6.32186 6.11939 6.24829 6.48722 6.39543C6.85505 6.61612 7.07575 6.98395 7.07575 7.35179V12.6485C7.07575 13.0164 6.85505 13.3842 6.48722 13.4578Z"/></svg>