<svg width="20" height="20" xmlns="http://www.w3.org/2000/svg"><path d="M10.005 1.75c3.346 0 5.746 2.732 5.746 6.276V9.36c0 .19.161.444.6.897l.226.23c.901.913 1.258 1.44 1.258 2.287 0 .37-.044.659-.224 1.005-.38.731-1.186 1.139-2.39 1.139h-1.594c-.524 1.944-1.775 3-3.626 3-1.87 0-3.128-1.078-3.642-3.062l.016.062H4.782c-1.24 0-2.055-.419-2.418-1.176-.16-.33-.196-.6-.196-.968 0-.847.357-1.374 1.258-2.288.115-.117.169-.171.225-.23.44-.452.6-.705.6-.896V8.026c0-3.543 2.407-6.276 5.754-6.276zm2.051 13.168h-4.11c.38 1.04 1.035 1.499 2.055 1.499 1.02 0 1.675-.46 2.055-1.499zM10.005 3.25c-2.473 0-4.254 2.022-4.254 4.776V9.36c0 .71-.324 1.22-1.023 1.94a33.62 33.62 0 01-.234.24c-.623.63-.826.93-.826 1.234 0 .16.011.243.047.318.09.186.361.326 1.067.326h10.439c.683 0 .96-.14 1.06-.331.04-.08.054-.165.054-.313 0-.303-.204-.603-.826-1.235a34.413 34.413 0 01-.234-.238c-.7-.721-1.024-1.23-1.024-1.94V8.025c0-2.756-1.775-4.776-4.246-4.776z"/></svg>