<svg width="20" height="20" xmlns="http://www.w3.org/2000/svg"><path d="M3.746 3.436c-2.434 2.678-1.134 6.821 2.44 10.412 3.498 3.514 7.828 4.827 10.39 2.443 1.403-1.304 1.196-3.614-.536-5.158l-.158-.134c-1.607-1.302-3.94-1.306-5.364-.023l-.073.068-.041-.034a10.904 10.904 0 01-.603-.561l-.248-.252-.255-.271a10.4 10.4 0 01-.205-.231l-.103-.122-.058.063c1.406-1.413 1.42-3.928.005-5.618-1.57-1.877-3.953-1.944-5.191-.582zm4.042 1.543c.983 1.174.873 2.806.083 3.6l-.124.116c-.524.472-1.036.75.86 2.678 2.045 2.08 2.3 1.35 2.833.793.837-.841 2.476-.919 3.603.085 1.246 1.111 1.111 2.387.513 2.943-1.848 1.72-5.39.53-8.308-2.403-2.92-2.933-4.215-6.344-2.394-8.347.423-.466 1.749-.881 2.934.535z"/></svg>