<svg width="20" height="20" xmlns="http://www.w3.org/2000/svg"><path fill-rule="evenodd" clip-rule="evenodd" d="M10.002 3.166c3.51.002 6.662 2.463 8.433 6.583a.63.63 0 010 .502c-1.77 4.12-4.924 6.582-8.434 6.584h-.004c-3.51-.003-6.663-2.463-8.434-6.584a.638.638 0 010-.502c1.77-4.12 4.924-6.58 8.434-6.583l.001-.001h.003zm-.008 1.5h.012c2.646.004 5.271 1.805 6.9 5.334-1.629 3.531-4.258 5.333-6.906 5.335h-.002C7.35 15.333 4.722 13.532 3.093 10c1.628-3.53 4.255-5.33 6.9-5.334z"/><path fill-rule="evenodd" clip-rule="evenodd" d="M10 8.115a1.884 1.884 0 10-.001 3.769 1.884 1.884 0 000-3.769zM6.614 10a3.384 3.384 0 116.769 0 3.384 3.384 0 01-6.768 0z"/></svg>