<svg width="20" height="20" xmlns="http://www.w3.org/2000/svg"><path d="M7.605 2.583l5.039.002c1.3.016 1.973.16 2.67.532.674.36 1.207.894 1.567 1.568.397.74.534 1.454.534 2.922v4.787c0 1.468-.137 2.18-.534 2.921a3.779 3.779 0 01-1.567 1.568c-.741.396-1.454.534-2.922.534H7.605c-1.468 0-2.18-.138-2.921-.534a3.779 3.779 0 01-1.568-1.568c-.396-.74-.534-1.453-.534-2.921l.001-5.039c.016-1.3.16-1.973.533-2.67a3.779 3.779 0 011.568-1.568c.74-.396 1.453-.534 2.921-.534zm4.787 1.5H7.605c-1.095 0-1.597.072-2.04.27l-.174.087a2.27 2.27 0 00-.952.952c-.264.494-.357.973-.357 2.215v4.787c0 1.095.072 1.597.27 2.039l.087.175c.22.412.54.732.952.952.436.233.86.333 1.806.353l.408.004h4.787c1.096 0 1.597-.072 2.04-.27l.174-.087c.413-.22.732-.54.953-.952.233-.436.332-.86.352-1.806l.004-.408V7.607c0-1.096-.072-1.597-.27-2.04l-.086-.175a2.279 2.279 0 00-.953-.952c-.493-.264-.972-.357-2.214-.357zM10 6.75a3.25 3.25 0 110 6.5 3.25 3.25 0 010-6.5zm0 1.5a1.75 1.75 0 100 3.5 1.75 1.75 0 000-3.5z"/></svg>