<svg width="20" height="20" xmlns="http://www.w3.org/2000/svg"><path fill-rule="evenodd" clip-rule="evenodd" d="M11.856 13.75a2.76 2.76 0 012.644-2 2.726 2.726 0 012.75 2.75 2.726 2.726 0 01-2.75 2.75 2.76 2.76 0 01-2.644-2H7.5a4.731 4.731 0 01-4.75-4.75v-7a.75.75 0 01.21-.54.75.75 0 01.54-.21.75.75 0 01.54.21c.14.141.21.333.21.54v3.25h7.606a2.76 2.76 0 012.644-2 2.726 2.726 0 012.75 2.75 2.726 2.726 0 01-2.75 2.75 2.76 2.76 0 01-2.644-2H4.25v2.25a3.228 3.228 0 003.25 3.25h4.356zM15.75 7.5c0-.712-.538-1.25-1.25-1.25s-1.25.538-1.25 1.25.538 1.25 1.25 1.25 1.25-.538 1.25-1.25zm-2.5 7c0 .712.538 1.25 1.25 1.25s1.25-.538 1.25-1.25-.538-1.25-1.25-1.25-1.25.538-1.25 1.25z"/></svg>