<svg width="20" height="20" xmlns="http://www.w3.org/2000/svg"><path d="M12.376 6.542a2.374 2.374 0 10-4.75 0 2.374 2.374 0 104.75 0zm1.5 0a3.874 3.874 0 01-3.875 3.874 3.874 3.874 0 01-3.875-3.875 3.874 3.874 0 013.875-3.875 3.874 3.874 0 013.875 3.876zm-8.958 8.732c0 .64-.076.56.28.56h9.607c.355 0 .28.08.28-.56 0-1.577-2.316-2.524-5.084-2.524s-5.083.947-5.083 2.524zm-1.5 0c0-2.773 3.06-4.024 6.583-4.024s6.584 1.251 6.584 4.024c0 1.446-.572 2.06-1.78 2.06H5.197c-1.208 0-1.779-.614-1.779-2.06z"/></svg>