<svg width="20" height="20" xmlns="http://www.w3.org/2000/svg"><path fill-rule="evenodd" clip-rule="evenodd" d="M10.924 4.862l1.968-1.968c.85-.85 2.23-.85 3.08 0l1.132 1.132c.851.851.851 2.23 0 3.08l-9.686 9.687a3.25 3.25 0 01-2.297.951H3.753a1.5 1.5 0 01-1.5-1.499v-1.368c0-.861.343-1.688.953-2.297l7.718-7.718zm1.008 1.112L4.265 13.64a1.75 1.75 0 00-.513 1.237v1.368h1.369c.464 0 .91-.184 1.238-.512l7.666-7.666-2.093-2.093zm1.12-1.122l2.094 2.093.899-.898a.68.68 0 000-.96l-1.133-1.134a.68.68 0 00-.96 0l-.9.9z"/></svg>